<?xml version="1.0" standalone="no"?>
<!DOCTYPE svg PUBLIC "-//W3C//DTD SVG 20010904//EN"
 "http://www.w3.org/TR/2001/REC-SVG-20010904/DTD/svg10.dtd">
<svg version="1.0" xmlns="http://www.w3.org/2000/svg"
 width="126.000000pt" height="124.000000pt" viewBox="0 0 126.000000 124.000000"
 preserveAspectRatio="xMidYMid meet">

<g transform="translate(0.000000,124.000000) scale(0.100000,-0.100000)"
fill="#000000" stroke="none">
<path d="M249 1191 l-39 -39 -1 -156 c0 -200 0 -562 0 -762 l1 -156 39 -39 39
-39 337 0 337 0 39 39 39 39 0 236 0 236 30 0 c37 0 70 31 70 65 0 34 -33 65
-70 65 l-30 0 0 236 0 236 -39 39 -39 39 -337 0 -337 0 -39 -39z m723 -29 l33
-32 0 -515 0 -515 -33 -32 -32 -33 -315 0 -315 0 -32 33 -33 32 0 515 0 514
29 30 c16 16 38 32 50 34 11 3 155 4 318 3 l298 -1 32 -33z m132 -534 c8 -14
7 -21 -6 -34 -30 -30 -75 9 -48 42 16 18 39 15 54 -8z"/>
<path d="M280 600 c0 -72 3 -90 15 -90 10 0 15 15 17 58 l3 57 33 -57 c23 -39
40 -58 53 -58 17 0 19 8 19 90 0 72 -3 90 -15 90 -10 0 -15 -15 -17 -57 l-3
-58 -35 58 c-21 35 -42 57 -52 57 -16 0 -18 -11 -18 -90z"/>
<path d="M472 601 c-28 -85 -29 -91 -12 -91 10 0 22 9 25 20 5 15 15 20 45 20
29 0 39 -4 43 -20 6 -22 37 -28 36 -7 0 6 -13 46 -28 87 -24 64 -32 75 -54 78
-23 3 -27 -3 -55 -87z m78 -8 c0 -7 -11 -13 -25 -13 -29 0 -28 -2 -14 40 l12
33 13 -24 c7 -13 13 -30 14 -36z"/>
<path d="M640 600 c0 -72 3 -90 15 -90 10 0 15 15 17 58 l3 57 33 -57 c23 -39
40 -58 53 -58 17 0 19 8 19 90 0 72 -3 90 -15 90 -10 0 -15 -15 -17 -57 l-3
-58 -35 58 c-21 35 -42 57 -52 57 -16 0 -18 -11 -18 -90z"/>
<path d="M820 600 l0 -90 50 0 c41 0 56 5 77 26 22 22 25 32 20 72 -7 60 -32
82 -98 82 l-49 0 0 -90z m98 48 c16 -16 16 -80 0 -96 -7 -7 -25 -12 -40 -12
-28 0 -28 1 -28 60 0 59 0 60 28 60 15 0 33 -5 40 -12z"/>
</g>
</svg>
