<svg id="svg" version="1.1" xmlns="http://www.w3.org/2000/svg" xmlns:xlink="http://www.w3.org/1999/xlink" width="400" height="472.38095238095235" viewBox="0, 0, 400,472.38095238095235"><g id="svgg"><path id="path0" d="M40.000 0.989 L 40.000 1.977 34.500 2.089 L 29.000 2.200 28.879 3.850 L 28.759 5.500 25.479 5.786 C 21.705 6.114,21.200 6.402,21.200 8.227 C 21.200 9.529,21.161 9.559,19.300 9.678 L 17.400 9.800 17.277 11.500 C 17.160 13.118,17.092 13.200,15.877 13.206 C 14.062 13.215,13.569 13.661,13.320 15.522 C 13.106 17.113,13.054 17.162,11.450 17.279 L 9.800 17.400 9.678 19.300 C 9.559 21.161,9.529 21.200,8.227 21.200 C 6.402 21.200,6.114 21.705,5.786 25.479 L 5.500 28.759 3.850 28.879 L 2.200 29.000 2.089 34.500 L 1.977 40.000 0.989 40.000 L 0.000 40.000 0.000 237.800 L 0.000 435.600 1.000 435.600 L 2.000 435.600 2.000 440.920 C 2.000 446.759,2.157 447.200,4.233 447.200 L 5.505 447.200 5.789 450.605 C 6.093 454.260,6.449 454.800,8.551 454.800 C 9.445 454.800,9.567 454.985,9.677 456.500 C 9.796 458.149,9.851 458.211,11.500 458.557 C 12.847 458.839,13.201 459.089,13.205 459.757 C 13.220 461.944,13.607 462.400,15.447 462.400 L 17.200 462.400 17.200 464.010 C 17.200 465.736,18.040 466.400,20.226 466.400 C 21.071 466.400,21.200 466.584,21.200 467.786 C 21.200 469.617,21.992 470.000,25.774 470.000 C 28.735 470.000,28.800 470.021,28.800 471.000 L 28.800 472.000 162.000 472.000 L 295.200 472.000 295.200 471.000 C 295.200 470.023,295.269 470.000,298.167 470.000 C 301.988 470.000,302.353 469.834,302.653 467.956 C 302.851 466.718,303.075 466.399,303.751 466.395 C 305.796 466.381,306.312 465.978,306.581 464.186 C 306.838 462.474,306.872 462.442,308.521 462.322 C 310.181 462.201,310.201 462.181,310.321 460.542 C 310.439 458.918,310.477 458.879,312.179 458.624 C 313.968 458.356,314.381 457.820,314.395 455.751 C 314.399 455.075,314.718 454.851,315.956 454.653 C 317.832 454.353,318.000 453.986,318.000 450.190 L 318.000 447.246 319.684 447.123 C 321.791 446.969,321.906 446.625,321.960 440.323 L 322.000 435.646 323.700 435.523 L 325.400 435.400 325.501 342.361 L 325.602 249.322 323.977 248.590 C 320.946 247.223,320.800 246.732,320.800 237.892 C 320.800 229.105,320.898 228.783,324.038 227.181 L 325.600 226.384 325.600 133.435 C 325.600 49.046,325.542 40.463,324.967 40.243 C 324.619 40.109,323.809 40.000,323.167 40.000 L 322.000 40.000 322.000 35.650 C 322.000 29.148,321.886 28.800,319.750 28.800 L 318.000 28.800 318.000 25.774 C 318.000 21.992,317.617 21.200,315.786 21.200 C 314.584 21.200,314.400 21.071,314.400 20.226 C 314.400 18.040,313.736 17.200,312.010 17.200 L 310.400 17.200 310.400 15.447 C 310.400 13.600,309.945 13.219,307.724 13.205 C 307.013 13.201,306.784 12.878,306.513 11.500 C 306.188 9.849,306.130 9.796,304.489 9.677 C 302.985 9.567,302.800 9.444,302.800 8.551 C 302.800 6.449,302.260 6.093,298.605 5.789 L 295.200 5.505 295.200 4.233 C 295.200 2.157,294.759 2.000,288.920 2.000 L 283.600 2.000 283.600 1.000 L 283.600 0.000 161.800 0.000 L 40.000 0.000 40.000 0.989 M273.167 15.648 C 274.615 15.894,276.072 16.333,276.405 16.624 C 277.032 17.171,278.905 17.691,282.953 18.442 C 284.764 18.778,285.619 19.192,286.666 20.239 C 287.414 20.988,288.311 21.600,288.659 21.600 C 289.960 21.600,292.433 23.407,294.140 25.606 C 295.111 26.856,296.931 28.671,298.185 29.639 C 300.304 31.276,302.400 34.289,302.400 35.698 C 302.400 35.986,302.924 36.681,303.564 37.243 C 304.739 38.275,305.176 39.463,305.955 43.759 C 306.190 45.056,306.636 46.406,306.947 46.759 C 307.988 47.942,308.387 51.099,307.761 53.206 C 307.243 54.951,307.261 55.248,307.990 56.853 C 308.776 58.586,308.782 60.016,308.790 239.800 C 308.797 431.982,308.845 426.757,307.053 428.743 C 306.421 429.443,305.800 431.760,305.386 434.965 C 305.198 436.415,304.812 437.250,303.913 438.149 C 303.243 438.819,302.417 440.182,302.077 441.178 C 301.665 442.388,300.798 443.590,299.469 444.795 C 296.948 447.080,295.080 448.948,292.795 451.469 C 291.590 452.798,290.388 453.665,289.178 454.077 C 288.182 454.417,286.819 455.243,286.149 455.913 C 285.250 456.812,284.415 457.198,282.965 457.386 C 279.760 457.800,277.443 458.421,276.743 459.053 C 274.810 460.798,274.887 460.797,163.874 460.798 C 59.096 460.800,58.742 460.797,56.860 459.988 C 55.097 459.229,54.857 459.216,53.252 459.782 C 51.291 460.473,49.096 460.158,46.516 458.814 C 45.682 458.380,43.830 457.857,42.400 457.653 C 39.259 457.205,37.813 456.585,36.996 455.338 C 36.658 454.822,36.110 454.400,35.777 454.400 C 34.295 454.400,31.314 452.353,29.639 450.185 C 28.671 448.931,26.856 447.111,25.606 446.140 C 23.407 444.433,21.600 441.960,21.600 440.659 C 21.600 440.311,20.991 439.417,20.246 438.673 C 18.931 437.358,18.000 434.691,18.000 432.240 C 18.000 431.733,17.575 430.520,17.056 429.543 C 15.132 425.924,15.200 432.905,15.200 240.352 C 15.200 61.171,15.213 58.144,15.972 56.655 C 16.687 55.252,16.700 55.019,16.142 53.471 C 15.391 51.385,15.658 49.085,16.929 46.696 C 17.458 45.701,18.014 43.767,18.171 42.373 C 18.479 39.654,19.172 37.956,20.316 37.124 C 20.712 36.836,21.373 35.700,21.785 34.600 C 22.515 32.651,22.936 32.153,27.031 28.391 C 28.114 27.396,29.810 25.665,30.800 24.544 C 32.049 23.130,33.212 22.280,34.600 21.767 C 35.700 21.360,36.909 20.640,37.286 20.168 C 38.159 19.076,39.495 18.570,43.000 18.003 C 44.540 17.754,46.250 17.253,46.800 16.890 C 47.350 16.527,48.790 16.013,50.000 15.749 C 53.057 15.079,269.250 14.982,273.167 15.648 M46.880 210.880 C 46.616 211.144,46.400 211.566,46.400 211.818 C 46.400 212.591,45.030 213.570,42.967 214.271 C 39.911 215.309,35.937 219.576,35.036 222.786 C 34.622 224.261,33.900 225.684,33.203 226.397 C 30.562 229.099,30.575 247.024,33.219 249.417 C 33.653 249.810,34.260 250.957,34.567 251.966 C 35.616 255.408,36.382 256.770,37.630 257.415 C 38.304 257.764,39.221 258.669,39.668 259.425 C 40.316 260.524,40.922 260.930,42.680 261.440 C 44.866 262.076,45.542 262.574,46.919 264.562 L 47.637 265.600 55.234 265.600 L 62.830 265.600 64.534 263.847 C 65.896 262.445,66.693 261.992,68.508 261.586 C 70.557 261.127,70.822 260.946,71.222 259.734 C 71.465 258.996,72.266 257.932,73.002 257.372 C 74.231 256.434,75.200 254.659,75.200 253.343 C 75.200 253.048,74.526 252.489,73.702 252.101 C 72.713 251.635,71.965 250.887,71.499 249.898 C 71.111 249.074,70.696 248.400,70.577 248.400 C 69.806 248.400,67.818 249.929,65.403 252.378 C 62.025 255.805,61.456 255.996,54.600 255.996 C 48.014 255.996,46.692 255.647,45.377 253.563 C 44.823 252.686,43.936 251.804,43.406 251.602 C 42.003 251.069,41.340 249.797,40.615 246.247 C 40.261 244.512,39.786 242.747,39.559 242.324 C 37.947 239.311,40.719 225.729,43.252 224.233 C 43.904 223.848,44.833 222.927,45.318 222.186 C 46.563 220.284,47.529 219.973,52.981 219.719 C 60.865 219.352,64.012 220.569,66.219 224.837 C 66.746 225.855,68.554 226.803,69.960 226.797 C 70.312 226.796,70.911 226.249,71.291 225.581 C 71.671 224.913,72.604 224.107,73.364 223.789 C 75.631 222.842,75.613 222.183,73.249 219.652 C 72.593 218.951,71.749 217.569,71.372 216.582 C 70.859 215.239,70.424 214.728,69.643 214.553 C 65.505 213.627,65.341 213.544,64.053 211.700 L 63.146 210.400 55.253 210.400 C 49.647 210.400,47.221 210.539,46.880 210.880 M103.552 210.798 C 103.196 211.009,102.336 211.712,101.642 212.361 C 100.947 213.010,99.798 213.658,99.089 213.800 C 96.725 214.276,96.463 214.428,95.666 215.778 C 95.230 216.517,94.378 217.364,93.772 217.661 C 93.064 218.007,92.475 218.769,92.124 219.792 C 91.824 220.668,91.064 221.928,90.436 222.592 C 86.327 226.940,86.567 249.969,90.761 253.764 C 91.224 254.184,91.791 255.226,92.021 256.079 C 92.331 257.228,92.773 257.791,93.724 258.245 C 94.431 258.582,95.397 259.448,95.870 260.170 C 96.596 261.278,97.106 261.556,99.149 261.958 C 100.970 262.316,101.779 262.702,102.418 263.517 C 103.938 265.455,104.501 265.571,112.481 265.586 L 119.963 265.600 120.681 264.562 C 122.060 262.570,122.735 262.076,124.955 261.430 C 126.699 260.923,127.325 260.519,127.806 259.588 C 128.145 258.932,129.093 257.967,129.911 257.444 C 130.976 256.763,131.607 255.938,132.126 254.546 C 132.848 252.613,133.874 250.448,135.392 247.656 C 137.056 244.595,136.467 228.691,134.607 226.481 C 134.078 225.852,133.192 224.134,132.638 222.662 C 131.307 219.126,127.572 215.254,124.512 214.237 C 122.446 213.551,121.787 213.029,121.004 211.457 C 120.532 210.510,105.030 209.925,103.552 210.798 M149.500 210.832 C 148.844 211.214,148.800 212.934,148.800 237.956 L 148.800 264.672 149.819 265.136 C 151.083 265.712,153.793 265.739,154.826 265.186 C 155.571 264.787,155.600 264.186,155.600 249.168 L 155.600 233.564 156.582 232.582 C 157.853 231.311,158.229 231.343,159.588 232.842 C 161.002 234.400,161.611 235.010,163.112 236.366 C 163.967 237.139,164.455 238.103,164.824 239.749 C 165.235 241.589,165.560 242.166,166.439 242.620 C 167.393 243.113,169.200 246.595,169.200 247.940 C 169.200 248.111,169.747 248.774,170.415 249.414 C 171.129 250.098,171.875 251.423,172.226 252.630 C 172.554 253.758,173.284 255.113,173.849 255.641 C 175.125 256.832,175.813 258.159,176.165 260.102 C 176.347 261.105,176.828 261.892,177.614 262.474 C 178.262 262.953,178.890 263.653,179.009 264.029 C 179.421 265.326,181.358 265.747,185.124 265.358 L 188.600 265.000 188.703 237.953 L 188.806 210.906 187.303 210.657 C 184.799 210.243,180.992 210.368,180.480 210.880 C 180.124 211.236,180.000 215.170,180.000 226.103 C 180.000 241.777,179.817 243.681,178.161 245.237 L 177.200 246.139 176.213 245.212 C 175.670 244.702,174.934 243.407,174.578 242.334 C 174.222 241.261,173.320 239.736,172.575 238.945 C 171.790 238.113,171.109 236.896,170.957 236.054 C 170.607 234.116,170.137 233.275,168.577 231.804 C 167.709 230.985,167.179 230.036,167.004 228.985 C 166.582 226.454,166.063 225.446,164.817 224.733 C 163.747 224.121,162.400 221.135,162.400 219.375 C 162.400 219.111,161.803 218.440,161.074 217.884 C 160.219 217.232,159.564 216.256,159.230 215.136 C 158.332 212.127,157.709 211.268,156.099 210.821 C 154.197 210.292,150.415 210.299,149.500 210.832 M212.284 210.735 C 211.664 210.882,210.950 211.444,210.677 212.000 C 210.406 212.550,209.333 213.435,208.292 213.966 C 207.252 214.497,206.400 215.200,206.400 215.528 C 206.400 215.855,205.654 216.811,204.743 217.652 L 203.086 219.182 202.890 223.946 C 202.608 230.801,202.705 231.109,206.324 234.785 C 209.902 238.419,210.214 238.604,213.399 238.991 C 215.503 239.246,215.977 239.475,217.238 240.841 L 218.677 242.400 222.439 242.402 C 229.898 242.407,234.430 246.175,232.962 251.154 C 231.757 255.244,229.916 255.995,221.074 255.998 C 214.083 256.000,213.421 255.826,212.555 253.754 C 212.237 252.994,211.570 252.217,211.072 252.027 C 210.090 251.654,209.274 250.803,208.606 249.457 C 208.096 248.430,205.016 248.096,202.442 248.789 L 200.848 249.218 201.388 250.509 C 201.685 251.220,202.157 252.971,202.438 254.400 C 202.959 257.054,203.706 258.400,204.657 258.400 C 204.950 258.400,205.623 259.086,206.152 259.924 C 206.846 261.024,207.565 261.583,208.735 261.933 C 209.627 262.201,210.720 262.880,211.163 263.444 C 212.514 265.162,214.918 265.600,222.987 265.600 C 230.701 265.600,230.860 265.564,232.110 263.542 C 232.535 262.853,233.633 262.152,235.254 261.533 C 237.893 260.525,238.820 259.392,240.033 255.689 C 240.302 254.870,240.782 253.799,241.101 253.308 C 242.709 250.837,242.517 247.399,240.630 244.840 C 240.086 244.104,239.526 242.976,239.385 242.333 C 239.217 241.568,238.599 240.831,237.596 240.198 C 236.753 239.665,235.949 238.869,235.809 238.427 C 235.526 237.537,233.449 236.806,231.189 236.802 C 229.671 236.800,228.000 235.876,228.000 235.039 C 228.000 233.663,226.670 233.277,221.400 233.127 C 215.440 232.958,214.692 232.687,212.759 230.000 C 212.047 229.010,211.135 227.965,210.732 227.677 C 209.781 226.998,209.804 226.160,210.796 225.310 C 211.234 224.935,211.885 223.749,212.242 222.675 C 213.199 219.791,214.300 219.432,221.284 219.725 C 227.608 219.990,228.062 220.160,229.375 222.750 C 231.124 226.201,232.754 227.255,236.133 227.117 L 239.000 227.000 239.127 225.212 C 239.310 222.649,238.472 220.099,236.948 218.574 C 236.223 217.849,235.508 216.748,235.359 216.128 C 234.966 214.484,234.567 214.129,232.787 213.844 C 231.742 213.677,230.619 213.073,229.537 212.094 L 227.884 210.600 220.642 210.535 C 216.659 210.500,212.898 210.590,212.284 210.735 M254.200 210.750 L 253.000 211.006 252.885 214.907 C 252.745 219.685,252.620 219.599,259.726 219.602 C 265.143 219.605,267.176 220.007,269.100 221.460 L 270.400 222.441 270.400 243.581 L 270.400 264.722 271.660 265.161 C 273.329 265.743,276.120 265.720,276.720 265.120 C 277.081 264.759,277.200 259.418,277.200 243.542 L 277.200 222.445 278.134 221.359 C 279.250 220.061,281.360 219.673,287.526 219.629 C 293.236 219.589,293.200 219.618,293.200 215.000 C 293.200 211.680,293.107 211.179,292.426 210.814 C 291.578 210.360,256.307 210.301,254.200 210.750 M118.080 220.035 C 119.696 220.366,120.538 220.825,121.619 221.964 C 122.399 222.786,123.609 223.796,124.307 224.209 C 125.586 224.964,126.454 226.581,126.988 229.200 C 127.145 229.970,127.707 231.271,128.237 232.091 C 129.487 234.027,129.552 237.780,128.396 241.212 C 127.954 242.525,127.391 244.545,127.147 245.700 C 126.576 248.390,125.431 250.648,124.341 251.232 C 123.870 251.484,122.728 252.387,121.803 253.240 C 119.116 255.717,118.032 256.000,111.239 256.000 C 104.518 256.000,103.534 255.769,102.414 253.926 C 101.981 253.215,101.036 252.356,100.314 252.016 C 99.505 251.637,98.692 250.785,98.200 249.800 C 97.760 248.920,96.833 247.647,96.141 246.972 C 93.385 244.283,93.735 230.583,96.617 228.315 C 97.107 227.930,97.801 226.881,98.159 225.985 C 98.636 224.793,99.184 224.199,100.196 223.776 C 100.958 223.458,101.854 222.669,102.188 222.024 C 102.521 221.379,103.021 220.709,103.297 220.536 C 104.702 219.656,114.595 219.320,118.080 220.035 " stroke="none" fill="#090909" fill-rule="evenodd"></path><path id="path1" d="M51.600 17.658 C 44.735 18.791,40.587 19.820,39.259 20.721 C 38.474 21.254,36.869 22.146,35.692 22.703 C 34.291 23.366,32.834 24.539,31.476 26.096 C 30.334 27.404,29.051 28.773,28.625 29.137 C 25.265 32.013,23.536 33.933,22.680 35.741 C 22.135 36.891,21.254 38.474,20.721 39.259 C 19.259 41.414,17.819 48.853,18.137 52.612 C 18.315 54.720,18.219 56.013,17.792 57.221 C 17.047 59.333,16.878 418.642,17.620 423.723 C 18.773 431.623,19.693 435.223,21.012 437.000 C 21.503 437.660,22.259 439.010,22.692 440.000 C 23.446 441.719,24.782 443.270,28.235 446.434 C 29.096 447.222,30.706 448.849,31.812 450.048 C 32.963 451.295,34.676 452.623,35.812 453.148 C 36.906 453.654,38.430 454.494,39.200 455.016 C 41.497 456.573,47.110 457.731,52.197 457.698 C 55.137 457.680,57.042 457.857,57.946 458.235 C 60.455 459.284,265.834 459.056,272.642 457.998 C 280.308 456.805,283.287 456.094,284.400 455.191 C 284.950 454.745,286.483 453.871,287.806 453.249 C 289.475 452.464,290.849 451.395,292.290 449.759 C 294.846 446.859,294.859 446.846,297.759 444.290 C 299.395 442.849,300.464 441.475,301.249 439.806 C 301.871 438.483,302.745 436.950,303.191 436.400 C 304.094 435.287,304.805 432.308,305.998 424.642 C 307.068 417.760,307.288 60.465,306.223 57.917 C 305.830 56.977,305.659 55.145,305.684 52.169 C 305.726 47.367,304.581 41.438,303.258 39.600 C 302.862 39.050,301.873 37.331,301.062 35.781 C 300.142 34.024,298.886 32.366,297.728 31.381 C 295.300 29.314,294.139 28.151,292.220 25.864 C 291.244 24.701,289.791 23.577,288.420 22.924 C 287.199 22.343,285.660 21.474,285.000 20.994 C 283.207 19.690,279.568 18.765,271.723 17.620 C 268.067 17.086,54.842 17.123,51.600 17.658 M279.178 19.918 C 280.390 20.173,282.135 20.936,283.112 21.638 C 284.078 22.331,285.668 23.140,286.646 23.434 C 287.950 23.826,289.055 24.639,290.796 26.484 C 293.343 29.184,293.905 29.751,297.587 33.320 C 299.323 35.003,300.101 36.101,300.421 37.320 C 300.663 38.244,301.404 39.685,302.067 40.522 C 303.589 42.443,304.377 46.604,304.459 53.153 C 304.859 85.114,304.512 426.401,304.076 429.366 C 303.551 432.942,303.206 433.839,301.383 436.359 C 300.842 437.107,300.400 438.173,300.400 438.728 C 300.400 439.466,299.566 440.535,297.300 442.699 C 293.561 446.271,294.271 445.561,290.699 449.300 C 288.603 451.494,287.455 452.401,286.769 452.402 C 286.236 452.403,285.333 452.718,284.763 453.102 C 279.100 456.913,289.665 456.606,166.000 456.560 C 106.490 456.538,55.709 456.493,53.153 456.460 C 46.601 456.376,42.442 455.589,40.522 454.067 C 39.685 453.404,38.244 452.663,37.320 452.421 C 36.101 452.101,35.003 451.323,33.320 449.587 C 30.693 446.877,29.838 446.020,26.249 442.498 C 24.533 440.814,23.615 439.572,23.443 438.698 C 23.302 437.984,22.545 436.467,21.762 435.326 C 19.323 431.774,19.473 443.378,19.319 245.800 C 19.158 38.515,19.097 43.356,21.877 40.354 C 22.410 39.779,23.107 38.441,23.426 37.381 C 23.877 35.880,24.603 34.890,26.703 32.910 C 30.001 29.800,29.795 30.006,32.938 26.675 C 34.945 24.547,35.933 23.822,37.439 23.368 C 38.501 23.049,39.826 22.362,40.385 21.842 C 41.732 20.587,43.487 20.069,47.809 19.649 C 53.475 19.098,276.516 19.357,279.178 19.918 M46.082 208.938 C 45.577 209.218,44.831 209.996,44.423 210.666 C 43.859 211.593,43.292 211.947,42.054 212.145 C 39.675 212.525,38.415 213.210,37.759 214.480 C 37.439 215.098,36.480 216.045,35.628 216.582 C 34.345 217.392,33.932 218.001,33.225 220.123 C 32.756 221.533,31.927 223.105,31.382 223.617 C 28.490 226.334,28.485 249.649,31.376 253.104 C 31.880 253.707,32.776 255.156,33.366 256.325 C 34.047 257.674,34.943 258.747,35.819 259.264 C 36.579 259.712,37.200 260.227,37.200 260.409 C 37.200 261.576,39.328 263.118,41.608 263.602 C 43.644 264.034,44.139 264.309,44.647 265.290 C 45.677 267.282,47.143 267.600,55.287 267.598 C 63.481 267.595,64.809 267.359,66.784 265.556 C 67.543 264.863,68.943 264.030,69.895 263.706 C 70.847 263.381,71.935 262.660,72.313 262.102 C 72.943 261.173,74.434 259.594,76.038 258.161 C 76.389 257.847,76.995 256.539,77.384 255.254 C 78.258 252.368,77.916 251.539,75.463 250.603 C 74.189 250.116,73.541 249.565,73.062 248.561 C 71.372 245.017,67.712 245.768,62.927 250.640 L 59.563 254.064 54.591 253.932 L 49.619 253.800 46.780 251.000 C 42.569 246.847,42.628 247.024,42.613 238.600 C 42.596 229.057,42.619 228.971,46.124 225.431 C 49.525 221.997,50.496 221.600,55.490 221.600 L 59.261 221.600 61.731 224.160 C 63.089 225.569,64.569 227.212,65.019 227.811 C 66.691 230.036,71.424 229.697,72.975 227.240 C 73.529 226.363,74.466 225.516,75.145 225.279 C 78.205 224.212,78.075 220.145,74.877 216.876 C 74.065 216.046,73.100 214.801,72.734 214.110 C 72.179 213.063,71.601 212.715,69.258 212.017 C 67.198 211.404,66.378 210.960,66.185 210.354 C 65.588 208.473,49.021 207.306,46.082 208.938 M103.000 208.597 C 102.780 208.670,102.110 208.838,101.511 208.970 C 100.911 209.102,99.710 209.928,98.842 210.805 C 97.973 211.682,96.913 212.400,96.485 212.400 C 95.567 212.400,93.600 213.853,93.600 214.531 C 93.600 214.792,93.076 215.237,92.436 215.520 C 91.708 215.842,90.969 216.679,90.464 217.753 C 90.020 218.698,89.211 219.763,88.666 220.120 C 88.002 220.555,87.381 221.664,86.783 223.484 C 86.292 224.978,85.420 227.010,84.845 228.000 C 83.813 229.777,83.800 229.901,83.800 237.800 L 83.800 245.800 85.058 248.400 C 85.750 249.830,86.630 251.977,87.014 253.171 C 87.397 254.364,88.105 255.714,88.586 256.171 C 89.068 256.627,89.800 257.582,90.213 258.294 C 90.627 259.005,91.526 259.853,92.211 260.179 C 92.897 260.504,93.652 261.196,93.889 261.717 C 94.184 262.364,95.101 262.948,96.785 263.562 C 98.140 264.056,99.350 264.725,99.474 265.047 C 100.848 268.629,121.402 268.723,123.094 265.156 C 123.491 264.321,124.037 264.023,125.830 263.663 C 128.413 263.144,132.763 259.233,134.414 255.945 C 134.896 254.985,135.654 253.802,136.099 253.316 C 139.503 249.600,139.065 223.941,135.561 221.776 C 135.313 221.623,134.686 220.538,134.168 219.365 C 133.530 217.923,132.832 217.030,132.010 216.605 C 131.342 216.260,130.349 215.270,129.803 214.405 C 128.915 212.997,128.553 212.780,126.336 212.323 C 124.249 211.891,123.747 211.617,123.129 210.569 C 121.935 208.546,121.152 208.397,111.881 208.432 C 107.217 208.449,103.220 208.523,103.000 208.597 M147.800 209.003 C 144.579 210.145,144.800 208.008,144.800 238.009 L 144.800 264.729 145.988 265.729 C 148.881 268.163,155.500 268.141,158.100 265.688 L 159.200 264.650 159.200 252.947 C 159.200 241.251,159.201 241.244,160.137 240.155 C 161.411 238.674,162.127 239.079,162.971 241.762 C 163.408 243.154,164.095 244.341,164.787 244.900 C 165.519 245.492,166.201 246.723,166.781 248.495 C 167.390 250.359,168.000 251.430,168.759 251.970 C 169.529 252.519,170.049 253.447,170.506 255.092 C 170.973 256.770,171.554 257.794,172.561 258.710 C 173.447 259.516,174.129 260.619,174.407 261.694 C 174.649 262.632,174.937 263.707,175.045 264.082 C 176.002 267.387,187.483 268.954,190.276 266.161 L 191.200 265.236 191.200 238.051 C 191.200 223.099,191.088 210.574,190.952 210.218 C 190.461 208.940,188.587 208.400,184.639 208.400 C 177.713 208.400,178.001 207.692,177.996 224.719 C 177.990 242.258,177.845 243.190,175.840 238.589 C 175.215 237.152,174.375 235.748,173.975 235.468 C 173.575 235.188,172.853 233.902,172.370 232.612 C 171.887 231.321,170.913 229.686,170.205 228.978 C 169.444 228.218,168.732 226.955,168.464 225.890 C 168.215 224.899,167.378 223.332,166.606 222.407 C 165.833 221.482,164.919 219.756,164.574 218.571 C 164.156 217.132,163.586 216.160,162.857 215.641 C 162.142 215.131,161.523 214.094,161.061 212.627 C 160.226 209.977,159.280 208.984,157.277 208.653 C 154.680 208.224,149.452 208.417,147.800 209.003 M210.527 208.914 C 210.047 209.181,209.237 210.019,208.727 210.775 C 208.152 211.629,207.308 212.277,206.502 212.486 C 205.786 212.671,204.890 213.306,204.502 213.901 C 204.116 214.495,203.302 215.435,202.693 215.991 C 200.483 218.007,199.548 223.537,200.561 228.600 C 200.869 230.140,201.235 232.065,201.374 232.878 C 201.864 235.733,206.542 239.915,209.979 240.570 C 211.530 240.865,213.203 241.404,213.699 241.767 C 217.554 244.590,216.955 244.400,221.989 244.400 C 225.926 244.400,226.761 244.510,227.302 245.100 C 228.431 246.331,229.905 247.784,230.562 248.316 C 231.586 249.144,231.325 249.836,229.181 251.981 L 227.162 254.000 220.967 254.000 L 214.772 254.000 214.038 252.288 C 213.594 251.254,212.885 250.385,212.246 250.094 C 211.664 249.829,210.976 249.146,210.716 248.576 C 209.523 245.956,200.734 245.489,198.306 247.916 C 197.093 249.129,197.603 252.717,199.213 254.291 C 199.852 254.915,200.651 256.209,200.988 257.167 C 201.684 259.138,205.242 262.945,206.800 263.385 C 207.350 263.540,208.450 264.405,209.244 265.306 C 211.023 267.326,212.163 267.518,222.600 267.564 C 230.682 267.599,232.413 267.291,233.672 265.589 C 234.148 264.944,235.182 264.211,235.969 263.961 C 238.749 263.076,239.930 262.334,240.413 261.169 C 240.681 260.523,241.578 259.295,242.406 258.441 C 245.314 255.445,245.451 244.804,242.613 242.337 C 242.056 241.852,241.600 241.210,241.600 240.911 C 241.600 238.756,236.559 235.259,232.968 234.924 C 230.630 234.706,230.299 234.564,229.782 233.565 C 228.723 231.517,227.824 231.200,223.085 231.200 C 218.199 231.200,217.891 231.092,215.435 228.529 C 213.854 226.879,213.691 226.535,213.884 225.243 C 214.367 221.999,214.611 221.813,218.562 221.684 C 224.867 221.477,226.138 221.956,227.691 225.126 C 229.434 228.685,230.446 229.199,235.731 229.199 C 240.572 229.200,242.137 228.201,241.761 225.348 C 240.977 219.396,240.733 218.644,239.064 217.040 C 238.170 216.181,237.161 214.922,236.820 214.240 C 236.453 213.508,235.525 212.674,234.551 212.200 C 233.644 211.760,232.474 210.896,231.951 210.279 C 231.393 209.622,230.338 209.005,229.400 208.789 C 226.948 208.222,211.587 208.325,210.527 208.914 M252.526 208.803 C 251.098 209.378,250.800 210.507,250.800 215.345 C 250.800 221.621,250.774 221.600,258.635 221.600 C 262.129 221.600,264.760 221.781,265.381 222.064 L 266.400 222.528 266.400 243.802 C 266.400 263.563,266.450 265.121,267.101 265.710 C 269.964 268.301,278.309 268.074,279.541 265.371 C 279.868 264.653,280.000 258.341,280.000 243.436 L 280.000 222.510 282.267 222.055 C 283.513 221.805,286.438 221.596,288.767 221.591 C 295.996 221.576,297.200 220.608,297.200 214.807 C 297.200 210.680,296.572 209.619,293.646 208.806 C 291.844 208.306,253.767 208.303,252.526 208.803 M65.007 210.921 C 65.839 211.884,66.887 212.590,67.861 212.842 C 70.761 213.595,71.541 214.068,72.213 215.483 C 72.580 216.258,73.374 217.408,73.976 218.038 C 76.618 220.803,76.903 223.152,74.737 224.315 C 74.034 224.692,72.794 225.703,71.980 226.561 C 70.130 228.513,67.324 228.487,65.694 226.503 C 61.204 221.037,60.764 220.799,55.140 220.802 C 49.428 220.805,48.387 221.169,45.328 224.228 C 41.632 227.924,41.441 228.601,41.441 238.000 C 41.441 247.469,41.618 248.085,45.417 251.772 C 50.761 256.962,58.708 256.774,64.200 251.329 C 68.384 247.180,70.572 246.606,72.311 249.200 C 72.828 249.970,73.837 250.903,74.554 251.273 C 77.310 252.696,77.041 255.443,73.835 258.621 C 72.936 259.512,71.897 260.700,71.526 261.261 C 71.099 261.908,70.164 262.474,68.973 262.807 C 67.936 263.098,66.301 264.020,65.323 264.867 L 63.551 266.400 55.332 266.400 L 47.113 266.400 45.457 264.645 C 44.530 263.663,43.271 262.775,42.600 262.631 C 40.400 262.157,39.403 261.594,38.598 260.373 C 38.159 259.707,37.237 258.809,36.548 258.378 C 35.747 257.877,34.976 256.838,34.408 255.497 C 33.920 254.344,33.015 252.590,32.398 251.600 C 29.319 246.662,29.308 228.878,32.383 224.698 C 33.040 223.804,33.882 222.156,34.254 221.037 C 35.209 218.164,39.575 213.903,42.258 213.227 C 43.648 212.877,44.593 212.274,45.825 210.952 L 47.500 209.152 55.597 209.276 L 63.693 209.400 65.007 210.921 M121.797 210.975 C 123.011 212.279,123.957 212.878,125.354 213.230 C 130.521 214.531,136.428 223.755,137.247 231.800 C 138.017 239.377,137.200 248.340,135.480 251.171 C 135.022 251.925,134.079 253.725,133.386 255.171 C 132.603 256.805,131.726 258.013,131.071 258.363 C 130.491 258.673,129.608 259.524,129.108 260.255 C 128.196 261.590,127.223 262.152,125.000 262.631 C 124.325 262.776,123.066 263.667,122.123 264.667 L 120.446 266.444 111.863 266.322 L 103.280 266.200 101.628 264.872 C 100.720 264.141,99.127 263.263,98.088 262.921 C 96.916 262.535,95.550 261.636,94.486 260.549 C 93.543 259.587,92.614 258.800,92.420 258.800 C 92.227 258.800,91.468 257.874,90.734 256.742 C 90.000 255.610,89.094 254.214,88.720 253.639 C 83.741 245.989,84.481 226.825,89.999 220.540 C 90.659 219.788,91.200 218.980,91.200 218.745 C 91.200 218.019,96.456 213.272,97.558 213.004 C 98.131 212.864,99.303 212.190,100.162 211.507 C 102.749 209.446,103.867 209.237,112.372 209.218 L 120.144 209.200 121.797 210.975 M155.827 209.637 C 158.790 210.183,159.028 210.385,159.877 213.078 C 160.257 214.283,161.071 215.761,161.685 216.361 C 162.299 216.962,163.252 218.602,163.803 220.006 C 164.353 221.411,165.252 223.028,165.800 223.600 C 166.348 224.172,167.247 225.789,167.797 227.193 C 168.348 228.597,169.203 230.177,169.699 230.703 C 170.195 231.230,171.230 232.903,172.000 234.421 C 175.027 240.390,176.824 243.600,177.137 243.600 C 178.690 243.600,179.200 238.798,179.200 224.161 C 179.200 207.929,178.808 208.968,184.784 209.372 C 190.607 209.766,190.000 206.432,190.000 238.013 C 190.000 269.437,190.593 266.129,184.923 266.339 C 179.157 266.553,176.744 265.245,175.391 261.174 C 175.030 260.087,174.134 258.479,173.400 257.600 C 172.666 256.721,171.774 255.127,171.419 254.059 C 171.064 252.990,170.340 251.708,169.810 251.210 C 169.280 250.712,168.371 249.116,167.789 247.663 C 167.208 246.210,166.117 244.341,165.366 243.510 C 164.615 242.678,163.996 241.683,163.991 241.299 C 163.970 239.646,162.450 237.232,161.066 236.653 C 160.257 236.315,159.557 235.682,159.390 235.137 C 158.921 233.611,158.380 233.119,157.747 233.644 C 157.302 234.014,157.200 236.955,157.200 249.455 L 157.200 264.812 155.900 265.604 C 154.057 266.728,150.424 266.690,148.352 265.525 L 146.794 264.650 146.897 237.825 L 147.000 211.000 148.785 210.100 C 150.776 209.096,152.332 208.994,155.827 209.637 M228.262 209.796 C 229.366 210.124,230.613 210.780,231.034 211.254 C 231.455 211.728,232.583 212.466,233.539 212.894 C 234.626 213.380,235.527 214.143,235.939 214.927 C 236.303 215.617,237.195 216.748,237.923 217.440 C 239.406 218.851,240.387 221.801,240.395 224.871 C 240.408 230.077,231.508 229.765,228.833 224.466 C 227.115 221.061,227.135 221.070,220.666 220.877 C 214.130 220.683,214.045 220.722,212.768 224.494 L 212.059 226.590 213.529 228.532 C 215.762 231.479,217.101 232.000,222.448 232.000 L 226.927 232.000 228.564 233.780 C 229.895 235.229,230.535 235.606,232.000 235.805 C 232.990 235.940,234.216 236.135,234.724 236.239 C 236.127 236.525,239.038 239.420,241.304 242.784 L 243.336 245.800 243.323 249.418 C 243.309 253.419,242.907 254.643,240.126 259.171 C 238.696 261.498,238.342 261.811,236.393 262.474 C 235.000 262.947,233.687 263.781,232.675 264.834 L 231.110 266.463 221.574 266.331 L 212.037 266.200 210.519 264.744 C 209.683 263.943,208.370 262.971,207.600 262.584 C 206.036 261.797,202.000 257.877,202.000 257.145 C 202.000 256.886,201.258 255.063,200.352 253.096 L 198.704 249.518 199.544 248.678 C 200.251 247.971,200.992 247.811,204.213 247.670 L 208.042 247.503 210.816 250.451 C 212.341 252.073,213.945 253.805,214.380 254.300 C 216.198 256.368,227.414 255.485,229.934 253.075 C 233.028 250.118,232.982 249.058,229.619 245.850 L 227.259 243.600 222.919 243.600 C 218.411 243.600,217.356 243.281,216.085 241.532 C 215.802 241.142,214.812 240.628,213.885 240.390 C 208.437 238.990,208.139 238.844,205.604 236.340 C 199.053 229.870,200.208 216.262,207.566 213.214 C 208.199 212.952,209.275 212.042,209.958 211.192 C 211.404 209.393,211.491 209.377,220.427 209.270 C 224.602 209.220,226.824 209.369,228.262 209.796 M293.100 209.989 L 294.800 210.761 294.800 214.971 C 294.800 220.570,294.875 220.517,286.532 220.825 C 277.825 221.146,278.800 218.270,278.800 243.633 L 278.800 264.742 277.746 265.571 C 276.322 266.691,272.126 266.712,269.700 265.611 L 268.000 264.839 268.000 243.629 L 268.000 222.418 266.920 221.709 C 266.043 221.133,264.643 220.959,259.472 220.784 C 251.526 220.515,251.600 220.569,251.600 215.032 C 251.600 208.953,250.163 209.323,274.000 209.262 C 290.387 209.220,291.499 209.263,293.100 209.989 M105.000 221.182 C 104.560 221.364,103.640 222.118,102.956 222.857 C 102.272 223.596,101.222 224.535,100.623 224.943 C 100.024 225.352,99.214 226.435,98.822 227.349 C 98.430 228.263,97.837 229.237,97.505 229.513 C 95.645 231.056,95.353 243.189,97.117 245.574 C 97.622 246.256,98.383 247.627,98.809 248.621 C 99.315 249.801,100.028 250.666,100.865 251.114 C 101.569 251.491,102.702 252.388,103.381 253.106 C 105.316 255.152,114.321 256.089,117.290 254.553 C 119.843 253.233,124.697 248.840,125.305 247.300 C 126.450 244.396,127.388 235.749,126.808 233.444 C 125.067 226.529,123.576 224.446,118.262 221.501 C 116.891 220.741,106.658 220.495,105.000 221.182 M117.036 222.114 C 117.975 222.659,121.040 225.174,123.009 227.014 C 124.874 228.757,125.343 231.469,125.119 239.200 C 124.919 246.112,124.809 246.468,122.128 248.939 C 121.137 249.853,119.524 251.365,118.545 252.300 L 116.763 254.000 112.279 254.000 C 106.848 254.000,105.597 253.677,103.852 251.828 C 103.111 251.042,102.144 250.400,101.702 250.400 C 100.677 250.400,100.167 249.757,99.798 248.000 C 99.636 247.230,98.986 245.450,98.352 244.045 C 97.130 241.335,96.643 234.317,97.610 233.350 C 97.836 233.124,98.531 231.423,99.155 229.570 C 100.178 226.530,100.439 226.120,101.820 225.386 C 102.662 224.938,103.645 224.038,104.005 223.386 C 104.532 222.432,105.006 222.153,106.430 221.960 C 109.723 221.514,116.164 221.607,117.036 222.114 M324.827 228.533 C 323.670 231.384,323.707 245.113,324.880 247.700 L 325.559 249.200 359.280 249.194 C 379.826 249.190,393.234 249.040,393.600 248.809 C 394.590 248.183,394.485 228.314,393.486 227.314 C 392.813 226.642,390.815 226.593,359.237 226.488 L 325.703 226.375 324.827 228.533 " stroke="none" fill="#848484" fill-rule="evenodd"></path><path id="path2" d="M50.000 15.749 C 48.790 16.013,47.350 16.527,46.800 16.890 C 46.250 17.253,44.540 17.754,43.000 18.003 C 39.495 18.570,38.159 19.076,37.286 20.168 C 36.909 20.640,35.700 21.360,34.600 21.767 C 33.212 22.280,32.049 23.130,30.800 24.544 C 29.810 25.665,28.114 27.396,27.031 28.391 C 22.936 32.153,22.515 32.651,21.785 34.600 C 21.373 35.700,20.712 36.836,20.316 37.124 C 19.172 37.956,18.479 39.654,18.171 42.373 C 18.014 43.767,17.458 45.701,16.929 46.696 C 15.658 49.085,15.391 51.385,16.142 53.471 C 16.700 55.019,16.687 55.252,15.972 56.655 C 15.213 58.144,15.200 61.171,15.200 240.352 C 15.200 432.905,15.132 425.924,17.056 429.543 C 17.575 430.520,18.000 431.733,18.000 432.240 C 18.000 434.691,18.931 437.358,20.246 438.673 C 20.991 439.417,21.600 440.311,21.600 440.659 C 21.600 441.960,23.407 444.433,25.606 446.140 C 26.856 447.111,28.671 448.931,29.639 450.185 C 31.314 452.353,34.295 454.400,35.777 454.400 C 36.110 454.400,36.658 454.822,36.996 455.338 C 37.813 456.585,39.259 457.205,42.400 457.653 C 43.830 457.857,45.682 458.380,46.516 458.814 C 49.096 460.158,51.291 460.473,53.252 459.782 C 54.857 459.216,55.097 459.229,56.860 459.988 C 58.742 460.797,59.096 460.800,163.874 460.798 C 274.887 460.797,274.810 460.798,276.743 459.053 C 277.443 458.421,279.760 457.800,282.965 457.386 C 284.415 457.198,285.250 456.812,286.149 455.913 C 286.819 455.243,288.182 454.417,289.178 454.077 C 290.388 453.665,291.590 452.798,292.795 451.469 C 295.080 448.948,296.948 447.080,299.469 444.795 C 300.798 443.590,301.665 442.388,302.077 441.178 C 302.417 440.182,303.243 438.819,303.913 438.149 C 304.812 437.250,305.198 436.415,305.386 434.965 C 305.800 431.760,306.421 429.443,307.053 428.743 C 308.845 426.757,308.797 431.982,308.790 239.800 C 308.782 60.016,308.776 58.586,307.990 56.853 C 307.261 55.248,307.243 54.951,307.761 53.206 C 308.387 51.099,307.988 47.942,306.947 46.759 C 306.636 46.406,306.190 45.056,305.955 43.759 C 305.176 39.463,304.739 38.275,303.564 37.243 C 302.924 36.681,302.400 35.986,302.400 35.698 C 302.400 34.289,300.304 31.276,298.185 29.639 C 296.931 28.671,295.111 26.856,294.140 25.606 C 292.433 23.407,289.960 21.600,288.659 21.600 C 288.311 21.600,287.414 20.988,286.666 20.239 C 285.619 19.192,284.764 18.778,282.953 18.442 C 278.905 17.691,277.032 17.171,276.405 16.624 C 276.072 16.333,274.615 15.894,273.167 15.648 C 269.250 14.982,53.057 15.079,50.000 15.749 M272.100 17.419 C 280.103 18.759,283.365 19.606,285.000 20.768 C 285.880 21.394,287.305 22.201,288.167 22.561 C 290.535 23.550,300.451 33.639,301.568 36.195 C 302.047 37.292,302.779 38.552,303.195 38.995 C 304.786 40.689,306.483 50.246,305.837 53.873 C 305.606 55.169,305.726 55.969,306.369 57.424 L 307.200 59.302 307.188 238.551 C 307.180 351.908,307.033 418.866,306.788 420.700 C 305.920 427.188,305.598 429.149,304.875 432.326 C 304.458 434.155,303.732 436.135,303.260 436.726 C 302.789 437.317,301.893 438.883,301.269 440.207 C 300.492 441.855,299.466 443.180,298.018 444.407 C 295.838 446.253,294.952 447.151,292.200 450.298 C 291.222 451.417,289.667 452.571,288.200 453.266 C 286.880 453.891,285.317 454.789,284.726 455.260 C 283.418 456.304,278.855 457.383,271.400 458.411 C 265.989 459.157,262.327 459.183,162.841 459.191 L 59.882 459.200 57.576 458.359 C 55.630 457.650,54.969 457.581,53.335 457.920 C 50.315 458.545,40.600 456.703,39.001 455.201 C 38.555 454.782,37.292 454.047,36.195 453.568 C 33.639 452.451,23.550 442.535,22.561 440.167 C 22.201 439.305,21.394 437.880,20.768 437.000 C 19.606 435.365,18.759 432.103,17.419 424.100 C 16.599 419.201,16.459 60.057,17.277 58.126 C 17.539 57.507,17.771 55.020,17.792 52.600 C 17.838 47.409,19.179 40.883,20.587 39.000 C 21.081 38.340,21.974 36.765,22.572 35.499 C 23.312 33.932,24.372 32.592,25.892 31.299 C 27.120 30.255,28.592 28.875,29.163 28.234 C 29.733 27.592,30.894 26.291,31.743 25.342 C 32.594 24.391,34.298 23.139,35.543 22.551 C 36.784 21.965,38.340 21.081,39.000 20.587 C 40.183 19.703,44.377 18.610,51.000 17.462 C 56.105 16.576,266.822 16.536,272.100 17.419 M45.457 211.339 C 44.364 212.487,43.203 213.246,42.045 213.572 C 39.477 214.294,35.492 218.383,34.345 221.473 C 33.870 222.753,33.065 224.301,32.556 224.912 C 30.707 227.135,29.683 238.986,30.748 245.842 C 31.786 252.529,37.876 261.275,42.253 262.367 C 43.708 262.730,44.614 263.302,45.836 264.627 L 47.473 266.400 55.163 266.400 C 63.349 266.400,63.847 266.303,65.672 264.356 C 66.288 263.699,67.549 262.997,68.634 262.706 C 69.985 262.345,70.821 261.808,71.562 260.828 C 72.133 260.073,73.180 258.919,73.889 258.264 C 74.621 257.587,75.467 256.202,75.846 255.061 L 76.514 253.049 75.407 252.225 C 74.798 251.771,73.446 250.523,72.404 249.451 L 70.508 247.502 68.965 248.011 C 68.030 248.320,66.208 249.677,64.336 251.461 C 60.575 255.043,60.185 255.201,55.074 255.198 C 49.365 255.195,48.307 254.822,45.133 251.692 C 41.505 248.114,41.028 246.502,41.022 237.800 C 41.016 229.295,41.451 227.816,45.027 224.188 C 48.180 220.988,48.746 220.800,55.254 220.800 L 60.313 220.800 62.182 222.344 C 63.210 223.194,64.517 224.589,65.087 225.444 C 65.657 226.300,66.182 227.071,66.253 227.158 C 66.325 227.246,67.329 227.466,68.484 227.649 L 70.585 227.981 72.253 226.291 C 73.171 225.361,74.478 224.150,75.157 223.600 L 76.393 222.600 75.589 220.841 C 75.148 219.873,74.159 218.388,73.393 217.540 C 72.627 216.692,72.000 215.756,72.000 215.461 C 72.000 214.565,70.710 213.727,68.555 213.224 C 67.065 212.876,66.093 212.320,64.974 211.173 L 63.438 209.600 55.275 209.600 L 47.113 209.600 45.457 211.339 M102.200 210.352 C 101.320 210.756,100.266 211.462,99.859 211.921 C 99.451 212.379,98.592 212.870,97.949 213.011 C 96.757 213.273,91.200 218.315,91.200 219.134 C 91.200 219.375,90.659 220.188,89.999 220.940 C 84.722 226.950,84.227 247.673,89.209 254.000 C 89.642 254.550,90.345 255.630,90.771 256.400 C 91.931 258.496,96.379 262.256,98.317 262.778 C 99.223 263.022,100.467 263.641,101.082 264.154 C 103.632 266.282,104.228 266.400,112.444 266.400 L 120.127 266.400 121.764 264.627 C 122.986 263.302,123.892 262.730,125.347 262.367 C 129.451 261.343,135.622 252.788,136.782 246.515 C 137.380 243.277,137.286 231.512,136.638 228.600 C 135.324 222.696,129.413 214.658,125.593 213.583 C 124.395 213.246,123.250 212.501,122.143 211.339 L 120.487 209.600 112.143 209.609 C 104.907 209.616,103.588 209.715,102.200 210.352 M148.500 210.371 L 147.200 211.188 147.200 237.986 L 147.200 264.784 148.869 265.635 C 150.947 266.695,154.698 266.578,155.985 265.414 C 156.778 264.696,156.800 264.262,156.800 249.418 C 156.800 233.889,156.863 233.200,158.286 233.200 C 158.576 233.200,159.103 233.807,159.457 234.550 C 159.822 235.315,160.668 236.170,161.412 236.525 C 162.580 237.082,164.400 240.380,164.400 241.940 C 164.400 242.111,164.935 242.763,165.590 243.390 C 166.244 244.017,167.240 245.735,167.803 247.208 C 168.366 248.680,169.268 250.300,169.809 250.808 C 170.350 251.316,171.163 252.724,171.617 253.937 C 172.071 255.150,172.953 256.724,173.577 257.435 C 174.201 258.145,175.014 259.638,175.384 260.752 C 176.806 265.034,179.702 266.664,185.146 266.245 C 190.543 265.831,190.000 269.014,190.000 237.787 C 190.000 206.501,190.642 209.865,184.632 209.666 C 178.774 209.473,179.278 207.959,179.126 226.202 C 179.008 240.478,178.952 241.479,178.214 242.700 C 177.139 244.477,177.012 244.405,175.362 241.100 C 174.566 239.505,173.586 237.840,173.186 237.400 C 172.786 236.960,172.081 235.589,171.621 234.354 C 171.160 233.119,170.408 231.769,169.949 231.354 C 169.002 230.498,167.842 228.336,167.447 226.690 C 167.300 226.079,166.580 224.909,165.847 224.090 C 165.114 223.270,164.196 221.630,163.807 220.446 C 163.418 219.261,162.521 217.641,161.814 216.846 C 161.106 216.050,160.184 214.430,159.765 213.244 C 158.734 210.330,157.902 209.863,153.442 209.692 C 150.314 209.573,149.617 209.668,148.500 210.371 M211.400 209.980 C 210.960 210.161,210.191 210.868,209.690 211.552 C 209.190 212.235,208.071 213.156,207.204 213.598 C 206.336 214.041,205.411 214.805,205.148 215.298 C 204.884 215.790,204.186 216.676,203.595 217.266 C 201.528 219.333,200.962 227.357,202.563 231.894 C 203.786 235.361,208.010 238.814,212.223 239.791 C 214.130 240.233,215.373 240.789,216.199 241.569 C 218.117 243.381,218.894 243.600,223.406 243.600 L 227.664 243.600 230.032 245.968 C 233.045 248.981,233.067 250.501,230.136 253.275 C 228.361 254.953,227.166 255.200,220.804 255.200 L 214.861 255.200 213.930 253.981 C 213.419 253.311,211.856 251.601,210.458 250.181 L 207.917 247.600 205.258 247.631 C 199.193 247.701,198.490 248.527,200.573 253.140 C 201.358 254.878,202.000 256.511,202.000 256.768 C 202.000 257.617,206.167 261.648,208.038 262.607 C 209.048 263.126,210.160 263.984,210.507 264.514 C 211.444 265.944,214.544 266.400,223.319 266.400 L 230.906 266.400 232.303 264.900 C 233.109 264.035,234.724 262.976,236.115 262.400 C 241.555 260.147,245.371 248.570,242.031 244.452 C 241.562 243.873,240.926 242.860,240.617 242.200 C 239.166 239.094,234.956 236.000,232.183 236.000 C 230.486 236.000,230.160 235.836,228.657 234.224 L 227.000 232.448 222.400 232.322 C 216.899 232.171,215.627 231.669,213.423 228.779 L 211.897 226.778 212.565 224.654 C 213.803 220.719,213.658 220.794,219.923 220.840 C 227.105 220.892,227.107 220.893,228.800 224.017 C 231.480 228.961,240.422 230.264,240.393 225.706 C 240.374 222.599,239.224 219.115,237.658 217.416 C 236.796 216.481,235.974 215.347,235.830 214.895 C 235.685 214.437,234.735 213.686,233.685 213.199 C 232.648 212.717,231.350 211.915,230.800 211.416 C 228.946 209.734,214.581 208.670,211.400 209.980 M253.200 210.117 C 252.241 210.601,252.195 210.794,252.087 214.837 C 251.934 220.568,251.713 220.399,259.761 220.693 C 264.817 220.877,266.212 221.058,267.193 221.654 L 268.400 222.388 268.400 243.615 L 268.400 264.841 269.900 265.489 C 272.430 266.583,275.993 266.641,277.300 265.610 L 278.400 264.742 278.400 243.633 C 278.400 218.217,277.418 221.087,286.213 220.800 C 294.436 220.532,294.554 220.452,294.714 215.061 L 294.829 211.206 293.514 210.404 C 291.874 209.404,255.130 209.142,253.200 210.117 M64.053 211.700 C 65.341 213.544,65.505 213.627,69.643 214.553 C 70.424 214.728,70.859 215.239,71.372 216.582 C 71.749 217.569,72.593 218.951,73.249 219.652 C 75.613 222.183,75.631 222.842,73.364 223.789 C 72.604 224.107,71.671 224.913,71.291 225.581 C 70.911 226.249,70.312 226.796,69.960 226.797 C 68.554 226.803,66.746 225.855,66.219 224.837 C 64.012 220.569,60.865 219.352,52.981 219.719 C 47.529 219.973,46.563 220.284,45.318 222.186 C 44.833 222.927,43.904 223.848,43.252 224.233 C 40.719 225.729,37.947 239.311,39.559 242.324 C 39.786 242.747,40.261 244.512,40.615 246.247 C 41.340 249.797,42.003 251.069,43.406 251.602 C 43.936 251.804,44.823 252.686,45.377 253.563 C 46.692 255.647,48.014 255.996,54.600 255.996 C 61.456 255.996,62.025 255.805,65.403 252.378 C 67.818 249.929,69.806 248.400,70.577 248.400 C 70.696 248.400,71.111 249.074,71.499 249.898 C 71.965 250.887,72.713 251.635,73.702 252.101 C 74.526 252.489,75.200 253.048,75.200 253.343 C 75.200 254.659,74.231 256.434,73.002 257.372 C 72.266 257.932,71.465 258.996,71.222 259.734 C 70.822 260.946,70.557 261.127,68.508 261.586 C 66.693 261.992,65.896 262.445,64.534 263.847 L 62.830 265.600 55.234 265.600 L 47.637 265.600 46.919 264.562 C 45.542 262.574,44.866 262.076,42.680 261.440 C 40.922 260.930,40.316 260.524,39.668 259.425 C 39.221 258.669,38.304 257.764,37.630 257.415 C 36.382 256.770,35.616 255.408,34.567 251.966 C 34.260 250.957,33.653 249.810,33.219 249.417 C 30.575 247.024,30.562 229.099,33.203 226.397 C 33.900 225.684,34.622 224.261,35.036 222.786 C 35.937 219.576,39.911 215.309,42.967 214.271 C 45.030 213.570,46.400 212.591,46.400 211.818 C 46.400 210.559,47.395 210.400,55.253 210.400 L 63.146 210.400 64.053 211.700 M121.004 211.457 C 121.787 213.029,122.446 213.551,124.512 214.237 C 127.572 215.254,131.307 219.126,132.638 222.662 C 133.192 224.134,134.078 225.852,134.607 226.481 C 136.467 228.691,137.056 244.595,135.392 247.656 C 133.874 250.448,132.848 252.613,132.126 254.546 C 131.607 255.938,130.976 256.763,129.911 257.444 C 129.093 257.967,128.145 258.932,127.806 259.588 C 127.325 260.519,126.699 260.923,124.955 261.430 C 122.735 262.076,122.060 262.570,120.681 264.562 L 119.963 265.600 112.481 265.586 C 104.501 265.571,103.938 265.455,102.418 263.517 C 101.779 262.702,100.970 262.316,99.149 261.958 C 97.106 261.556,96.596 261.278,95.870 260.170 C 95.397 259.448,94.431 258.582,93.724 258.245 C 92.773 257.791,92.331 257.228,92.021 256.079 C 91.791 255.226,91.224 254.184,90.761 253.764 C 86.567 249.969,86.327 226.940,90.436 222.592 C 91.064 221.928,91.824 220.668,92.124 219.792 C 92.475 218.769,93.064 218.007,93.772 217.661 C 94.378 217.364,95.230 216.517,95.666 215.778 C 96.463 214.428,96.725 214.276,99.089 213.800 C 99.798 213.658,100.947 213.010,101.642 212.361 C 103.711 210.428,103.810 210.411,112.389 210.508 C 120.315 210.597,120.591 210.627,121.004 211.457 M156.099 210.821 C 157.709 211.268,158.332 212.127,159.230 215.136 C 159.564 216.256,160.219 217.232,161.074 217.884 C 161.803 218.440,162.400 219.111,162.400 219.375 C 162.400 221.135,163.747 224.121,164.817 224.733 C 166.063 225.446,166.582 226.454,167.004 228.985 C 167.179 230.036,167.709 230.985,168.577 231.804 C 170.137 233.275,170.607 234.116,170.957 236.054 C 171.109 236.896,171.790 238.113,172.575 238.945 C 173.320 239.736,174.222 241.261,174.578 242.334 C 174.934 243.407,175.670 244.702,176.213 245.212 L 177.200 246.139 178.161 245.237 C 179.817 243.681,180.000 241.777,180.000 226.103 C 180.000 215.170,180.124 211.236,180.480 210.880 C 180.992 210.368,184.799 210.243,187.303 210.657 L 188.806 210.906 188.703 237.953 L 188.600 265.000 185.124 265.358 C 181.358 265.747,179.421 265.326,179.009 264.029 C 178.890 263.653,178.262 262.953,177.614 262.474 C 176.828 261.892,176.347 261.105,176.165 260.102 C 175.813 258.159,175.125 256.832,173.849 255.641 C 173.284 255.113,172.554 253.758,172.226 252.630 C 171.875 251.423,171.129 250.098,170.415 249.414 C 169.747 248.774,169.200 248.111,169.200 247.940 C 169.200 246.595,167.393 243.113,166.439 242.620 C 165.560 242.166,165.235 241.589,164.824 239.749 C 164.455 238.103,163.967 237.139,163.112 236.366 C 162.454 235.771,161.645 235.015,161.315 234.685 C 160.985 234.355,160.208 233.526,159.588 232.842 C 158.229 231.343,157.853 231.311,156.582 232.582 L 155.600 233.564 155.600 249.168 C 155.600 264.186,155.571 264.787,154.826 265.186 C 153.793 265.739,151.083 265.712,149.819 265.136 L 148.800 264.672 148.800 237.956 C 148.800 207.606,148.431 210.432,152.400 210.414 C 153.610 210.409,155.275 210.592,156.099 210.821 M229.537 212.094 C 230.619 213.073,231.742 213.677,232.787 213.844 C 234.567 214.129,234.966 214.484,235.359 216.128 C 235.508 216.748,236.223 217.849,236.948 218.574 C 238.472 220.099,239.310 222.649,239.127 225.212 L 239.000 227.000 236.133 227.117 C 232.754 227.255,231.124 226.201,229.375 222.750 C 228.062 220.160,227.608 219.990,221.284 219.725 C 214.300 219.432,213.199 219.791,212.242 222.675 C 211.885 223.749,211.234 224.935,210.796 225.310 C 209.804 226.160,209.781 226.998,210.732 227.677 C 211.135 227.965,212.047 229.010,212.759 230.000 C 214.692 232.687,215.440 232.958,221.400 233.127 C 226.670 233.277,228.000 233.663,228.000 235.039 C 228.000 235.876,229.671 236.800,231.189 236.802 C 233.449 236.806,235.526 237.537,235.809 238.427 C 235.949 238.869,236.753 239.665,237.596 240.198 C 238.599 240.831,239.217 241.568,239.385 242.333 C 239.526 242.976,240.086 244.104,240.630 244.840 C 242.517 247.399,242.709 250.837,241.101 253.308 C 240.782 253.799,240.302 254.870,240.033 255.689 C 238.820 259.392,237.893 260.525,235.254 261.533 C 233.633 262.152,232.535 262.853,232.110 263.542 C 230.860 265.564,230.701 265.600,222.987 265.600 C 214.918 265.600,212.514 265.162,211.163 263.444 C 210.720 262.880,209.627 262.201,208.735 261.933 C 207.565 261.583,206.846 261.024,206.152 259.924 C 205.623 259.086,204.950 258.400,204.657 258.400 C 203.706 258.400,202.959 257.054,202.438 254.400 C 202.157 252.971,201.685 251.220,201.388 250.509 L 200.848 249.218 202.442 248.789 C 205.016 248.096,208.096 248.430,208.606 249.457 C 209.274 250.803,210.090 251.654,211.072 252.027 C 211.570 252.217,212.237 252.994,212.555 253.754 C 213.421 255.826,214.083 256.000,221.074 255.998 C 229.916 255.995,231.757 255.244,232.962 251.154 C 234.430 246.175,229.898 242.407,222.439 242.402 L 218.677 242.400 217.238 240.841 C 215.977 239.475,215.503 239.246,213.399 238.991 C 210.214 238.604,209.902 238.419,206.324 234.785 C 202.705 231.109,202.608 230.801,202.890 223.946 L 203.086 219.182 204.743 217.652 C 205.654 216.811,206.400 215.855,206.400 215.528 C 206.400 215.200,207.252 214.497,208.292 213.966 C 209.333 213.435,210.406 212.550,210.677 212.000 C 211.360 210.612,212.381 210.462,220.642 210.535 L 227.884 210.600 229.537 212.094 M292.426 210.814 C 293.107 211.179,293.200 211.680,293.200 215.000 C 293.200 219.618,293.236 219.589,287.526 219.629 C 281.360 219.673,279.250 220.061,278.134 221.359 L 277.200 222.445 277.200 243.542 C 277.200 259.418,277.081 264.759,276.720 265.120 C 276.120 265.720,273.329 265.743,271.660 265.161 L 270.400 264.722 270.400 243.581 L 270.400 222.441 269.100 221.460 C 267.176 220.007,265.143 219.605,259.726 219.602 C 252.620 219.599,252.745 219.685,252.885 214.907 L 253.000 211.006 254.200 210.750 C 256.307 210.301,291.578 210.360,292.426 210.814 M105.600 219.964 C 103.384 220.280,102.956 220.539,102.188 222.024 C 101.854 222.669,100.958 223.458,100.196 223.776 C 99.184 224.199,98.636 224.793,98.159 225.985 C 97.801 226.881,97.107 227.930,96.617 228.315 C 93.735 230.583,93.385 244.283,96.141 246.972 C 96.833 247.647,97.760 248.920,98.200 249.800 C 98.692 250.785,99.505 251.637,100.314 252.016 C 101.036 252.356,101.981 253.215,102.414 253.926 C 103.534 255.769,104.518 256.000,111.239 256.000 C 118.032 256.000,119.116 255.717,121.803 253.240 C 122.728 252.387,123.870 251.484,124.341 251.232 C 125.431 250.648,126.576 248.390,127.147 245.700 C 127.391 244.545,127.954 242.525,128.396 241.212 C 129.552 237.780,129.487 234.027,128.237 232.091 C 127.707 231.271,127.145 229.970,126.988 229.200 C 126.454 226.581,125.586 224.964,124.307 224.209 C 123.609 223.796,122.399 222.786,121.619 221.964 C 119.541 219.775,112.811 218.935,105.600 219.964 M118.274 221.224 C 118.893 221.457,120.030 222.233,120.800 222.948 C 121.570 223.663,122.851 224.723,123.646 225.303 C 127.281 227.956,128.300 241.968,125.283 247.821 C 124.502 249.335,119.826 253.511,117.626 254.659 C 115.000 256.030,104.740 255.155,103.501 253.454 C 103.105 252.910,101.989 252.001,101.022 251.434 C 99.770 250.700,99.129 249.996,98.797 248.991 C 98.541 248.215,97.917 247.088,97.411 246.486 C 94.951 243.562,94.851 232.696,97.256 229.637 C 97.678 229.101,98.368 227.883,98.789 226.931 C 99.253 225.883,100.077 224.889,100.878 224.412 C 101.605 223.980,102.703 222.990,103.317 222.213 L 104.434 220.800 110.791 220.800 C 114.292 220.800,117.654 220.990,118.274 221.224 M323.936 227.209 C 320.900 228.812,320.800 229.153,320.800 237.868 C 320.800 246.593,320.918 247.032,323.645 248.423 C 325.685 249.464,325.697 249.452,324.582 247.500 C 323.063 244.845,323.081 231.398,324.607 228.387 C 325.160 227.294,325.565 226.408,325.507 226.418 C 325.448 226.427,324.741 226.783,323.936 227.209 " stroke="none" fill="#6c6c6c" fill-rule="evenodd"></path><path id="path3" d="M107.932 17.100 C 137.705 17.157,186.305 17.157,215.932 17.100 C 245.560 17.043,221.200 16.997,161.800 16.997 C 102.400 16.997,78.160 17.043,107.932 17.100 M31.781 25.300 L 30.200 27.000 31.900 25.419 C 33.481 23.948,33.784 23.600,33.481 23.600 C 33.416 23.600,32.651 24.365,31.781 25.300 M24.981 32.100 L 23.400 33.800 25.100 32.219 C 26.035 31.349,26.800 30.584,26.800 30.519 C 26.800 30.216,26.452 30.519,24.981 32.100 M300.255 34.200 C 301.180 35.779,301.200 35.803,301.200 35.311 C 301.200 35.079,300.829 34.464,300.376 33.944 L 299.553 33.000 300.255 34.200 M17.714 51.000 C 17.717 52.100,17.795 52.503,17.887 51.895 C 17.979 51.286,17.977 50.386,17.882 49.895 C 17.787 49.403,17.711 49.900,17.714 51.000 M18.093 54.800 C 18.093 55.570,18.175 55.885,18.276 55.500 C 18.376 55.115,18.376 54.485,18.276 54.100 C 18.175 53.715,18.093 54.030,18.093 54.800 M306.272 57.800 C 306.453 58.240,306.690 139.690,306.801 238.800 L 307.002 419.000 307.087 239.000 C 307.163 77.849,307.107 58.895,306.558 58.000 C 306.221 57.450,306.092 57.360,306.272 57.800 M16.998 240.200 C 16.998 340.080,17.044 380.880,17.100 330.867 C 17.156 280.854,17.156 199.134,17.100 149.267 C 17.044 99.400,16.998 140.320,16.998 240.200 M51.300 209.498 C 53.445 209.570,56.955 209.570,59.100 209.498 C 61.245 209.426,59.490 209.367,55.200 209.367 C 50.910 209.367,49.155 209.426,51.300 209.498 M108.321 209.499 C 110.588 209.570,114.188 209.570,116.321 209.498 C 118.455 209.426,116.600 209.368,112.200 209.368 C 107.800 209.368,106.055 209.427,108.321 209.499 M151.300 209.487 C 151.905 209.578,152.895 209.578,153.500 209.487 C 154.105 209.395,153.610 209.320,152.400 209.320 C 151.190 209.320,150.695 209.395,151.300 209.487 M181.900 209.489 C 182.615 209.578,183.785 209.578,184.500 209.489 C 185.215 209.401,184.630 209.328,183.200 209.328 C 181.770 209.328,181.185 209.401,181.900 209.489 M217.519 209.498 C 219.344 209.572,222.224 209.572,223.919 209.497 C 225.614 209.422,224.120 209.361,220.600 209.362 C 217.080 209.362,215.694 209.424,217.519 209.498 M265.100 209.500 C 269.995 209.563,278.005 209.563,282.900 209.500 C 287.795 209.436,283.790 209.384,274.000 209.384 C 264.210 209.384,260.205 209.436,265.100 209.500 M147.246 210.944 C 146.918 211.340,146.823 218.809,146.900 238.244 L 147.006 265.000 147.103 238.180 C 147.176 217.964,147.318 211.242,147.680 210.880 C 147.944 210.616,148.056 210.400,147.929 210.400 C 147.802 210.400,147.495 210.645,147.246 210.944 M251.746 215.000 C 251.747 217.200,251.814 218.049,251.895 216.887 C 251.976 215.724,251.976 213.924,251.893 212.887 C 251.811 211.849,251.745 212.800,251.746 215.000 M103.570 221.900 L 102.600 223.000 103.600 222.151 C 104.150 221.684,104.870 221.203,105.200 221.082 C 105.714 220.895,105.709 220.859,105.170 220.832 C 104.823 220.814,104.103 221.295,103.570 221.900 M279.062 221.931 C 278.464 222.593,278.400 224.679,278.400 243.600 C 278.400 262.957,278.347 264.600,277.700 265.369 C 277.001 266.199,277.001 266.199,277.900 265.438 L 278.800 264.676 278.800 243.670 C 278.800 224.684,278.864 222.593,279.462 221.931 C 279.826 221.529,280.034 221.200,279.924 221.200 C 279.814 221.200,279.426 221.529,279.062 221.931 M119.200 221.725 C 119.200 221.794,119.785 222.379,120.500 223.025 L 121.800 224.200 120.625 222.900 C 119.530 221.688,119.200 221.416,119.200 221.725 M267.500 221.999 C 267.887 222.433,268.000 227.345,268.000 243.656 C 268.000 255.259,268.135 264.836,268.300 264.938 C 269.030 265.390,268.425 222.516,267.693 221.963 C 267.104 221.518,267.075 221.523,267.500 221.999 M164.400 222.258 C 164.400 222.474,164.985 223.179,165.700 223.825 L 167.000 225.000 165.800 223.602 C 165.140 222.833,164.555 222.128,164.500 222.035 C 164.445 221.943,164.400 222.043,164.400 222.258 M201.324 224.600 C 201.326 225.920,201.401 226.412,201.490 225.693 C 201.579 224.974,201.577 223.894,201.486 223.293 C 201.395 222.692,201.322 223.280,201.324 224.600 M324.065 229.417 C 323.314 231.066,323.461 245.527,324.242 246.800 C 324.587 247.362,324.715 247.450,324.535 247.000 C 323.999 245.659,323.889 230.554,324.409 229.583 C 324.660 229.115,324.789 228.656,324.697 228.564 C 324.605 228.472,324.321 228.856,324.065 229.417 M220.515 232.296 C 221.788 232.376,223.768 232.375,224.915 232.294 C 226.062 232.214,225.020 232.149,222.600 232.150 C 220.180 232.151,219.242 232.216,220.515 232.296 M85.357 238.000 C 85.357 240.970,85.420 242.185,85.497 240.700 C 85.574 239.215,85.574 236.785,85.497 235.300 C 85.420 233.815,85.357 235.030,85.357 238.000 M95.754 238.000 C 95.754 240.750,95.818 241.875,95.896 240.500 C 95.974 239.125,95.974 236.875,95.896 235.500 C 95.818 234.125,95.754 235.250,95.754 238.000 M157.280 233.680 C 156.923 234.037,156.800 238.080,156.800 249.400 C 156.800 261.026,156.681 264.773,156.300 265.201 C 155.875 265.678,155.904 265.682,156.500 265.232 C 157.145 264.744,157.200 263.506,157.200 249.431 C 157.200 238.087,157.323 234.037,157.680 233.680 C 157.944 233.416,158.070 233.200,157.960 233.200 C 157.850 233.200,157.544 233.416,157.280 233.680 M40.950 237.800 C 40.951 240.220,41.016 241.158,41.096 239.885 C 41.176 238.612,41.175 236.632,41.094 235.485 C 41.014 234.338,40.949 235.380,40.950 237.800 M137.350 237.800 C 137.351 240.220,137.416 241.158,137.496 239.885 C 137.576 238.612,137.575 236.632,137.494 235.485 C 137.414 234.338,137.349 235.380,137.350 237.800 M30.148 238.000 C 30.148 240.310,30.214 241.255,30.295 240.100 C 30.376 238.945,30.376 237.055,30.295 235.900 C 30.214 234.745,30.148 235.690,30.148 238.000 M159.227 234.700 C 159.212 234.975,159.560 235.560,160.000 236.000 C 160.440 236.440,161.025 236.788,161.300 236.773 C 161.575 236.758,161.414 236.559,160.942 236.331 C 160.471 236.102,159.898 235.529,159.669 235.058 C 159.441 234.586,159.242 234.425,159.227 234.700 M204.400 234.925 C 204.400 234.994,204.985 235.579,205.700 236.225 L 207.000 237.400 205.825 236.100 C 204.730 234.888,204.400 234.616,204.400 234.925 M172.012 235.478 C 172.005 235.740,172.405 236.379,172.900 236.897 C 173.395 237.415,173.600 237.560,173.356 237.220 C 173.112 236.879,172.712 236.240,172.468 235.800 C 172.224 235.360,172.019 235.215,172.012 235.478 M237.800 238.800 C 238.883 239.900,239.860 240.800,239.970 240.800 C 240.080 240.800,239.283 239.900,238.200 238.800 C 237.117 237.700,236.140 236.800,236.030 236.800 C 235.920 236.800,236.717 237.700,237.800 238.800 M240.412 241.878 C 240.405 242.140,240.805 242.779,241.300 243.297 C 241.795 243.815,242.000 243.960,241.756 243.620 C 241.512 243.279,241.112 242.640,240.868 242.200 C 240.624 241.760,240.419 241.615,240.412 241.878 M164.400 242.525 C 164.400 242.594,164.985 243.179,165.700 243.825 L 167.000 245.000 165.825 243.700 C 164.730 242.488,164.400 242.216,164.400 242.525 M243.293 249.200 C 243.293 249.970,243.375 250.285,243.476 249.900 C 243.576 249.515,243.576 248.885,243.476 248.500 C 243.375 248.115,243.293 248.430,243.293 249.200 M65.970 249.500 L 65.000 250.600 66.200 249.600 C 66.860 249.050,67.475 248.555,67.567 248.500 C 67.658 248.445,67.555 248.400,67.336 248.400 C 67.118 248.400,66.503 248.895,65.970 249.500 M62.575 252.900 L 61.400 254.200 62.700 253.025 C 63.912 251.930,64.184 251.600,63.875 251.600 C 63.806 251.600,63.221 252.185,62.575 252.900 M229.978 253.100 L 228.600 254.600 230.100 253.222 C 231.496 251.938,231.784 251.600,231.478 251.600 C 231.412 251.600,230.737 252.275,229.978 253.100 M133.665 253.817 C 132.995 255.288,133.123 255.602,133.847 254.265 C 134.186 253.640,134.388 253.054,134.296 252.963 C 134.205 252.871,133.921 253.256,133.665 253.817 M305.693 427.200 C 305.693 427.970,305.775 428.285,305.876 427.900 C 305.976 427.515,305.976 426.885,305.876 426.500 C 305.775 426.115,305.693 426.430,305.693 427.200 M298.400 443.800 C 297.428 444.790,296.723 445.600,296.833 445.600 C 296.943 445.600,297.828 444.790,298.800 443.800 C 299.772 442.810,300.477 442.000,300.367 442.000 C 300.257 442.000,299.372 442.810,298.400 443.800 M291.600 450.600 C 290.628 451.590,289.923 452.400,290.033 452.400 C 290.143 452.400,291.028 451.590,292.000 450.600 C 292.972 449.610,293.677 448.800,293.567 448.800 C 293.457 448.800,292.572 449.610,291.600 450.600 M274.500 457.876 C 274.885 457.976,275.515 457.976,275.900 457.876 C 276.285 457.775,275.970 457.693,275.200 457.693 C 274.430 457.693,274.115 457.775,274.500 457.876 M111.132 459.100 C 139.805 459.157,186.605 459.157,215.132 459.100 C 243.659 459.043,220.200 458.997,163.000 458.997 C 105.800 458.997,82.459 459.043,111.132 459.100 " stroke="none" fill="#7c7c7c" fill-rule="evenodd"></path><path id="path4" d="M47.809 19.649 C 43.487 20.069,41.732 20.587,40.385 21.842 C 39.826 22.362,38.501 23.049,37.439 23.368 C 35.933 23.822,34.945 24.547,32.938 26.675 C 29.795 30.006,30.001 29.800,26.703 32.910 C 24.603 34.890,23.877 35.880,23.426 37.381 C 23.107 38.441,22.410 39.779,21.877 40.354 C 19.097 43.356,19.158 38.515,19.319 245.800 C 19.473 443.378,19.323 431.774,21.762 435.326 C 22.545 436.467,23.302 437.984,23.443 438.698 C 23.615 439.572,24.533 440.814,26.249 442.498 C 29.838 446.020,30.693 446.877,33.320 449.587 C 35.003 451.323,36.101 452.101,37.320 452.421 C 38.244 452.663,39.685 453.404,40.522 454.067 C 42.442 455.589,46.601 456.376,53.153 456.460 C 55.709 456.493,106.490 456.538,166.000 456.560 C 281.863 456.603,279.417 456.643,282.414 454.666 C 283.135 454.190,284.193 453.486,284.763 453.102 C 285.333 452.718,286.236 452.403,286.769 452.402 C 287.455 452.401,288.603 451.494,290.699 449.300 C 294.271 445.561,293.561 446.271,297.300 442.699 C 299.566 440.535,300.400 439.466,300.400 438.728 C 300.400 438.173,300.842 437.107,301.383 436.359 C 303.206 433.839,303.551 432.942,304.076 429.366 C 304.512 426.401,304.859 85.114,304.459 53.153 C 304.377 46.604,303.589 42.443,302.067 40.522 C 301.404 39.685,300.663 38.244,300.421 37.320 C 300.101 36.101,299.323 35.003,297.587 33.320 C 293.905 29.751,293.343 29.184,290.796 26.484 C 289.055 24.639,287.950 23.826,286.646 23.434 C 285.668 23.140,284.078 22.331,283.112 21.638 C 282.135 20.936,280.390 20.173,279.178 19.918 C 276.516 19.357,53.475 19.098,47.809 19.649 M64.574 208.963 C 65.316 209.273,66.041 209.899,66.185 210.354 C 66.378 210.960,67.198 211.404,69.258 212.017 C 71.601 212.715,72.179 213.063,72.734 214.110 C 73.100 214.801,74.065 216.046,74.877 216.876 C 78.075 220.145,78.205 224.212,75.145 225.279 C 74.466 225.516,73.529 226.363,72.975 227.240 C 71.424 229.697,66.691 230.036,65.019 227.811 C 64.569 227.212,63.089 225.569,61.731 224.160 L 59.261 221.600 55.490 221.600 C 50.496 221.600,49.525 221.997,46.124 225.431 C 42.619 228.971,42.596 229.057,42.613 238.600 C 42.628 247.024,42.569 246.847,46.780 251.000 L 49.619 253.800 54.591 253.932 L 59.563 254.064 62.927 250.640 C 67.712 245.768,71.372 245.017,73.062 248.561 C 73.541 249.565,74.189 250.116,75.463 250.603 C 77.916 251.539,78.258 252.368,77.384 255.254 C 76.995 256.539,76.389 257.847,76.038 258.161 C 74.434 259.594,72.943 261.173,72.313 262.102 C 71.935 262.660,70.847 263.381,69.895 263.706 C 68.943 264.030,67.543 264.863,66.784 265.556 C 64.809 267.359,63.481 267.595,55.287 267.598 C 47.143 267.600,45.677 267.282,44.647 265.290 C 44.139 264.309,43.644 264.034,41.608 263.602 C 39.328 263.118,37.200 261.576,37.200 260.409 C 37.200 260.227,36.579 259.712,35.819 259.264 C 34.943 258.747,34.047 257.674,33.366 256.325 C 32.776 255.156,31.880 253.707,31.376 253.104 C 29.787 251.206,29.413 248.236,29.424 237.600 C 29.434 227.048,29.692 225.204,31.382 223.617 C 31.927 223.105,32.756 221.533,33.225 220.123 C 33.932 218.001,34.345 217.392,35.628 216.582 C 36.480 216.045,37.439 215.098,37.759 214.480 C 38.415 213.210,39.675 212.525,42.054 212.145 C 43.292 211.947,43.859 211.593,44.423 210.666 C 45.710 208.551,46.284 208.430,55.113 208.414 C 61.212 208.404,63.560 208.540,64.574 208.963 M121.379 208.863 C 121.938 209.118,122.725 209.886,123.129 210.569 C 123.747 211.617,124.249 211.891,126.336 212.323 C 128.553 212.780,128.915 212.997,129.803 214.405 C 130.349 215.270,131.342 216.260,132.010 216.605 C 132.832 217.030,133.530 217.923,134.168 219.365 C 134.686 220.538,135.313 221.623,135.561 221.776 C 139.065 223.941,139.503 249.600,136.099 253.316 C 135.654 253.802,134.896 254.985,134.414 255.945 C 132.763 259.233,128.413 263.144,125.830 263.663 C 124.037 264.023,123.491 264.321,123.094 265.156 C 121.402 268.723,100.848 268.629,99.474 265.047 C 99.350 264.725,98.140 264.056,96.785 263.562 C 95.101 262.948,94.184 262.364,93.889 261.717 C 93.652 261.196,92.897 260.504,92.211 260.179 C 91.526 259.853,90.627 259.005,90.213 258.294 C 89.800 257.582,89.068 256.627,88.586 256.171 C 88.105 255.714,87.397 254.364,87.014 253.171 C 86.630 251.977,85.750 249.830,85.058 248.400 L 83.800 245.800 83.800 237.800 C 83.800 229.901,83.813 229.777,84.845 228.000 C 85.420 227.010,86.292 224.978,86.783 223.484 C 87.381 221.664,88.002 220.555,88.666 220.120 C 89.211 219.763,90.020 218.698,90.464 217.753 C 90.969 216.679,91.708 215.842,92.436 215.520 C 93.076 215.237,93.600 214.792,93.600 214.531 C 93.600 213.853,95.567 212.400,96.485 212.400 C 96.913 212.400,97.973 211.682,98.842 210.805 C 99.710 209.928,100.911 209.102,101.511 208.970 C 102.110 208.838,102.780 208.670,103.000 208.597 C 104.162 208.209,120.462 208.445,121.379 208.863 M157.277 208.653 C 159.280 208.984,160.226 209.977,161.061 212.627 C 161.523 214.094,162.142 215.131,162.857 215.641 C 163.586 216.160,164.156 217.132,164.574 218.571 C 164.919 219.756,165.833 221.482,166.606 222.407 C 167.378 223.332,168.215 224.899,168.464 225.890 C 168.732 226.955,169.444 228.218,170.205 228.978 C 170.913 229.686,171.887 231.321,172.370 232.612 C 172.853 233.902,173.575 235.188,173.975 235.468 C 174.375 235.748,175.215 237.152,175.840 238.589 C 177.845 243.190,177.990 242.258,177.996 224.719 C 178.001 207.692,177.713 208.400,184.639 208.400 C 188.587 208.400,190.461 208.940,190.952 210.218 C 191.088 210.574,191.200 223.099,191.200 238.051 L 191.200 265.236 190.276 266.161 C 187.483 268.954,176.002 267.387,175.045 264.082 C 174.937 263.707,174.649 262.632,174.407 261.694 C 174.129 260.619,173.447 259.516,172.561 258.710 C 171.554 257.794,170.973 256.770,170.506 255.092 C 170.049 253.447,169.529 252.519,168.759 251.970 C 168.000 251.430,167.390 250.359,166.781 248.495 C 166.201 246.723,165.519 245.492,164.787 244.900 C 164.095 244.341,163.408 243.154,162.971 241.762 C 162.127 239.079,161.411 238.674,160.137 240.155 C 159.201 241.244,159.200 241.251,159.200 252.947 L 159.200 264.650 158.100 265.688 C 155.500 268.141,148.881 268.163,145.988 265.729 L 144.800 264.729 144.800 238.009 C 144.800 208.008,144.579 210.145,147.800 209.003 C 149.452 208.417,154.680 208.224,157.277 208.653 M229.400 208.789 C 230.338 209.005,231.393 209.622,231.951 210.279 C 232.474 210.896,233.644 211.760,234.551 212.200 C 235.525 212.674,236.453 213.508,236.820 214.240 C 237.161 214.922,238.170 216.181,239.064 217.040 C 240.733 218.644,240.977 219.396,241.761 225.348 C 242.137 228.201,240.572 229.200,235.731 229.199 C 230.446 229.199,229.434 228.685,227.691 225.126 C 226.138 221.956,224.867 221.477,218.562 221.684 C 214.611 221.813,214.367 221.999,213.884 225.243 C 213.691 226.535,213.854 226.879,215.435 228.529 C 217.891 231.092,218.199 231.200,223.085 231.200 C 227.824 231.200,228.723 231.517,229.782 233.565 C 230.299 234.564,230.630 234.706,232.968 234.924 C 236.559 235.259,241.600 238.756,241.600 240.911 C 241.600 241.210,242.056 241.852,242.613 242.337 C 244.088 243.619,244.466 244.964,244.486 249.000 C 244.514 254.965,244.143 256.652,242.406 258.441 C 241.578 259.295,240.681 260.523,240.413 261.169 C 239.930 262.334,238.749 263.076,235.969 263.961 C 235.182 264.211,234.148 264.944,233.672 265.589 C 232.413 267.291,230.682 267.599,222.600 267.564 C 212.163 267.518,211.023 267.326,209.244 265.306 C 208.450 264.405,207.350 263.540,206.800 263.385 C 205.242 262.945,201.684 259.138,200.988 257.167 C 200.651 256.209,199.852 254.915,199.213 254.291 C 197.603 252.717,197.093 249.129,198.306 247.916 C 200.734 245.489,209.523 245.956,210.716 248.576 C 210.976 249.146,211.664 249.829,212.246 250.094 C 212.885 250.385,213.594 251.254,214.038 252.288 L 214.772 254.000 220.967 254.000 L 227.162 254.000 229.181 251.981 C 231.325 249.836,231.586 249.144,230.562 248.316 C 229.905 247.784,228.431 246.331,227.302 245.100 C 226.761 244.510,225.926 244.400,221.989 244.400 C 216.955 244.400,217.554 244.590,213.699 241.767 C 213.203 241.404,211.530 240.865,209.979 240.570 C 206.542 239.915,201.864 235.733,201.374 232.878 C 201.235 232.065,200.869 230.140,200.561 228.600 C 199.548 223.537,200.483 218.007,202.693 215.991 C 203.302 215.435,204.116 214.495,204.502 213.901 C 204.890 213.306,205.786 212.671,206.502 212.486 C 207.308 212.277,208.152 211.629,208.727 210.775 C 209.237 210.019,210.047 209.181,210.527 208.914 C 211.587 208.325,226.948 208.222,229.400 208.789 M293.646 208.806 C 296.572 209.619,297.200 210.680,297.200 214.807 C 297.200 220.608,295.996 221.576,288.767 221.591 C 286.438 221.596,283.513 221.805,282.267 222.055 L 280.000 222.510 280.000 243.436 C 280.000 258.341,279.868 264.653,279.541 265.371 C 278.309 268.074,269.964 268.301,267.101 265.710 C 266.450 265.121,266.400 263.563,266.400 243.802 L 266.400 222.528 265.381 222.064 C 264.760 221.781,262.129 221.600,258.635 221.600 C 250.774 221.600,250.800 221.621,250.800 215.345 C 250.800 210.507,251.098 209.378,252.526 208.803 C 253.767 208.303,291.844 208.306,293.646 208.806 M106.430 221.960 C 105.006 222.153,104.532 222.432,104.005 223.386 C 103.645 224.038,102.662 224.938,101.820 225.386 C 100.439 226.120,100.178 226.530,99.155 229.570 C 98.531 231.423,97.836 233.124,97.610 233.350 C 96.643 234.317,97.130 241.335,98.352 244.045 C 98.986 245.450,99.636 247.230,99.798 248.000 C 100.167 249.757,100.677 250.400,101.702 250.400 C 102.144 250.400,103.111 251.042,103.852 251.828 C 105.597 253.677,106.848 254.000,112.279 254.000 L 116.763 254.000 118.545 252.300 C 119.524 251.365,121.137 249.853,122.128 248.939 C 124.809 246.468,124.919 246.112,125.119 239.200 C 125.343 231.469,124.874 228.757,123.009 227.014 C 121.040 225.174,117.975 222.659,117.036 222.114 C 116.164 221.607,109.723 221.514,106.430 221.960 " stroke="none" fill="#fcfcfc" fill-rule="evenodd"></path></g></svg>