<?xml version="1.0" standalone="no"?>
<!DOCTYPE svg PUBLIC "-//W3C//DTD SVG 20010904//EN"
 "http://www.w3.org/TR/2001/REC-SVG-20010904/DTD/svg10.dtd">
<svg version="1.0" xmlns="http://www.w3.org/2000/svg"
 width="126.000000pt" height="125.000000pt" viewBox="0 0 126.000000 125.000000"
 preserveAspectRatio="xMidYMid meet">

<g transform="translate(0.000000,125.000000) scale(0.100000,-0.100000)"
fill="#000000" stroke="none">
<path d="M249 1211 l-39 -39 -1 -156 c0 -200 0 -562 0 -762 l1 -156 39 -39 39
-39 336 0 336 0 38 34 37 34 5 274 c3 150 3 396 0 546 l-5 274 -37 34 -38 34
-336 0 -336 0 -39 -39z m723 -29 l33 -32 0 -515 0 -515 -33 -32 -32 -33 -315
0 -315 0 -32 33 -33 32 0 515 0 514 29 30 c16 16 38 32 50 34 11 3 155 4 318
3 l298 -1 32 -33z"/>
<path d="M376 742 c-7 -12 -76 -196 -76 -204 0 -5 9 -8 20 -8 13 0 22 9 26 25
5 22 11 25 54 25 43 0 49 -3 54 -25 5 -18 13 -25 31 -25 l25 0 -34 93 c-19 50
-37 100 -41 110 -7 17 -49 24 -59 9z m53 -114 c1 -5 -12 -8 -29 -8 -19 0 -28
4 -25 13 2 6 10 26 16 42 l11 30 13 -35 c8 -19 14 -38 14 -42z"/>
<path d="M530 640 c0 -103 1 -110 20 -110 18 0 20 7 20 65 0 36 3 65 8 65 4 0
24 -30 45 -65 26 -45 44 -65 57 -65 19 0 20 7 20 110 0 102 -1 110 -20 110
-17 0 -19 -8 -22 -67 l-3 -68 -40 68 c-30 52 -44 67 -62 67 -23 0 -23 -2 -23
-110z"/>
<path d="M750 640 l0 -110 61 0 c54 0 64 3 90 29 25 25 29 37 29 81 0 44 -4
56 -29 81 -26 26 -36 29 -90 29 l-61 0 0 -110z m124 48 c36 -51 8 -118 -50
-118 l-34 0 0 70 0 70 34 0 c25 0 39 -7 50 -22z"/>
</g>
</svg>
