<svg id="svg" version="1.1" xmlns="http://www.w3.org/2000/svg" xmlns:xlink="http://www.w3.org/1999/xlink" width="400" height="396.8253968253968" viewBox="0, 0, 400,396.8253968253968"><g id="svgg"><path id="path0" d="M87.302 0.794 C 87.302 1.486,87.035 1.588,85.218 1.593 C 82.036 1.601,81.405 1.879,81.120 3.395 C 80.899 4.577,80.717 4.732,79.424 4.840 C 78.067 4.953,77.969 5.052,77.854 6.426 C 77.740 7.803,77.644 7.899,76.267 8.013 C 74.890 8.128,74.794 8.223,74.680 9.600 C 74.565 10.977,74.469 11.073,73.092 11.188 C 71.719 11.302,71.619 11.401,71.506 12.758 C 71.398 14.050,71.244 14.232,70.062 14.454 C 68.545 14.738,68.268 15.370,68.259 18.552 C 68.254 20.567,68.218 20.635,67.143 20.635 C 65.307 20.635,65.079 21.213,65.079 25.873 L 65.079 30.159 63.968 30.159 C 61.798 30.159,61.905 27.761,61.905 76.653 L 61.905 122.194 62.798 122.655 C 65.457 124.026,65.476 124.092,65.476 131.746 C 65.476 139.400,65.457 139.466,62.798 140.837 L 61.905 141.298 61.905 195.238 L 61.905 249.178 62.798 249.639 C 65.457 251.010,65.476 251.076,65.476 258.730 C 65.476 266.384,65.457 266.450,62.798 267.822 L 61.905 268.282 61.905 313.823 C 61.905 362.715,61.798 360.317,63.968 360.317 L 65.079 360.317 65.079 364.603 C 65.079 369.264,65.307 369.841,67.143 369.841 C 68.218 369.841,68.254 369.909,68.259 371.925 C 68.268 375.107,68.545 375.738,70.062 376.022 C 71.244 376.244,71.398 376.426,71.506 377.719 C 71.619 379.076,71.719 379.174,73.092 379.288 C 74.469 379.403,74.565 379.499,74.680 380.876 C 74.794 382.253,74.890 382.349,76.267 382.463 C 77.644 382.578,77.740 382.673,77.854 384.050 C 77.969 385.424,78.067 385.523,79.424 385.637 C 80.717 385.744,80.899 385.899,81.120 387.081 C 81.405 388.597,82.036 388.875,85.218 388.883 C 87.234 388.889,87.302 388.925,87.302 390.000 C 87.302 391.836,87.879 392.063,92.540 392.063 L 96.825 392.063 96.825 393.175 C 96.825 393.786,97.040 394.500,97.302 394.762 C 97.995 395.455,298.830 395.455,299.524 394.762 C 299.786 394.500,300.000 393.786,300.000 393.175 L 300.000 392.063 304.286 392.063 C 308.946 392.063,309.524 391.836,309.524 390.000 C 309.524 388.925,309.591 388.889,311.607 388.883 C 314.789 388.875,315.420 388.597,315.705 387.081 C 315.927 385.899,316.108 385.744,317.401 385.637 C 318.758 385.523,318.857 385.424,318.971 384.050 C 319.085 382.673,319.181 382.578,320.558 382.463 C 321.935 382.349,322.031 382.253,322.146 380.876 C 322.260 379.499,322.356 379.403,323.733 379.288 C 325.106 379.174,325.206 379.076,325.319 377.719 C 325.427 376.426,325.582 376.244,326.764 376.022 C 328.280 375.738,328.558 375.107,328.566 371.925 C 328.571 369.909,328.607 369.841,329.683 369.841 C 331.518 369.841,331.746 369.264,331.746 364.603 L 331.746 360.317 332.857 360.317 C 333.468 360.317,334.183 360.103,334.444 359.841 C 334.812 359.474,334.921 341.661,334.921 282.077 L 334.921 204.790 334.028 204.329 C 331.369 202.958,331.349 202.892,331.349 195.238 C 331.349 187.584,331.369 187.518,334.028 186.147 L 334.921 185.686 334.921 108.399 C 334.921 48.815,334.812 31.002,334.444 30.635 C 334.183 30.373,333.468 30.159,332.857 30.159 L 331.746 30.159 331.746 25.873 C 331.746 21.213,331.518 20.635,329.683 20.635 C 328.607 20.635,328.571 20.567,328.566 18.552 C 328.558 15.370,328.280 14.738,326.764 14.454 C 325.582 14.232,325.427 14.050,325.319 12.758 C 325.206 11.401,325.106 11.302,323.733 11.188 C 322.356 11.073,322.260 10.977,322.146 9.600 C 322.031 8.223,321.935 8.128,320.558 8.013 C 319.181 7.899,319.085 7.803,318.971 6.426 C 318.857 5.052,318.758 4.953,317.401 4.840 C 316.108 4.732,315.927 4.577,315.705 3.395 C 315.420 1.879,314.789 1.601,311.607 1.593 C 309.790 1.588,309.524 1.486,309.524 0.794 C 309.524 0.002,309.259 0.000,198.413 0.000 C 87.566 0.000,87.302 0.002,87.302 0.794 M290.686 10.109 C 292.367 10.430,293.955 10.869,294.213 11.084 C 294.472 11.299,295.998 11.691,297.605 11.957 C 299.743 12.310,300.854 12.723,301.751 13.498 C 302.425 14.080,303.569 14.759,304.293 15.005 C 306.051 15.604,314.555 24.107,315.153 25.866 C 315.400 26.590,316.078 27.734,316.661 28.408 C 317.436 29.304,317.849 30.416,318.202 32.554 C 318.467 34.160,318.846 35.670,319.044 35.908 C 319.889 36.927,320.192 39.781,319.609 41.238 C 319.085 42.547,319.105 42.801,319.836 44.236 C 320.633 45.798,320.635 46.250,320.635 196.874 C 320.635 355.060,320.659 352.622,319.075 354.531 C 318.860 354.790,318.467 356.316,318.202 357.922 C 317.849 360.061,317.436 361.172,316.661 362.069 C 316.078 362.742,315.400 363.886,315.153 364.610 C 314.555 366.369,306.051 374.872,304.293 375.471 C 303.569 375.717,302.425 376.396,301.751 376.978 C 300.854 377.753,299.743 378.166,297.605 378.519 C 295.998 378.785,294.472 379.177,294.213 379.392 C 292.358 380.932,291.114 380.952,200.049 380.952 C 113.058 380.952,112.459 380.947,110.902 380.153 C 109.468 379.422,109.214 379.403,107.905 379.927 C 106.447 380.510,103.594 380.207,102.575 379.361 C 102.336 379.163,100.827 378.785,99.221 378.519 C 97.082 378.166,95.971 377.753,95.074 376.978 C 94.401 376.396,93.257 375.717,92.533 375.471 C 90.774 374.872,82.271 366.369,81.672 364.610 C 81.425 363.886,80.747 362.742,80.165 362.069 C 79.390 361.172,78.977 360.061,78.623 357.922 C 78.358 356.316,77.965 354.790,77.751 354.531 C 76.166 352.622,76.190 355.060,76.190 196.874 C 76.190 46.250,76.193 45.798,76.989 44.236 C 77.721 42.801,77.740 42.547,77.216 41.238 C 76.633 39.781,76.936 36.927,77.782 35.908 C 77.979 35.670,78.358 34.160,78.623 32.554 C 78.977 30.416,79.390 29.304,80.165 28.408 C 80.747 27.734,81.425 26.590,81.672 25.866 C 82.271 24.107,90.774 15.604,92.533 15.005 C 93.257 14.759,94.401 14.080,95.074 13.498 C 95.954 12.738,97.078 12.311,99.062 11.983 C 100.581 11.732,102.363 11.258,103.022 10.929 C 103.681 10.601,105.190 10.171,106.376 9.974 C 110.440 9.300,287.133 9.429,290.686 10.109 M99.307 159.979 C 98.769 160.517,99.812 162.841,101.126 164.029 C 101.573 164.434,102.048 165.260,102.181 165.864 C 102.313 166.469,102.877 167.388,103.433 167.907 C 103.989 168.425,104.896 169.742,105.449 170.833 C 106.002 171.925,106.877 173.244,107.394 173.764 C 107.910 174.285,108.333 175.044,108.333 175.450 C 108.333 175.856,108.958 176.880,109.722 177.725 C 110.485 178.570,111.475 180.086,111.920 181.094 C 112.366 182.101,113.062 183.103,113.467 183.320 C 113.871 183.536,114.405 184.294,114.652 185.004 C 114.900 185.714,115.662 186.873,116.347 187.579 C 118.145 189.435,118.400 192.548,116.901 194.330 C 116.328 195.011,115.432 196.534,114.909 197.715 C 114.387 198.896,113.497 200.165,112.932 200.536 C 112.367 200.906,111.905 201.556,111.905 201.979 C 111.905 202.403,111.386 203.341,110.751 204.064 C 110.117 204.787,109.120 206.386,108.537 207.619 C 107.953 208.852,107.227 209.956,106.924 210.072 C 106.621 210.188,105.843 211.452,105.195 212.880 C 104.548 214.308,103.831 215.476,103.603 215.476 C 103.375 215.476,102.739 216.363,102.190 217.446 C 101.641 218.530,100.866 219.590,100.467 219.804 C 100.069 220.017,99.522 220.927,99.253 221.827 C 98.983 222.726,98.129 224.164,97.354 225.022 C 95.027 227.598,95.390 227.778,102.915 227.778 C 110.131 227.778,109.765 227.911,110.888 224.871 C 111.278 223.819,111.852 222.859,112.166 222.739 C 112.479 222.618,113.173 221.656,113.708 220.600 C 114.244 219.543,115.007 218.505,115.406 218.292 C 115.804 218.078,116.346 217.183,116.610 216.302 C 116.874 215.421,117.798 213.882,118.664 212.881 C 119.530 211.881,120.240 210.761,120.242 210.393 C 120.249 209.334,124.543 204.365,125.452 204.365 C 126.249 204.365,130.498 209.151,130.760 210.344 C 130.888 210.929,131.448 211.832,132.004 212.351 C 132.560 212.869,133.467 214.187,134.020 215.278 C 134.573 216.369,135.448 217.688,135.965 218.209 C 136.482 218.730,136.905 219.488,136.905 219.894 C 136.905 220.300,137.530 221.324,138.293 222.169 C 139.057 223.015,140.037 224.510,140.472 225.493 C 141.437 227.675,141.813 227.778,148.811 227.778 C 154.599 227.778,155.495 227.410,153.726 225.759 C 153.161 225.232,152.247 223.909,151.693 222.817 C 151.140 221.726,150.265 220.329,149.748 219.712 C 149.232 219.095,148.810 218.336,148.810 218.026 C 148.810 217.716,148.185 216.771,147.421 215.926 C 146.658 215.081,145.668 213.565,145.222 212.557 C 144.777 211.549,144.064 210.539,143.639 210.311 C 143.214 210.084,142.752 209.440,142.611 208.881 C 142.471 208.322,141.671 207.073,140.834 206.105 C 139.996 205.138,139.121 203.639,138.888 202.775 C 138.655 201.911,138.114 201.016,137.684 200.786 C 137.255 200.556,136.454 199.482,135.905 198.398 C 135.356 197.315,134.736 196.429,134.527 196.429 C 133.814 196.429,132.845 193.914,132.845 192.063 C 132.845 190.215,133.814 187.698,134.526 187.698 C 134.734 187.698,135.285 186.939,135.751 186.012 C 136.217 185.084,136.946 183.944,137.372 183.479 C 137.798 183.013,138.663 181.540,139.295 180.205 C 139.926 178.870,140.631 177.778,140.861 177.778 C 141.091 177.778,141.714 176.796,142.245 175.595 C 142.776 174.395,143.410 173.413,143.654 173.413 C 143.898 173.413,144.611 172.280,145.239 170.895 C 145.867 169.510,146.838 168.077,147.397 167.711 C 147.956 167.345,148.413 166.698,148.413 166.275 C 148.413 165.851,148.924 164.917,149.548 164.200 C 153.075 160.151,152.601 159.524,146.012 159.524 C 139.476 159.524,138.774 159.782,137.287 162.728 C 136.642 164.005,135.771 165.233,135.351 165.458 C 134.931 165.683,134.375 166.538,134.115 167.358 C 133.856 168.178,133.152 169.478,132.551 170.246 C 131.950 171.014,131.069 172.407,130.592 173.341 C 130.116 174.275,129.459 175.141,129.132 175.267 C 128.805 175.392,128.188 176.181,127.760 177.020 C 126.751 178.997,125.631 179.625,124.343 178.935 C 123.084 178.261,119.841 174.301,119.841 173.436 C 119.841 173.063,119.377 172.324,118.809 171.795 C 118.242 171.266,117.257 169.807,116.621 168.552 C 115.985 167.297,115.280 166.270,115.054 166.270 C 114.828 166.270,114.325 165.558,113.936 164.688 C 113.546 163.818,112.494 162.300,111.597 161.315 L 109.967 159.524 104.864 159.524 C 101.559 159.524,99.602 159.684,99.307 159.979 M187.594 159.922 C 186.991 160.103,185.735 160.621,184.803 161.072 C 183.870 161.524,182.131 162.076,180.939 162.299 C 179.746 162.523,178.323 163.063,177.778 163.498 C 177.232 163.934,175.876 164.827,174.765 165.481 C 173.653 166.136,172.540 167.120,172.291 167.667 C 172.041 168.215,171.383 168.870,170.827 169.123 C 170.254 169.384,169.502 170.296,169.087 171.233 C 168.686 172.140,167.807 173.446,167.134 174.134 C 166.415 174.870,165.804 176.000,165.651 176.879 C 165.508 177.701,164.856 179.444,164.203 180.754 C 161.723 185.724,161.723 201.578,164.203 206.548 C 164.856 207.857,165.504 209.579,165.642 210.375 C 165.780 211.170,166.442 212.510,167.113 213.351 C 167.784 214.192,168.658 215.515,169.055 216.291 C 169.453 217.066,170.241 217.912,170.807 218.170 C 171.374 218.428,172.038 219.079,172.283 219.617 C 172.542 220.187,173.618 221.031,174.858 221.637 C 176.030 222.211,177.162 223.004,177.375 223.401 C 177.809 224.213,179.750 225.000,181.315 225.000 C 181.886 225.000,183.511 225.578,184.927 226.284 C 188.904 228.269,197.731 228.454,201.868 226.638 C 203.385 225.973,205.415 225.304,206.380 225.152 C 208.468 224.824,211.508 223.591,211.508 223.074 C 211.508 222.872,212.304 222.332,213.276 221.875 C 214.249 221.418,215.237 220.686,215.471 220.248 C 215.705 219.811,216.408 219.188,217.032 218.865 C 217.657 218.542,218.352 217.750,218.577 217.105 C 218.802 216.460,219.438 215.636,219.990 215.274 C 220.652 214.840,221.206 213.891,221.612 212.493 C 221.951 211.325,222.687 209.826,223.247 209.161 C 226.024 205.860,225.976 181.781,223.186 178.465 C 222.660 177.840,221.940 176.313,221.586 175.073 C 221.153 173.552,220.570 172.517,219.797 171.896 C 219.167 171.389,218.651 170.771,218.651 170.523 C 218.651 169.792,214.611 166.129,212.996 165.396 C 212.178 165.025,211.508 164.525,211.508 164.285 C 211.508 163.716,209.514 162.898,206.325 162.158 C 204.920 161.831,202.788 161.107,201.587 160.548 C 199.289 159.478,190.394 159.080,187.594 159.922 M238.968 160.000 C 238.212 160.756,238.286 226.716,239.043 227.345 C 239.413 227.652,241.274 227.765,244.698 227.691 L 249.802 227.579 250.000 214.151 L 250.198 200.723 251.135 199.965 C 253.243 198.258,261.959 199.117,264.101 201.241 C 269.300 206.397,269.711 206.873,270.743 208.929 C 271.291 210.020,272.109 211.247,272.561 211.655 C 273.013 212.063,273.582 213.002,273.826 213.742 C 274.070 214.481,274.613 215.269,275.032 215.493 C 275.452 215.718,276.264 216.833,276.839 217.971 C 277.413 219.109,278.395 220.626,279.021 221.343 C 279.647 222.060,280.159 222.888,280.159 223.183 C 280.159 223.478,281.031 224.649,282.097 225.784 L 284.036 227.849 290.398 227.714 C 297.377 227.566,297.881 227.419,296.330 225.980 C 295.751 225.443,294.913 224.180,294.467 223.173 C 294.022 222.166,293.120 220.730,292.464 219.983 C 291.807 219.235,291.270 218.303,291.270 217.913 C 291.270 217.522,290.806 216.769,290.238 216.240 C 289.670 215.711,288.686 214.251,288.050 212.996 C 287.414 211.741,286.709 210.714,286.483 210.714 C 286.257 210.714,285.760 210.016,285.377 209.162 C 284.604 207.435,283.335 206.010,278.230 201.135 C 276.890 199.856,275.794 198.662,275.794 198.482 C 275.794 197.695,277.744 196.481,279.650 196.082 C 280.916 195.817,282.433 195.106,283.550 194.253 C 284.556 193.485,285.817 192.747,286.354 192.612 C 286.901 192.475,287.605 191.822,287.957 191.124 C 288.302 190.440,289.087 189.412,289.701 188.838 C 292.817 185.925,292.832 171.960,289.723 167.972 C 287.347 164.925,284.998 162.731,283.837 162.475 C 282.216 162.119,279.457 161.265,276.984 160.354 C 274.327 159.375,239.913 159.055,238.968 160.000 M202.475 171.591 C 202.969 171.953,203.998 172.685,204.762 173.218 C 205.526 173.752,206.329 174.376,206.548 174.606 C 206.766 174.836,207.597 175.688,208.394 176.500 C 209.192 177.312,210.124 178.601,210.467 179.365 C 210.809 180.129,211.454 181.201,211.899 181.748 C 214.094 184.444,214.114 202.823,211.925 205.519 C 211.465 206.085,210.809 207.173,210.467 207.937 C 209.790 209.447,205.873 213.492,205.087 213.492 C 204.820 213.492,204.021 214.055,203.311 214.743 C 200.862 217.116,188.533 217.475,185.539 215.260 C 185.090 214.928,184.097 214.227,183.333 213.703 C 182.569 213.179,181.677 212.463,181.349 212.111 C 181.022 211.760,180.029 210.717,179.144 209.793 C 178.091 208.695,177.346 207.432,176.989 206.141 C 176.689 205.055,176.087 203.678,175.651 203.081 C 173.705 200.413,173.711 186.861,175.661 184.220 C 176.101 183.623,176.694 182.165,176.978 180.980 C 177.358 179.395,177.899 178.429,179.025 177.325 C 179.867 176.500,180.556 175.643,180.556 175.421 C 180.556 175.198,181.314 174.635,182.242 174.170 C 183.170 173.704,184.325 172.960,184.810 172.516 C 186.927 170.576,200.144 169.885,202.475 171.591 M274.269 170.991 C 278.209 171.907,280.373 175.278,280.068 180.026 L 279.880 182.958 277.592 185.192 C 274.684 188.031,274.549 188.056,261.986 188.078 L 251.948 188.095 250.974 187.121 C 250.016 186.163,250.000 186.037,250.000 179.365 C 250.000 172.693,250.016 172.567,250.974 171.609 L 251.948 170.635 262.383 170.644 C 268.122 170.650,273.471 170.806,274.269 170.991 " stroke="none" fill="#090909" fill-rule="evenodd"></path><path id="path1" d="M106.746 11.519 C 105.764 11.694,104.096 11.955,103.039 12.099 C 101.982 12.243,101.197 12.440,101.294 12.537 C 101.391 12.634,103.403 12.442,105.764 12.111 C 112.191 11.209,284.030 11.201,290.866 12.102 C 293.344 12.429,295.461 12.608,295.570 12.499 C 295.678 12.390,295.604 12.298,295.403 12.294 C 295.203 12.290,293.254 12.027,291.071 11.711 C 286.633 11.068,110.303 10.884,106.746 11.519 M96.260 14.093 C 95.452 14.641,94.163 15.352,93.396 15.672 C 91.587 16.429,83.095 24.920,82.339 26.730 C 82.019 27.496,81.308 28.785,80.759 29.593 C 80.211 30.402,79.762 31.344,79.762 31.687 C 79.762 32.030,80.093 31.693,80.498 30.937 C 80.903 30.182,81.854 28.403,82.611 26.984 C 83.491 25.334,84.691 23.833,85.942 22.817 C 87.017 21.944,88.611 20.350,89.484 19.275 C 90.500 18.024,92.001 16.824,93.651 15.944 C 95.069 15.187,96.848 14.237,97.604 13.832 C 98.359 13.427,98.697 13.095,98.354 13.095 C 98.010 13.095,97.068 13.544,96.260 14.093 M299.222 13.832 C 299.977 14.237,301.756 15.187,303.175 15.944 C 304.825 16.824,306.326 18.024,307.341 19.275 C 308.214 20.350,309.808 21.944,310.884 22.817 C 312.135 23.833,313.335 25.334,314.215 26.984 C 314.971 28.403,315.922 30.182,316.327 30.937 C 316.732 31.693,317.063 32.030,317.063 31.687 C 317.063 31.344,316.615 30.402,316.066 29.593 C 315.518 28.785,314.807 27.496,314.486 26.730 C 313.730 24.920,305.239 16.429,303.429 15.672 C 302.662 15.352,301.374 14.641,300.565 14.093 C 299.757 13.544,298.815 13.095,298.472 13.095 C 298.129 13.095,298.466 13.427,299.222 13.832 M78.773 36.409 C 78.640 37.445,78.474 38.579,78.405 38.928 C 78.336 39.278,78.411 40.260,78.571 41.111 C 78.827 42.467,78.865 42.338,78.882 40.065 C 78.892 38.638,79.025 36.808,79.177 35.997 C 79.329 35.187,79.355 34.524,79.235 34.524 C 79.115 34.524,78.907 35.372,78.773 36.409 M317.640 35.898 C 317.797 36.763,317.933 38.638,317.944 40.065 C 317.959 42.235,318.008 42.417,318.242 41.181 C 318.523 39.702,318.067 34.981,317.602 34.553 C 317.466 34.428,317.483 35.033,317.640 35.898 M78.238 44.786 C 77.475 47.332,77.611 346.098,78.378 351.389 C 78.694 353.571,78.956 355.521,78.961 355.721 C 78.965 355.921,79.057 355.996,79.166 355.887 C 79.274 355.779,79.096 353.662,78.769 351.184 C 78.001 345.362,77.854 47.071,78.617 44.880 C 78.861 44.182,78.979 43.529,78.879 43.430 C 78.780 43.330,78.491 43.940,78.238 44.786 M318.145 44.048 C 318.310 44.593,318.500 112.718,318.567 195.437 C 318.685 341.264,318.641 348.384,317.585 354.762 C 317.459 355.526,317.463 356.051,317.596 355.929 C 319.175 354.479,319.981 48.252,318.417 44.444 C 318.103 43.681,317.981 43.502,318.145 44.048 M62.103 131.746 C 62.103 139.262,62.190 140.725,62.581 139.809 C 62.893 139.079,63.059 136.279,63.059 131.746 C 63.059 127.213,62.893 124.413,62.581 123.683 C 62.190 122.767,62.103 124.230,62.103 131.746 M102.282 158.627 C 103.646 158.705,105.878 158.705,107.242 158.627 C 108.606 158.550,107.490 158.486,104.762 158.486 C 102.034 158.486,100.918 158.550,102.282 158.627 M143.370 158.628 C 144.852 158.705,147.173 158.704,148.528 158.627 C 149.883 158.549,148.671 158.487,145.833 158.488 C 142.996 158.488,141.887 158.551,143.370 158.628 M192.574 158.627 C 193.837 158.706,195.801 158.705,196.939 158.625 C 198.077 158.546,197.044 158.481,194.643 158.482 C 192.242 158.483,191.311 158.548,192.574 158.627 M247.917 158.631 C 252.555 158.694,260.144 158.694,264.782 158.631 C 269.420 158.567,265.625 158.515,256.349 158.515 C 247.073 158.515,243.279 158.567,247.917 158.631 M98.235 159.501 C 97.851 159.925,97.631 160.505,97.745 160.791 C 97.884 161.137,97.964 161.086,97.985 160.638 C 98.002 160.268,98.413 159.688,98.898 159.348 C 99.383 159.008,99.589 158.730,99.356 158.730 C 99.123 158.730,98.619 159.077,98.235 159.501 M138.215 159.132 C 137.423 159.451,136.087 161.404,136.128 162.183 C 136.137 162.357,136.473 161.883,136.874 161.129 C 137.336 160.262,138.096 159.580,138.941 159.274 C 139.676 159.008,140.010 158.788,139.683 158.786 C 139.355 158.783,138.695 158.939,138.215 159.132 M152.008 159.463 C 153.083 160.334,152.451 162.567,150.468 164.902 C 149.883 165.590,149.092 166.670,148.710 167.302 C 148.328 167.935,147.569 169.059,147.023 169.801 C 146.478 170.542,146.039 171.346,146.048 171.586 C 146.056 171.827,146.349 171.488,146.699 170.833 C 147.049 170.179,147.578 169.499,147.876 169.324 C 148.174 169.149,148.794 168.256,149.253 167.340 C 149.712 166.424,150.500 165.228,151.005 164.683 C 153.227 162.281,153.512 158.730,151.482 158.730 C 151.273 158.730,151.510 159.060,152.008 159.463 M237.958 159.456 C 236.890 160.636,236.957 226.946,238.027 227.915 C 238.426 228.276,238.913 228.571,239.108 228.571 C 239.303 228.571,239.065 228.293,238.580 227.954 L 237.698 227.336 237.698 193.651 L 237.698 159.966 238.580 159.348 C 239.065 159.008,239.272 158.730,239.039 158.730 C 238.806 158.730,238.320 159.057,237.958 159.456 M112.548 160.698 C 113.229 161.471,113.982 162.460,114.222 162.897 C 114.462 163.333,114.664 163.457,114.670 163.171 C 114.677 162.886,113.924 161.896,112.996 160.972 C 111.858 159.839,111.712 159.750,112.548 160.698 M182.738 160.093 C 180.141 161.344,180.536 161.361,183.532 160.127 C 184.841 159.587,185.645 159.144,185.317 159.142 C 184.990 159.139,183.829 159.567,182.738 160.093 M202.976 159.652 C 203.849 159.933,205.198 160.453,205.974 160.808 C 206.750 161.163,207.911 161.558,208.554 161.685 C 209.377 161.848,209.253 161.740,208.135 161.320 C 207.262 160.992,206.101 160.470,205.556 160.160 C 205.010 159.850,203.849 159.495,202.976 159.370 L 201.389 159.143 202.976 159.652 M279.167 159.652 C 280.040 159.933,281.468 160.472,282.341 160.851 C 283.214 161.230,284.620 161.838,285.465 162.201 C 286.862 162.802,290.200 166.428,291.585 168.849 C 291.835 169.286,292.045 169.444,292.051 169.201 C 292.088 167.863,287.155 162.589,284.980 161.640 C 283.747 161.101,282.292 160.422,281.746 160.129 C 281.200 159.836,280.040 159.495,279.167 159.370 L 277.579 159.143 279.167 159.652 M98.032 161.627 C 98.000 162.265,99.150 164.110,100.059 164.879 L 100.992 165.669 100.147 164.680 C 99.683 164.136,99.020 163.155,98.675 162.500 C 98.330 161.845,98.040 161.452,98.032 161.627 M177.183 162.101 C 175.985 162.665,173.012 165.079,173.513 165.079 C 173.661 165.079,174.396 164.540,175.146 163.881 C 175.897 163.222,177.198 162.431,178.037 162.124 C 178.877 161.816,179.296 161.558,178.968 161.551 C 178.641 161.545,177.837 161.792,177.183 162.101 M212.227 163.449 C 212.950 164.127,213.647 164.683,213.776 164.683 C 214.187 164.683,212.542 163.039,211.711 162.618 C 211.272 162.396,211.504 162.770,212.227 163.449 M134.425 164.568 C 133.606 165.534,132.942 166.535,132.949 166.793 C 132.955 167.051,133.157 166.905,133.398 166.468 C 133.638 166.032,134.379 165.097,135.045 164.391 C 135.711 163.685,136.178 163.041,136.084 162.960 C 135.990 162.878,135.243 163.602,134.425 164.568 M115.039 164.583 C 115.295 165.074,115.652 165.476,115.832 165.476 C 116.012 165.476,116.727 166.542,117.421 167.844 C 118.115 169.146,118.858 170.319,119.071 170.451 C 119.285 170.583,119.893 171.527,120.423 172.548 C 121.450 174.528,124.634 178.175,125.335 178.175 C 125.567 178.175,126.077 177.713,126.470 177.150 C 126.862 176.586,127.696 175.470,128.324 174.670 L 129.466 173.214 128.126 174.664 C 127.389 175.462,126.488 176.533,126.124 177.045 L 125.463 177.976 123.611 176.190 C 122.592 175.208,121.331 173.569,120.807 172.548 C 120.284 171.527,119.682 170.583,119.468 170.451 C 119.255 170.319,118.520 169.161,117.836 167.878 C 117.152 166.595,116.139 165.128,115.584 164.618 L 114.575 163.690 115.039 164.583 M215.079 165.167 C 215.079 165.252,216.084 166.274,217.312 167.438 C 218.541 168.602,219.389 169.278,219.197 168.939 C 218.851 168.327,215.079 164.872,215.079 165.167 M101.192 166.927 C 101.191 167.179,101.771 168.098,102.480 168.970 C 103.189 169.841,104.266 171.420,104.871 172.479 C 106.238 174.867,107.937 177.226,107.937 176.734 C 107.937 176.326,106.868 174.700,106.052 173.865 C 105.762 173.568,105.088 172.464,104.555 171.413 C 104.023 170.361,103.390 169.379,103.150 169.231 C 102.910 169.082,102.371 168.400,101.953 167.715 C 101.535 167.029,101.193 166.675,101.192 166.927 M131.721 168.733 C 130.453 170.402,129.790 171.534,129.792 172.024 C 129.793 172.242,130.076 171.885,130.421 171.230 C 130.766 170.575,131.358 169.683,131.735 169.246 C 132.113 168.810,132.548 168.229,132.702 167.956 C 133.225 167.033,132.694 167.454,131.721 168.733 M219.444 169.965 C 219.444 170.034,220.025 170.614,220.734 171.255 L 222.024 172.421 220.858 171.131 C 219.772 169.929,219.444 169.659,219.444 169.965 M167.059 171.710 C 165.038 174.604,164.687 175.213,164.700 175.794 C 164.708 176.121,164.966 175.809,165.274 175.100 C 165.582 174.392,166.408 173.097,167.110 172.224 C 167.812 171.350,168.310 170.559,168.216 170.465 C 168.123 170.371,167.602 170.931,167.059 171.710 M191.964 171.721 C 193.110 171.801,194.985 171.801,196.131 171.721 C 197.277 171.641,196.339 171.575,194.048 171.575 C 191.756 171.575,190.818 171.641,191.964 171.721 M251.450 172.154 C 250.411 173.303,250.476 185.701,251.527 186.652 C 252.179 187.242,253.361 187.303,262.142 187.202 L 272.024 187.089 262.083 186.997 C 254.989 186.931,252.007 186.768,251.667 186.429 C 250.954 185.716,251.001 172.873,251.719 172.278 C 252.067 171.989,255.766 171.800,262.532 171.726 L 272.817 171.613 262.462 171.521 C 252.867 171.435,252.059 171.482,251.450 172.154 M186.111 173.214 C 184.925 173.978,184.131 174.603,184.346 174.603 C 184.561 174.603,185.401 174.152,186.213 173.600 C 187.024 173.048,188.093 172.435,188.586 172.236 C 189.121 172.022,189.238 171.866,188.876 171.851 C 188.541 171.837,187.297 172.450,186.111 173.214 M273.558 172.108 C 274.416 172.328,277.743 174.762,278.472 175.702 C 278.745 176.054,278.968 176.144,278.968 175.902 C 278.968 175.198,274.485 171.827,273.611 171.874 C 272.881 171.914,272.877 171.933,273.558 172.108 M292.768 173.016 C 292.926 173.780,293.045 176.444,293.033 178.936 C 293.010 183.438,293.013 183.454,293.512 181.317 C 294.212 178.319,294.158 176.758,293.259 174.008 C 292.830 172.698,292.610 172.252,292.768 173.016 M145.238 173.215 C 144.946 173.760,144.565 174.206,144.391 174.206 C 144.218 174.206,143.861 174.608,143.600 175.099 C 143.164 175.917,143.181 175.945,143.803 175.432 C 144.704 174.688,146.164 172.619,145.943 172.398 C 145.847 172.302,145.530 172.670,145.238 173.215 M201.417 172.724 C 204.282 174.433,205.980 175.777,207.639 177.646 C 208.676 178.815,209.524 179.635,209.524 179.468 C 209.524 178.893,205.669 175.082,204.060 174.066 C 203.173 173.506,202.333 172.862,202.192 172.635 C 202.052 172.408,201.635 172.225,201.266 172.228 C 200.716 172.233,200.743 172.322,201.417 172.724 M222.045 173.512 C 222.658 175.521,225.397 180.579,225.397 179.703 C 225.397 179.360,224.925 178.384,224.348 177.536 C 223.771 176.687,223.040 175.233,222.723 174.306 C 222.134 172.580,221.552 171.899,222.045 173.512 M181.667 175.893 C 181.003 176.602,180.028 177.650,179.501 178.222 C 177.099 180.828,174.557 191.964,175.320 196.538 C 175.830 199.596,177.400 204.875,177.707 204.568 C 177.809 204.466,177.613 203.620,177.271 202.687 C 176.370 200.232,175.397 195.538,175.397 193.651 C 175.397 189.759,178.397 179.730,179.919 178.533 C 180.462 178.106,181.021 177.392,181.163 176.946 C 181.304 176.501,181.984 175.792,182.674 175.371 C 183.364 174.950,183.692 174.605,183.402 174.605 C 183.112 174.604,182.332 175.184,181.667 175.893 M142.471 177.355 C 142.200 178.010,141.720 178.760,141.404 179.022 C 141.088 179.284,140.645 179.870,140.419 180.325 C 139.829 181.513,141.934 179.031,142.695 177.642 C 143.034 177.021,143.234 176.435,143.138 176.339 C 143.042 176.243,142.742 176.701,142.471 177.355 M163.339 178.784 C 162.733 179.981,162.327 181.181,162.437 181.452 C 162.571 181.783,162.646 181.748,162.667 181.346 C 162.684 181.017,163.158 179.884,163.720 178.829 C 164.282 177.774,164.673 176.843,164.591 176.760 C 164.508 176.677,163.945 177.588,163.339 178.784 M279.091 178.770 C 279.093 180.079,279.168 180.567,279.256 179.854 C 279.344 179.141,279.342 178.069,279.252 177.473 C 279.161 176.877,279.089 177.460,279.091 178.770 M108.293 177.976 C 108.527 178.413,109.184 179.306,109.752 179.960 C 110.320 180.615,110.593 180.794,110.358 180.357 C 110.123 179.921,109.467 179.028,108.899 178.373 C 108.331 177.718,108.058 177.540,108.293 177.976 M209.553 180.274 C 209.537 180.446,209.910 181.339,210.383 182.258 C 210.855 183.177,211.468 184.643,211.745 185.516 C 212.023 186.392,212.260 186.744,212.275 186.302 C 212.300 185.546,209.617 179.604,209.553 180.274 M111.111 182.430 C 111.111 182.629,111.736 183.494,112.500 184.353 C 114.304 186.380,114.304 185.890,112.500 183.730 C 111.736 182.816,111.111 182.231,111.111 182.430 M139.286 182.526 C 139.286 182.737,138.750 183.519,138.095 184.265 C 137.440 185.011,136.905 185.748,136.905 185.903 C 136.905 186.059,137.530 185.438,138.294 184.524 C 139.564 183.003,139.994 182.143,139.484 182.143 C 139.375 182.143,139.286 182.315,139.286 182.526 M277.311 183.642 C 276.727 184.028,275.841 184.875,275.342 185.525 C 274.666 186.406,274.935 186.261,276.404 184.952 C 277.487 183.987,278.447 183.139,278.538 183.067 C 279.070 182.647,278.208 183.051,277.311 183.642 M225.894 184.722 C 225.898 185.595,225.979 185.906,226.074 185.412 C 226.169 184.918,226.166 184.204,226.066 183.825 C 225.967 183.445,225.889 183.849,225.894 184.722 M161.616 186.905 C 161.616 187.887,161.693 188.289,161.788 187.798 C 161.883 187.307,161.883 186.503,161.788 186.012 C 161.693 185.521,161.616 185.923,161.616 186.905 M113.889 186.419 C 113.889 186.653,114.356 187.399,114.926 188.077 C 115.497 188.755,116.199 190.063,116.487 190.984 C 116.775 191.905,117.022 192.340,117.037 191.952 C 117.052 191.563,116.794 190.670,116.465 189.967 C 115.714 188.364,113.889 185.850,113.889 186.419 M334.166 187.361 C 333.560 189.098,333.623 201.848,334.244 203.301 C 334.636 204.217,334.722 202.761,334.722 195.265 C 334.722 190.231,334.695 186.111,334.662 186.111 C 334.629 186.111,334.405 186.673,334.166 187.361 M226.389 193.651 C 226.389 199.574,226.468 200.564,226.855 199.498 C 227.111 198.792,227.321 196.161,227.321 193.651 C 227.321 191.141,227.111 188.510,226.855 187.804 C 226.468 186.737,226.389 187.728,226.389 193.651 M134.958 189.155 C 134.283 190.175,133.733 191.202,133.737 191.437 C 133.740 191.672,134.176 191.151,134.706 190.278 C 135.235 189.405,135.863 188.378,136.102 187.996 C 137.067 186.451,136.100 187.431,134.958 189.155 M212.461 193.254 C 212.461 196.637,212.522 198.021,212.597 196.329 C 212.671 194.638,212.671 191.870,212.597 190.179 C 212.522 188.487,212.461 189.871,212.461 193.254 M290.278 189.961 C 288.531 191.939,288.530 192.043,290.271 190.390 C 291.126 189.579,291.745 188.847,291.647 188.764 C 291.549 188.681,290.933 189.220,290.278 189.961 M161.258 193.651 C 161.258 195.942,161.324 196.880,161.404 195.734 C 161.484 194.588,161.484 192.713,161.404 191.567 C 161.324 190.422,161.258 191.359,161.258 193.651 M133.737 192.690 C 133.730 193.145,136.065 196.825,136.361 196.825 C 136.457 196.825,136.341 196.513,136.102 196.131 C 135.863 195.749,135.235 194.722,134.706 193.849 C 134.176 192.976,133.740 192.455,133.737 192.690 M115.313 194.078 C 114.748 194.750,114.291 195.509,114.298 195.765 C 114.304 196.021,114.507 195.873,114.749 195.437 C 114.990 195.000,115.552 194.241,115.996 193.750 C 116.441 193.259,116.700 192.857,116.573 192.857 C 116.445 192.857,115.878 193.407,115.313 194.078 M285.317 194.480 C 284.772 194.926,283.611 195.632,282.738 196.049 C 281.865 196.467,281.386 196.812,281.673 196.817 C 281.960 196.821,282.580 196.620,283.050 196.368 C 284.392 195.650,287.063 193.650,286.667 193.660 C 286.470 193.664,285.863 194.033,285.317 194.480 M113.509 197.578 C 113.242 198.224,112.778 198.846,112.480 198.961 C 112.181 199.075,111.497 200.037,110.960 201.098 C 110.422 202.158,109.689 203.270,109.330 203.567 C 108.583 204.188,107.395 206.337,107.655 206.597 C 107.751 206.693,108.049 206.243,108.316 205.597 C 108.584 204.951,109.163 204.097,109.602 203.699 C 110.042 203.302,110.727 202.339,111.124 201.561 C 111.522 200.782,112.139 199.902,112.497 199.606 C 113.243 198.986,114.430 196.838,114.170 196.577 C 114.074 196.482,113.777 196.932,113.509 197.578 M277.519 198.115 C 277.270 198.463,278.456 199.906,281.494 202.954 C 283.876 205.342,285.629 206.949,285.390 206.525 C 285.151 206.101,283.281 204.108,281.235 202.096 C 278.675 199.580,277.642 198.311,277.923 198.029 C 278.149 197.803,278.230 197.619,278.104 197.619 C 277.978 197.619,277.715 197.842,277.519 198.115 M138.340 199.982 C 138.802 200.537,139.377 201.349,139.617 201.786 C 139.858 202.222,140.061 202.354,140.067 202.078 C 140.074 201.801,139.499 200.990,138.790 200.273 C 138.080 199.557,137.878 199.426,138.340 199.982 M161.616 200.397 C 161.616 201.379,161.693 201.781,161.788 201.290 C 161.883 200.799,161.883 199.995,161.788 199.504 C 161.693 199.013,161.616 199.415,161.616 200.397 M211.955 200.794 C 211.923 201.339,211.461 202.723,210.927 203.869 C 210.394 205.015,210.048 205.952,210.159 205.952 C 210.632 205.952,212.342 201.515,212.185 200.697 C 212.022 199.851,212.010 199.856,211.955 200.794 M251.445 200.732 C 250.850 201.389,250.794 202.773,250.893 214.323 L 251.003 227.183 251.097 214.235 C 251.205 199.258,250.794 200.484,255.775 200.297 L 259.325 200.163 255.716 200.082 C 252.648 200.012,252.008 200.110,251.445 200.732 M260.589 200.800 C 262.848 201.515,267.950 206.585,269.513 209.669 C 269.971 210.571,270.857 211.896,271.482 212.613 C 272.107 213.330,272.619 214.078,272.619 214.275 C 272.619 214.473,273.333 215.460,274.206 216.468 C 275.079 217.477,275.794 218.144,275.794 217.950 C 275.794 217.757,275.330 217.166,274.763 216.637 C 274.196 216.108,273.406 215.038,273.006 214.259 C 272.607 213.481,271.985 212.599,271.625 212.300 C 271.265 212.001,270.516 210.852,269.961 209.747 C 268.951 207.737,268.228 206.813,265.628 204.213 C 262.761 201.345,262.010 200.797,260.685 200.601 L 259.325 200.400 260.589 200.800 M225.894 202.579 C 225.898 203.452,225.979 203.763,226.074 203.269 C 226.169 202.776,226.166 202.061,226.066 201.682 C 225.967 201.302,225.889 201.706,225.894 202.579 M140.079 203.121 C 140.079 203.354,140.587 204.130,141.207 204.847 C 141.827 205.564,142.536 206.508,142.782 206.944 C 143.028 207.381,143.235 207.555,143.242 207.331 C 143.249 207.106,142.540 205.972,141.667 204.811 C 140.794 203.649,140.079 202.888,140.079 203.121 M124.030 206.829 C 122.309 208.931,122.043 209.273,121.321 210.307 C 120.944 210.846,120.641 211.471,120.649 211.695 C 120.657 211.920,120.880 211.738,121.145 211.292 C 122.048 209.774,125.024 205.952,125.310 205.945 C 125.467 205.940,126.467 206.878,127.532 208.028 L 129.468 210.119 127.698 207.959 C 125.495 205.271,125.342 205.224,124.030 206.829 M162.492 206.400 C 162.600 206.973,163.135 208.223,163.681 209.177 C 164.796 211.128,165.066 210.980,163.989 209.008 C 163.608 208.310,163.070 207.202,162.795 206.548 C 162.336 205.456,162.311 205.443,162.492 206.400 M178.190 206.622 C 178.124 208.592,187.024 215.525,189.484 215.418 C 190.266 215.385,190.266 215.381,189.494 215.185 C 187.231 214.612,182.177 211.400,181.190 209.909 C 180.617 209.042,179.977 208.333,179.769 208.333 C 179.561 208.333,179.124 207.842,178.798 207.242 C 178.473 206.642,178.199 206.363,178.190 206.622 M106.303 208.494 C 105.732 209.170,104.798 210.647,104.227 211.777 C 103.657 212.908,103.009 213.945,102.787 214.081 C 102.566 214.218,102.190 214.722,101.951 215.201 C 101.647 215.810,101.827 215.714,102.552 214.881 C 103.122 214.226,104.050 212.798,104.614 211.706 C 105.179 210.615,106.100 209.233,106.661 208.635 C 107.221 208.037,107.604 207.485,107.511 207.407 C 107.418 207.330,106.874 207.819,106.303 208.494 M225.000 208.080 C 225.000 208.376,224.590 209.225,224.089 209.964 C 223.588 210.704,222.861 212.113,222.472 213.095 C 222.084 214.077,221.199 215.506,220.506 216.270 L 219.246 217.659 220.696 216.328 C 221.493 215.597,222.457 214.181,222.839 213.183 C 223.220 212.184,223.952 210.749,224.464 209.993 C 225.322 208.729,225.678 207.540,225.198 207.540 C 225.089 207.540,225.000 207.783,225.000 208.080 M143.254 207.998 C 143.254 208.141,143.879 209.006,144.643 209.921 C 145.407 210.835,146.032 211.420,146.032 211.221 C 146.032 211.021,145.407 210.156,144.643 209.298 C 143.879 208.440,143.254 207.855,143.254 207.998 M206.722 210.425 C 205.508 211.566,203.603 213.036,202.489 213.690 C 201.375 214.345,200.540 214.958,200.634 215.051 C 200.727 215.145,201.292 214.865,201.890 214.429 C 202.487 213.993,203.690 213.222,204.563 212.715 C 205.853 211.967,209.626 208.312,209.079 208.341 C 208.996 208.346,207.935 209.283,206.722 210.425 M286.468 209.028 C 286.724 209.519,287.080 209.921,287.260 209.921 C 287.440 209.921,288.156 210.986,288.850 212.288 C 289.544 213.590,290.285 214.763,290.498 214.894 C 290.710 215.026,291.259 215.880,291.716 216.793 C 292.173 217.706,292.953 218.899,293.449 219.444 C 293.945 219.990,294.632 220.972,294.977 221.627 C 295.321 222.282,295.610 222.621,295.619 222.380 C 295.628 222.140,295.189 221.336,294.643 220.594 C 294.098 219.853,293.339 218.735,292.957 218.111 C 292.575 217.487,291.871 216.415,291.392 215.730 C 290.914 215.045,289.960 213.473,289.272 212.237 C 288.584 211.001,287.567 209.572,287.012 209.062 L 286.003 208.135 286.468 209.028 M129.763 211.371 C 129.763 211.623,130.342 212.543,131.052 213.414 C 131.761 214.285,132.837 215.865,133.443 216.924 C 134.809 219.312,136.508 221.670,136.508 221.179 C 136.508 220.771,135.440 219.144,134.624 218.309 C 134.333 218.012,133.660 216.909,133.127 215.857 C 132.594 214.806,131.962 213.824,131.721 213.675 C 131.481 213.527,130.943 212.845,130.525 212.159 C 130.107 211.474,129.764 211.119,129.763 211.371 M164.711 211.421 C 164.663 212.294,165.783 214.425,167.045 215.858 C 167.710 216.614,168.254 217.111,168.254 216.963 C 168.254 216.815,167.715 216.080,167.056 215.330 C 166.397 214.579,165.606 213.279,165.298 212.439 C 164.990 211.600,164.726 211.142,164.711 211.421 M119.420 213.575 C 118.152 215.243,117.488 216.375,117.490 216.865 C 117.491 217.083,117.775 216.726,118.120 216.071 C 118.465 215.417,119.056 214.524,119.434 214.087 C 119.811 213.651,120.246 213.070,120.401 212.798 C 120.924 211.874,120.392 212.295,119.420 213.575 M146.774 213.371 C 147.023 213.850,147.419 214.360,147.653 214.505 C 147.888 214.650,148.422 215.330,148.840 216.016 C 149.258 216.701,149.601 217.056,149.602 216.803 C 149.603 216.551,148.959 215.569,148.171 214.621 C 146.345 212.422,146.225 212.314,146.774 213.371 M192.374 215.769 C 193.528 215.850,195.313 215.849,196.343 215.767 C 197.372 215.686,196.429 215.620,194.246 215.621 C 192.063 215.622,191.221 215.689,192.374 215.769 M150.650 219.050 C 151.116 219.595,151.899 220.843,152.390 221.825 C 152.880 222.808,153.793 224.198,154.418 224.915 C 155.786 226.482,155.841 227.136,154.674 227.954 C 154.189 228.293,153.982 228.571,154.215 228.571 C 155.921 228.571,156.251 226.560,154.814 224.915 C 154.188 224.198,153.226 222.718,152.675 221.627 C 152.124 220.536,151.252 219.287,150.737 218.852 L 149.802 218.061 150.650 219.050 M216.848 220.435 C 215.766 221.416,214.753 222.220,214.597 222.221 C 214.441 222.221,213.709 222.753,212.970 223.402 C 211.738 224.483,207.636 226.228,203.175 227.567 C 202.192 227.862,201.746 228.112,202.183 228.122 C 202.619 228.132,203.690 227.870,204.563 227.540 C 205.437 227.209,207.393 226.501,208.911 225.965 C 210.430 225.430,212.126 224.567,212.681 224.049 C 213.236 223.531,214.226 222.826,214.881 222.483 C 215.943 221.928,219.466 218.651,219.002 218.651 C 218.899 218.651,217.931 219.454,216.848 220.435 M275.810 218.890 C 275.801 219.130,276.240 219.934,276.785 220.675 C 277.331 221.417,278.090 222.551,278.472 223.195 C 279.320 224.624,282.925 228.571,283.382 228.571 C 283.564 228.571,282.899 227.822,281.905 226.906 C 280.911 225.989,279.823 224.695,279.488 224.029 C 279.152 223.362,278.473 222.371,277.978 221.825 C 277.483 221.280,276.796 220.298,276.452 219.643 C 276.107 218.988,275.818 218.649,275.810 218.890 M97.830 221.787 C 97.688 222.235,96.957 223.336,96.206 224.235 C 95.456 225.134,94.842 226.075,94.843 226.327 C 94.844 226.579,95.186 226.225,95.604 225.539 C 96.022 224.854,96.559 224.173,96.796 224.026 C 97.354 223.681,98.530 221.413,98.280 221.163 C 98.174 221.058,97.972 221.339,97.830 221.787 M136.864 222.421 C 137.099 222.857,137.756 223.750,138.324 224.405 C 138.892 225.060,139.164 225.238,138.929 224.802 C 138.695 224.365,138.038 223.472,137.470 222.817 C 136.902 222.163,136.629 221.984,136.864 222.421 M112.783 223.882 C 112.082 224.794,111.509 225.732,111.509 225.965 C 111.510 226.198,111.863 225.853,112.294 225.198 C 112.725 224.544,113.371 223.606,113.730 223.115 C 114.889 221.529,114.100 222.168,112.783 223.882 M175.118 223.571 C 177.216 225.172,178.331 225.799,179.041 225.778 C 179.329 225.770,178.972 225.506,178.250 225.192 C 177.527 224.878,176.281 224.081,175.481 223.422 C 174.680 222.762,173.874 222.222,173.689 222.222 C 173.503 222.222,174.147 222.829,175.118 223.571 M295.635 223.314 C 295.635 223.519,296.016 224.027,296.483 224.442 C 296.949 224.858,297.567 225.734,297.856 226.389 C 298.146 227.046,298.389 227.285,298.397 226.922 C 298.406 226.561,297.788 225.517,297.024 224.603 C 296.260 223.689,295.635 223.109,295.635 223.314 M182.937 227.183 C 183.919 227.708,184.990 228.145,185.317 228.153 C 185.645 228.161,185.020 227.728,183.929 227.191 C 181.375 225.935,180.594 225.928,182.937 227.183 M110.431 227.659 C 109.948 228.161,109.697 228.571,109.873 228.571 C 110.260 228.571,111.704 227.029,111.472 226.862 C 111.383 226.798,110.914 227.156,110.431 227.659 M99.504 228.866 C 101.086 228.941,103.676 228.941,105.258 228.866 C 106.840 228.791,105.546 228.729,102.381 228.729 C 99.216 228.729,97.922 228.791,99.504 228.866 M146.145 228.865 C 147.408 228.944,149.373 228.943,150.511 228.863 C 151.648 228.784,150.615 228.719,148.214 228.720 C 145.813 228.721,144.883 228.786,146.145 228.865 M192.574 228.865 C 193.837 228.944,195.801 228.943,196.939 228.863 C 198.077 228.784,197.044 228.719,194.643 228.720 C 192.242 228.721,191.311 228.786,192.574 228.865 M241.964 228.865 C 243.328 228.943,245.561 228.943,246.925 228.865 C 248.289 228.788,247.173 228.724,244.444 228.724 C 241.716 228.724,240.600 228.788,241.964 228.865 M286.607 228.866 C 288.080 228.942,290.491 228.942,291.964 228.866 C 293.438 228.789,292.232 228.727,289.286 228.727 C 286.339 228.727,285.134 228.789,286.607 228.866 M62.103 258.730 C 62.103 266.247,62.190 267.709,62.581 266.793 C 62.893 266.063,63.059 263.264,63.059 258.730 C 63.059 254.197,62.893 251.397,62.581 250.667 C 62.190 249.751,62.103 251.214,62.103 258.730 M79.762 358.789 C 79.762 359.132,80.211 360.074,80.759 360.883 C 81.308 361.691,82.019 362.980,82.339 363.746 C 83.095 365.556,91.587 374.048,93.396 374.804 C 94.163 375.124,95.452 375.835,96.260 376.384 C 97.068 376.932,98.010 377.381,98.354 377.381 C 98.697 377.381,98.359 377.050,97.604 376.644 C 96.848 376.239,95.069 375.289,93.651 374.532 C 92.001 373.652,90.500 372.452,89.484 371.201 C 88.611 370.126,87.017 368.532,85.942 367.659 C 84.691 366.643,83.491 365.142,82.611 363.492 C 81.854 362.073,80.903 360.295,80.498 359.539 C 80.093 358.784,79.762 358.446,79.762 358.789 M316.371 359.407 C 314.814 362.980,312.667 366.206,310.881 367.659 C 309.807 368.532,308.214 370.126,307.341 371.201 C 306.326 372.452,304.825 373.652,303.175 374.532 C 301.756 375.289,299.977 376.239,299.222 376.644 C 298.466 377.050,298.129 377.381,298.472 377.381 C 298.815 377.381,299.757 376.932,300.565 376.384 C 301.374 375.835,302.662 375.124,303.429 374.804 C 305.364 373.995,313.681 365.595,314.685 363.435 C 315.127 362.484,315.858 361.128,316.310 360.420 C 316.762 359.713,317.069 358.947,316.993 358.717 C 316.916 358.487,316.636 358.798,316.371 359.407 M101.219 377.919 C 101.647 378.384,106.369 378.840,107.848 378.560 C 109.084 378.326,108.902 378.277,106.731 378.261 C 105.305 378.251,103.430 378.114,102.565 377.957 C 101.700 377.801,101.094 377.784,101.219 377.919 M290.278 378.418 C 285.901 379.020,112.713 379.063,110.714 378.462 C 110.169 378.298,110.347 378.420,111.111 378.734 C 114.758 380.232,294.059 379.486,295.579 377.966 C 295.841 377.704,294.849 377.788,290.278 378.418 " stroke="none" fill="#848484" fill-rule="evenodd"></path><path id="path2" d="M105.534 12.104 C 100.219 12.880,97.989 13.443,96.465 14.396 C 95.689 14.881,94.166 15.726,93.081 16.275 C 91.936 16.854,90.435 18.102,89.503 19.251 C 88.619 20.340,87.006 21.953,85.918 22.836 C 84.769 23.768,83.520 25.269,82.941 26.415 C 82.393 27.500,81.544 29.028,81.055 29.811 C 79.917 31.632,79.010 36.029,78.733 41.073 C 78.255 49.766,78.115 345.322,78.587 349.603 C 79.231 355.452,80.030 359.026,81.060 360.674 C 81.546 361.452,82.393 362.976,82.941 364.061 C 83.520 365.207,84.769 366.708,85.918 367.640 C 87.006 368.523,88.619 370.137,89.503 371.225 C 90.435 372.374,91.936 373.623,93.081 374.201 C 94.166 374.750,95.695 375.599,96.478 376.088 C 98.299 377.227,102.698 378.133,107.740 378.409 C 116.516 378.889,285.031 379.026,289.286 378.557 C 295.136 377.911,298.709 377.113,300.356 376.083 C 301.134 375.596,302.659 374.750,303.744 374.201 C 304.889 373.623,306.390 372.374,307.323 371.225 C 308.206 370.137,309.819 368.523,310.908 367.640 C 312.057 366.708,313.305 365.207,313.884 364.061 C 314.432 362.976,315.279 361.452,315.765 360.674 C 316.796 359.026,317.594 355.452,318.239 349.603 C 318.711 345.322,318.571 49.766,318.093 41.073 C 317.816 36.029,316.909 31.632,315.771 29.811 C 315.281 29.028,314.432 27.500,313.884 26.415 C 313.305 25.269,312.057 23.768,310.908 22.836 C 309.819 21.953,308.206 20.340,307.323 19.251 C 306.390 18.102,304.889 16.854,303.744 16.275 C 302.659 15.726,301.144 14.885,300.377 14.406 C 298.722 13.372,296.575 12.855,290.711 12.082 C 284.727 11.293,110.951 11.313,105.534 12.104 M296.566 13.775 C 297.406 14.019,298.500 14.603,298.999 15.071 C 299.497 15.539,300.721 16.168,301.719 16.468 C 303.005 16.855,304.111 17.627,305.522 19.122 C 307.993 21.739,308.419 22.166,311.037 24.636 C 312.506 26.023,313.305 27.159,313.675 28.386 C 313.966 29.354,314.656 30.682,315.208 31.339 C 316.880 33.326,316.865 31.827,316.865 195.238 C 316.865 358.649,316.880 357.150,315.208 359.138 C 314.656 359.794,313.966 361.122,313.675 362.090 C 313.305 363.317,312.506 364.453,311.037 365.840 C 308.419 368.311,307.993 368.737,305.522 371.354 C 304.135 372.824,302.999 373.623,301.773 373.992 C 300.805 374.283,299.476 374.973,298.820 375.525 C 296.853 377.180,296.729 377.183,198.413 377.183 C 100.097 377.183,99.972 377.180,98.005 375.525 C 97.349 374.973,96.020 374.283,95.053 373.992 C 93.826 373.623,92.690 372.824,91.303 371.354 C 88.832 368.737,88.406 368.311,85.789 365.840 C 84.319 364.453,83.520 363.317,83.151 362.090 C 82.860 361.122,82.170 359.794,81.618 359.138 C 79.945 357.150,79.960 358.649,79.960 195.238 C 79.960 31.827,79.945 33.326,81.618 31.339 C 82.170 30.682,82.860 29.354,83.151 28.386 C 83.520 27.159,84.319 26.023,85.789 24.636 C 88.406 22.166,88.832 21.739,91.303 19.122 C 92.690 17.652,93.826 16.853,95.053 16.484 C 96.020 16.193,97.349 15.503,98.005 14.951 C 99.159 13.980,100.065 13.772,104.960 13.353 C 109.593 12.957,295.160 13.366,296.566 13.775 M5.385 122.846 C 4.455 123.776,4.455 139.716,5.385 140.646 C 5.941 141.201,9.075 141.270,33.911 141.270 L 61.812 141.270 62.051 140.377 C 62.363 139.214,62.363 124.278,62.051 123.115 L 61.812 122.222 33.911 122.222 C 9.075 122.222,5.941 122.291,5.385 122.846 M99.167 157.797 C 98.599 157.896,97.535 158.479,96.802 159.091 L 95.469 160.204 96.510 161.442 C 97.083 162.122,97.672 163.226,97.818 163.893 C 97.965 164.561,98.605 165.491,99.241 165.961 C 99.877 166.431,100.397 167.095,100.398 167.436 C 100.400 168.238,101.912 170.736,102.657 171.167 C 102.974 171.351,103.566 172.277,103.973 173.225 C 104.379 174.173,105.151 175.237,105.688 175.589 C 106.285 175.980,106.767 176.775,106.929 177.634 C 107.084 178.461,107.836 179.738,108.755 180.735 C 109.614 181.667,110.317 182.740,110.317 183.119 C 110.317 183.498,110.837 184.294,111.472 184.887 C 112.108 185.481,113.108 187.115,113.696 188.519 C 114.284 189.923,114.952 191.300,115.180 191.580 C 115.478 191.946,115.416 192.224,114.958 192.572 C 114.608 192.838,113.976 193.874,113.553 194.874 C 113.130 195.874,112.317 197.196,111.747 197.811 C 111.177 198.427,110.505 199.615,110.254 200.451 C 110.003 201.288,109.365 202.257,108.834 202.605 C 108.304 202.952,107.600 203.883,107.270 204.674 C 106.939 205.464,106.076 206.835,105.351 207.720 C 104.626 208.605,103.913 209.802,103.768 210.381 C 103.623 210.959,103.059 211.851,102.514 212.363 C 101.970 212.874,101.163 214.133,100.722 215.159 C 100.280 216.186,99.506 217.296,99.002 217.626 C 98.497 217.957,97.964 218.776,97.817 219.447 C 97.669 220.119,96.856 221.468,96.010 222.446 C 91.133 228.080,93.306 230.024,104.048 229.638 C 110.639 229.401,111.752 229.121,112.132 227.606 C 112.262 227.087,112.814 226.244,113.359 225.733 C 113.903 225.221,114.710 223.963,115.151 222.936 C 115.593 221.910,116.367 220.799,116.871 220.469 C 117.376 220.139,117.909 219.319,118.056 218.648 C 118.204 217.977,119.015 216.629,119.859 215.654 C 120.703 214.678,121.509 213.266,121.650 212.515 C 121.805 211.690,122.297 210.894,122.891 210.504 C 123.433 210.149,124.131 209.248,124.443 208.501 C 125.163 206.778,125.684 206.784,126.411 208.524 C 126.729 209.284,127.434 210.197,127.978 210.554 C 128.523 210.910,128.969 211.494,128.970 211.851 C 128.972 212.677,130.471 215.173,131.228 215.612 C 131.546 215.795,132.138 216.721,132.544 217.669 C 132.951 218.618,133.723 219.681,134.260 220.033 C 134.857 220.424,135.339 221.219,135.500 222.078 C 135.652 222.888,136.404 224.183,137.274 225.135 C 138.105 226.043,138.910 227.188,139.062 227.679 C 139.564 229.297,140.659 229.529,147.843 229.541 C 155.646 229.555,156.747 229.225,156.745 226.876 C 156.743 225.538,155.470 223.053,154.497 222.490 C 154.186 222.310,153.503 221.194,152.980 220.010 C 152.456 218.826,151.837 217.857,151.604 217.857 C 151.371 217.857,150.759 216.920,150.245 215.774 C 149.730 214.628,148.750 213.166,148.067 212.525 C 147.384 211.884,146.825 211.018,146.825 210.601 C 146.825 210.184,146.311 209.361,145.682 208.774 C 145.052 208.186,144.134 206.768,143.641 205.622 C 143.148 204.476,142.440 203.322,142.067 203.059 C 141.695 202.795,141.022 201.746,140.573 200.728 C 140.124 199.710,139.408 198.691,138.982 198.462 C 138.555 198.234,137.805 197.103,137.315 195.948 C 136.825 194.794,136.054 193.447,135.603 192.956 L 134.782 192.063 135.603 191.171 C 136.054 190.680,136.813 189.361,137.288 188.241 C 137.764 187.121,138.582 185.831,139.106 185.376 C 139.630 184.920,140.178 184.051,140.325 183.444 C 140.472 182.838,141.269 181.598,142.097 180.690 C 142.959 179.744,143.714 178.440,143.865 177.634 C 144.026 176.775,144.508 175.980,145.105 175.589 C 145.642 175.237,146.409 174.187,146.808 173.255 C 147.207 172.323,147.991 171.068,148.550 170.464 C 149.110 169.861,149.778 168.715,150.036 167.918 C 150.295 167.121,151.011 166.022,151.628 165.476 C 152.245 164.931,153.110 163.510,153.550 162.320 C 155.063 158.228,153.190 157.315,143.980 157.657 C 137.402 157.902,136.742 158.125,135.736 160.445 C 135.340 161.357,134.554 162.531,133.988 163.054 C 133.422 163.578,132.751 164.649,132.497 165.435 C 132.242 166.222,131.540 167.312,130.936 167.857 C 130.332 168.403,129.531 169.691,129.156 170.720 C 128.781 171.750,128.063 172.861,127.560 173.190 C 127.057 173.520,126.418 174.419,126.140 175.188 C 125.539 176.852,125.145 176.943,124.517 175.565 C 124.261 175.003,123.574 174.297,122.990 173.994 C 122.234 173.604,121.801 172.940,121.486 171.691 C 121.243 170.726,120.582 169.513,120.018 168.996 C 119.453 168.479,118.658 167.308,118.251 166.395 C 117.844 165.481,117.053 164.434,116.493 164.067 C 115.934 163.701,115.476 163.133,115.476 162.806 C 115.476 161.562,113.723 159.138,112.336 158.465 C 110.930 157.783,101.870 157.323,99.167 157.797 M187.302 157.906 C 182.921 158.190,180.442 158.879,180.095 159.909 C 180.021 160.129,178.889 160.586,177.579 160.924 C 175.857 161.368,174.859 161.905,173.972 162.865 C 173.297 163.595,172.379 164.308,171.931 164.451 C 171.483 164.593,170.904 165.223,170.644 165.852 C 170.383 166.481,169.656 167.209,169.027 167.469 C 168.398 167.729,167.770 168.300,167.631 168.737 C 167.493 169.175,166.792 170.182,166.076 170.976 C 165.359 171.771,164.540 173.224,164.256 174.206 C 163.972 175.188,163.249 176.565,162.650 177.265 C 161.514 178.593,161.333 179.411,160.910 185.119 C 160.781 186.865,160.387 189.499,160.034 190.972 C 159.445 193.437,159.445 193.864,160.034 196.329 C 160.387 197.803,160.781 200.437,160.910 202.183 C 161.332 207.872,161.516 208.710,162.640 210.037 C 163.233 210.737,163.944 212.202,164.218 213.294 C 164.554 214.627,165.152 215.680,166.043 216.504 C 166.771 217.179,167.483 218.097,167.625 218.545 C 167.767 218.993,168.398 219.572,169.027 219.833 C 169.656 220.093,170.383 220.821,170.644 221.449 C 170.904 222.078,171.475 222.706,171.912 222.845 C 172.349 222.984,173.359 223.687,174.157 224.407 C 175.001 225.170,176.543 225.989,177.849 226.369 C 179.083 226.728,180.309 227.282,180.574 227.602 C 182.740 230.212,203.709 230.354,207.615 227.785 C 208.556 227.166,210.086 226.458,211.015 226.211 C 211.944 225.964,213.221 225.278,213.854 224.686 C 214.486 224.095,215.747 223.166,216.656 222.622 C 217.564 222.078,218.818 220.828,219.442 219.844 C 220.562 218.078,221.177 217.350,222.387 216.358 C 222.728 216.079,223.121 215.365,223.261 214.771 C 223.401 214.177,223.934 213.239,224.446 212.687 C 225.614 211.428,226.035 210.148,226.596 206.151 C 226.841 204.405,227.430 202.262,227.906 201.389 C 229.121 199.157,229.217 188.148,228.037 186.347 C 227.634 185.732,226.966 183.349,226.551 181.050 C 225.817 176.978,225.567 176.341,224.134 174.899 C 223.754 174.516,223.250 173.489,223.015 172.616 C 222.770 171.706,222.178 170.761,221.627 170.400 C 221.098 170.054,220.549 169.403,220.407 168.954 C 220.002 167.680,217.180 164.825,215.764 164.258 C 215.060 163.976,214.038 163.235,213.492 162.610 C 212.845 161.869,211.758 161.281,210.367 160.919 C 209.195 160.613,207.855 160.007,207.391 159.571 C 205.735 158.015,196.898 157.283,187.302 157.906 M238.614 157.950 C 235.525 158.911,235.714 156.576,235.714 193.651 C 235.714 233.518,234.800 229.755,244.484 229.760 C 252.325 229.764,251.984 230.487,251.984 213.830 L 251.984 201.190 255.682 201.190 C 259.375 201.190,259.384 201.193,261.499 202.771 C 262.664 203.640,263.927 204.450,264.305 204.570 C 264.684 204.690,265.201 205.289,265.455 205.900 C 265.708 206.512,266.446 207.593,267.095 208.303 C 267.743 209.014,268.629 210.290,269.063 211.141 C 269.497 211.991,270.284 212.970,270.813 213.317 C 271.342 213.664,271.892 214.477,272.034 215.125 C 272.176 215.773,272.991 217.110,273.845 218.096 C 274.698 219.083,275.397 220.170,275.397 220.513 C 275.397 220.856,275.996 221.702,276.728 222.392 C 277.461 223.083,278.277 224.306,278.543 225.111 C 279.837 229.034,282.921 230.048,292.252 229.620 C 299.957 229.267,301.291 227.824,297.824 223.593 C 297.099 222.708,296.235 221.337,295.905 220.547 C 295.575 219.756,294.862 218.820,294.322 218.466 C 293.708 218.063,293.177 217.176,292.906 216.101 C 292.668 215.155,292.011 213.958,291.446 213.441 C 290.881 212.923,290.086 211.753,289.679 210.839 C 289.272 209.926,288.502 208.892,287.968 208.542 C 287.435 208.192,286.898 207.405,286.775 206.792 C 286.636 206.099,285.201 204.305,282.983 202.053 C 281.020 200.060,279.579 198.327,279.781 198.203 C 279.982 198.078,281.147 197.813,282.370 197.614 C 284.042 197.342,284.966 196.915,286.101 195.889 C 286.932 195.139,287.978 194.409,288.428 194.266 C 288.877 194.124,289.358 193.652,289.496 193.217 C 289.634 192.783,290.425 191.756,291.254 190.936 C 292.363 189.838,292.836 188.977,293.045 187.678 C 293.202 186.707,293.761 185.164,294.287 184.249 C 296.102 181.096,295.972 174.116,294.059 172.024 C 293.660 171.587,293.125 170.207,292.871 168.957 C 292.536 167.312,292.081 166.380,291.225 165.584 C 290.575 164.979,289.693 163.925,289.265 163.242 C 288.768 162.450,287.733 161.680,286.406 161.116 C 285.262 160.631,283.968 159.906,283.532 159.506 C 283.095 159.106,281.935 158.578,280.952 158.332 C 278.589 157.741,240.397 157.397,238.614 157.950 M110.429 158.868 C 111.753 159.422,114.683 162.367,114.683 163.143 C 114.683 163.387,115.219 164.196,115.874 164.942 C 116.529 165.689,117.508 167.173,118.049 168.241 C 118.590 169.308,119.218 170.296,119.444 170.437 C 119.671 170.577,120.284 171.527,120.807 172.548 C 121.331 173.569,122.592 175.208,123.611 176.190 L 125.463 177.976 126.124 177.049 C 126.488 176.539,127.346 175.467,128.030 174.668 C 128.714 173.868,129.557 172.535,129.903 171.705 C 130.250 170.875,131.074 169.539,131.735 168.738 C 132.396 167.936,132.937 167.059,132.937 166.788 C 132.937 166.518,133.517 165.638,134.226 164.833 C 134.936 164.028,135.962 162.459,136.508 161.347 C 137.800 158.715,139.346 158.262,146.518 158.420 C 153.599 158.577,154.932 160.438,151.005 164.683 C 150.500 165.228,149.702 166.442,149.232 167.380 C 148.762 168.319,148.134 169.180,147.836 169.294 C 147.539 169.408,146.917 170.380,146.455 171.455 C 145.993 172.529,145.121 173.989,144.518 174.700 C 143.914 175.411,143.216 176.467,142.966 177.047 C 142.715 177.627,141.874 178.936,141.096 179.955 C 140.319 180.973,139.683 182.047,139.683 182.341 C 139.683 182.635,139.191 183.454,138.591 184.162 C 137.567 185.369,136.500 187.060,134.542 190.575 L 133.714 192.063 134.542 193.552 C 136.627 197.296,137.591 198.795,138.790 200.153 C 139.499 200.957,140.079 201.859,140.079 202.157 C 140.079 202.454,140.794 203.649,141.667 204.811 C 142.540 205.972,143.254 207.111,143.254 207.341 C 143.254 207.571,143.794 208.351,144.453 209.073 C 145.113 209.795,145.891 210.951,146.182 211.642 C 146.472 212.332,147.361 213.673,148.157 214.621 C 148.952 215.569,149.603 216.590,149.603 216.889 C 149.603 217.188,150.115 218.019,150.740 218.736 C 151.366 219.453,152.283 220.843,152.778 221.825 C 153.273 222.808,154.190 224.198,154.815 224.915 C 157.417 227.897,155.981 228.770,148.470 228.770 C 141.137 228.770,140.859 228.688,139.309 226.094 C 138.099 224.068,137.256 222.773,135.427 220.126 C 134.942 219.424,134.049 217.983,133.443 216.924 C 132.837 215.865,131.761 214.285,131.052 213.414 C 130.342 212.543,129.762 211.594,129.762 211.307 C 129.762 210.699,125.887 205.952,125.391 205.952 C 124.928 205.952,121.639 210.334,120.658 212.256 C 120.215 213.124,119.667 213.949,119.441 214.089 C 119.215 214.229,118.513 215.368,117.881 216.620 C 117.249 217.872,116.436 219.142,116.075 219.442 C 115.714 219.741,115.054 220.713,114.609 221.600 C 114.164 222.488,113.471 223.574,113.069 224.013 C 112.668 224.453,112.073 225.449,111.748 226.227 C 110.745 228.629,110.447 228.727,103.596 228.901 C 94.963 229.121,92.965 227.971,95.979 224.518 C 96.605 223.801,97.573 222.310,98.131 221.205 C 98.688 220.100,99.440 218.951,99.802 218.651 C 100.163 218.351,100.888 217.259,101.412 216.224 C 101.937 215.189,102.552 214.227,102.779 214.086 C 103.006 213.946,103.710 212.807,104.342 211.554 C 104.974 210.302,105.792 209.028,106.160 208.722 C 106.528 208.417,107.228 207.267,107.716 206.167 C 108.203 205.067,108.912 203.910,109.292 203.596 C 109.672 203.283,110.422 202.158,110.960 201.098 C 111.497 200.037,112.181 199.075,112.479 198.961 C 112.778 198.846,113.414 197.828,113.893 196.698 C 114.373 195.568,115.215 194.164,115.765 193.578 C 117.026 192.234,116.792 190.449,115.069 188.281 C 114.420 187.464,113.889 186.597,113.889 186.354 C 113.888 186.111,113.263 185.211,112.500 184.353 C 111.736 183.494,111.111 182.571,111.111 182.300 C 111.111 182.029,110.498 181.003,109.748 180.021 C 108.999 179.040,108.081 177.642,107.708 176.916 C 107.336 176.189,106.601 175.080,106.076 174.451 C 105.551 173.822,104.748 172.572,104.293 171.673 C 103.837 170.775,102.953 169.453,102.328 168.736 C 101.702 168.019,101.190 167.188,101.190 166.889 C 101.190 166.590,100.579 165.613,99.832 164.719 C 97.313 161.704,97.160 159.615,99.391 158.711 C 100.760 158.156,109.009 158.273,110.429 158.868 M201.246 158.956 C 203.071 159.299,204.921 159.807,205.357 160.086 C 205.794 160.364,207.357 160.991,208.831 161.480 C 210.306 161.968,212.222 162.933,213.090 163.624 C 217.775 167.356,219.048 168.447,219.048 168.731 C 219.048 168.904,219.687 169.753,220.469 170.618 C 221.250 171.484,222.224 173.071,222.632 174.146 C 223.041 175.220,223.811 176.742,224.344 177.527 C 225.030 178.538,225.452 179.971,225.791 182.434 C 226.054 184.347,226.519 186.703,226.825 187.670 C 227.572 190.030,227.553 197.154,226.794 199.767 C 226.472 200.877,226.007 203.351,225.760 205.264 C 225.458 207.618,225.032 209.158,224.444 210.026 C 223.966 210.732,223.256 212.109,222.866 213.087 C 222.475 214.064,221.458 215.671,220.606 216.658 C 219.753 217.645,218.384 219.225,217.564 220.168 C 216.743 221.112,215.536 222.159,214.881 222.495 C 214.226 222.831,213.244 223.522,212.698 224.030 C 207.870 228.524,189.783 230.462,182.911 227.221 C 181.725 226.662,180.040 226.026,179.167 225.809 C 175.130 224.804,166.079 216.150,164.872 212.141 C 164.593 211.213,163.905 209.575,163.343 208.500 C 160.613 203.279,160.587 184.073,163.302 178.881 C 163.841 177.849,164.517 176.331,164.803 175.506 C 166.378 170.975,174.539 162.869,178.895 161.509 C 180.136 161.121,182.027 160.406,183.098 159.920 C 186.492 158.378,195.592 157.895,201.246 158.956 M278.968 159.200 C 280.169 159.518,281.508 159.978,281.944 160.222 C 282.381 160.466,283.740 161.102,284.966 161.635 C 289.379 163.556,294.048 171.815,294.048 177.701 C 294.048 178.916,292.692 185.497,291.989 187.698 C 290.939 190.983,284.892 195.995,280.643 197.101 C 277.110 198.021,277.105 197.989,281.513 202.478 C 283.715 204.720,285.832 207.089,286.219 207.742 C 286.606 208.394,287.498 209.753,288.203 210.762 C 289.495 212.610,290.235 213.785,292.080 216.912 C 292.635 217.853,293.475 219.033,293.946 219.535 C 294.418 220.037,295.101 221.159,295.464 222.029 C 295.827 222.899,296.639 224.198,297.269 224.915 C 300.068 228.104,297.240 229.248,287.393 228.909 L 283.365 228.770 281.531 226.984 C 280.522 226.002,279.367 224.561,278.965 223.783 C 278.562 223.004,277.923 222.112,277.544 221.799 C 277.166 221.486,276.459 220.337,275.974 219.246 C 275.489 218.155,274.696 216.905,274.210 216.468 C 273.725 216.032,273.003 215.038,272.606 214.259 C 272.208 213.481,271.589 212.599,271.228 212.300 C 270.868 212.001,270.149 210.919,269.630 209.895 C 267.857 206.397,262.881 201.499,260.400 200.810 C 258.333 200.236,252.260 200.280,251.667 200.873 C 251.316 201.224,251.190 204.731,251.190 214.185 L 251.190 227.020 250.185 228.026 C 248.841 229.369,239.621 229.361,238.136 228.014 L 237.302 227.258 237.302 193.651 C 237.302 157.157,237.172 159.440,239.286 158.596 C 240.642 158.054,276.719 158.604,278.968 159.200 M187.698 172.778 C 186.716 173.337,184.988 174.229,183.857 174.760 C 182.526 175.385,181.583 176.148,181.181 176.926 C 180.839 177.586,180.198 178.380,179.755 178.690 C 178.402 179.638,175.390 190.046,175.403 193.729 C 175.416 197.581,178.182 206.817,179.769 208.311 C 180.362 208.869,181.154 209.809,181.529 210.399 C 181.909 210.997,183.734 212.304,185.649 213.351 C 195.112 218.519,205.950 214.782,210.554 204.762 L 212.103 201.389 212.103 193.651 L 212.103 185.913 210.516 182.485 C 208.406 177.928,205.846 175.212,201.234 172.636 C 199.148 171.470,189.822 171.568,187.698 172.778 M251.687 172.280 C 250.921 173.049,250.988 185.846,251.762 186.488 C 252.182 186.837,255.213 186.928,263.276 186.834 L 274.218 186.706 275.503 185.317 C 276.209 184.554,277.206 183.657,277.717 183.325 C 278.495 182.822,278.683 182.287,278.860 180.086 C 279.156 176.396,278.898 175.760,276.298 173.774 L 274.008 172.024 263.095 171.903 C 254.741 171.811,252.066 171.899,251.687 172.280 M200.992 174.206 C 202.650 175.079,204.244 175.794,204.534 175.794 C 204.825 175.794,205.278 176.314,205.541 176.950 C 205.805 177.586,206.519 178.313,207.129 178.566 C 208.064 178.953,208.316 179.396,208.744 181.413 C 209.022 182.727,209.714 184.455,210.280 185.254 C 211.269 186.649,211.314 186.956,211.433 193.056 L 211.557 199.405 210.398 201.587 C 209.761 202.788,208.998 204.722,208.703 205.886 C 208.285 207.535,207.916 208.132,207.030 208.590 C 206.405 208.913,205.717 209.684,205.501 210.302 C 205.198 211.174,204.736 211.520,203.444 211.845 C 202.528 212.076,200.933 212.825,199.899 213.510 C 197.406 215.161,190.507 215.201,188.777 213.575 C 188.246 213.075,187.116 212.474,186.268 212.239 C 184.776 211.827,183.461 210.682,180.096 206.860 C 178.779 205.364,178.617 204.923,178.357 202.109 C 178.199 200.404,177.827 198.204,177.531 197.222 C 176.847 194.952,176.846 192.356,177.528 190.079 C 177.823 189.097,178.193 186.960,178.350 185.330 C 178.668 182.038,178.854 181.561,180.537 179.719 C 181.179 179.016,181.909 177.945,182.160 177.339 C 182.514 176.485,183.146 176.058,184.977 175.440 C 186.276 175.002,187.879 174.187,188.541 173.631 C 190.694 171.820,197.015 172.112,200.992 174.206 M274.351 173.985 C 275.267 174.736,276.523 175.543,277.140 175.778 C 278.572 176.322,278.613 181.496,277.192 182.309 C 276.779 182.545,275.647 183.452,274.676 184.325 L 272.912 185.913 262.448 186.030 L 251.984 186.148 251.984 179.384 L 251.984 172.619 262.334 172.619 L 272.684 172.619 274.351 173.985 M334.774 186.607 C 334.462 187.770,334.462 202.706,334.774 203.869 L 335.013 204.762 362.915 204.762 C 387.751 204.762,390.885 204.693,391.440 204.138 C 392.370 203.208,392.370 187.268,391.440 186.338 C 390.885 185.783,387.751 185.714,362.915 185.714 L 335.013 185.714 334.774 186.607 M5.385 249.830 C 4.455 250.760,4.455 266.700,5.385 267.630 C 5.941 268.185,9.075 268.254,33.911 268.254 L 61.812 268.254 62.051 267.361 C 62.363 266.198,62.363 251.262,62.051 250.099 L 61.812 249.206 33.911 249.206 C 9.075 249.206,5.941 249.275,5.385 249.830 " stroke="none" fill="#a2a2a2" fill-rule="evenodd"></path><path id="path3" d="M104.960 13.353 C 100.065 13.772,99.159 13.980,98.005 14.951 C 97.349 15.503,96.020 16.193,95.053 16.484 C 93.826 16.853,92.690 17.652,91.303 19.122 C 88.832 21.739,88.406 22.166,85.789 24.636 C 84.319 26.023,83.520 27.159,83.151 28.386 C 82.860 29.354,82.170 30.682,81.618 31.339 C 79.945 33.326,79.960 31.827,79.960 195.238 C 79.960 358.649,79.945 357.150,81.618 359.138 C 82.170 359.794,82.860 361.122,83.151 362.090 C 83.520 363.317,84.319 364.453,85.789 365.840 C 88.406 368.311,88.832 368.737,91.303 371.354 C 92.690 372.824,93.826 373.623,95.053 373.992 C 96.020 374.283,97.349 374.973,98.005 375.525 C 99.972 377.180,100.097 377.183,198.413 377.183 C 296.729 377.183,296.853 377.180,298.820 375.525 C 299.476 374.973,300.805 374.283,301.773 373.992 C 302.999 373.623,304.135 372.824,305.522 371.354 C 307.993 368.737,308.419 368.311,311.037 365.840 C 312.506 364.453,313.305 363.317,313.675 362.090 C 313.966 361.122,314.656 359.794,315.208 359.138 C 316.880 357.150,316.865 358.649,316.865 195.238 C 316.865 31.827,316.880 33.326,315.208 31.339 C 314.656 30.682,313.966 29.354,313.675 28.386 C 313.305 27.159,312.506 26.023,311.037 24.636 C 308.419 22.166,307.993 21.739,305.522 19.122 C 304.111 17.627,303.005 16.855,301.719 16.468 C 300.721 16.168,299.497 15.539,298.999 15.071 C 298.500 14.603,297.406 14.019,296.566 13.775 C 295.160 13.366,109.593 12.957,104.960 13.353 M112.336 158.465 C 113.723 159.138,115.476 161.562,115.476 162.806 C 115.476 163.133,115.934 163.701,116.493 164.067 C 117.053 164.434,117.844 165.481,118.251 166.395 C 118.658 167.308,119.453 168.479,120.018 168.996 C 120.582 169.513,121.243 170.726,121.486 171.691 C 121.801 172.940,122.234 173.604,122.990 173.994 C 123.574 174.297,124.261 175.003,124.517 175.565 C 125.145 176.943,125.539 176.852,126.140 175.188 C 126.418 174.419,127.057 173.520,127.560 173.190 C 128.063 172.861,128.781 171.750,129.156 170.720 C 129.531 169.691,130.332 168.403,130.936 167.857 C 131.540 167.312,132.242 166.222,132.497 165.435 C 132.751 164.649,133.422 163.578,133.988 163.054 C 134.554 162.531,135.340 161.357,135.736 160.445 C 136.742 158.125,137.402 157.902,143.980 157.657 C 153.190 157.315,155.063 158.228,153.550 162.320 C 153.110 163.510,152.245 164.931,151.628 165.476 C 151.011 166.022,150.295 167.121,150.036 167.918 C 149.778 168.715,149.110 169.861,148.550 170.464 C 147.991 171.068,147.207 172.323,146.808 173.255 C 146.409 174.187,145.642 175.237,145.105 175.589 C 144.508 175.980,144.026 176.775,143.865 177.634 C 143.714 178.440,142.959 179.744,142.097 180.690 C 141.269 181.598,140.472 182.838,140.325 183.444 C 140.178 184.051,139.630 184.920,139.106 185.376 C 138.582 185.831,137.764 187.121,137.288 188.241 C 136.813 189.361,136.054 190.680,135.603 191.171 L 134.782 192.063 135.603 192.956 C 136.054 193.447,136.825 194.794,137.315 195.948 C 137.805 197.103,138.555 198.234,138.982 198.462 C 139.408 198.691,140.124 199.710,140.573 200.728 C 141.022 201.746,141.695 202.795,142.067 203.059 C 142.440 203.322,143.148 204.476,143.641 205.622 C 144.134 206.768,145.052 208.186,145.682 208.774 C 146.311 209.361,146.825 210.184,146.825 210.601 C 146.825 211.018,147.384 211.884,148.067 212.525 C 148.750 213.166,149.730 214.628,150.245 215.774 C 150.759 216.920,151.371 217.857,151.604 217.857 C 151.837 217.857,152.456 218.826,152.980 220.010 C 153.503 221.194,154.186 222.310,154.497 222.490 C 155.470 223.053,156.743 225.538,156.745 226.876 C 156.747 229.225,155.646 229.555,147.843 229.541 C 140.659 229.529,139.564 229.297,139.062 227.679 C 138.910 227.188,138.105 226.043,137.274 225.135 C 136.404 224.183,135.652 222.888,135.500 222.078 C 135.339 221.219,134.857 220.424,134.260 220.033 C 133.723 219.681,132.951 218.618,132.544 217.669 C 132.138 216.721,131.546 215.795,131.228 215.612 C 130.471 215.173,128.972 212.677,128.970 211.851 C 128.969 211.494,128.523 210.910,127.978 210.554 C 127.434 210.197,126.729 209.284,126.411 208.524 C 125.684 206.784,125.163 206.778,124.443 208.501 C 124.131 209.248,123.433 210.149,122.891 210.504 C 122.297 210.894,121.805 211.690,121.650 212.515 C 121.509 213.266,120.703 214.678,119.859 215.654 C 119.015 216.629,118.204 217.977,118.056 218.648 C 117.909 219.319,117.376 220.139,116.871 220.469 C 116.367 220.799,115.593 221.910,115.151 222.936 C 114.710 223.963,113.903 225.221,113.359 225.733 C 112.814 226.244,112.262 227.087,112.132 227.606 C 111.752 229.121,110.639 229.401,104.048 229.638 C 93.306 230.024,91.133 228.080,96.010 222.446 C 96.856 221.468,97.669 220.119,97.817 219.447 C 97.964 218.776,98.497 217.957,99.002 217.626 C 99.506 217.296,100.280 216.186,100.722 215.159 C 101.163 214.133,101.970 212.874,102.514 212.363 C 103.059 211.851,103.623 210.959,103.768 210.381 C 103.913 209.802,104.626 208.605,105.351 207.720 C 106.076 206.835,106.939 205.464,107.270 204.674 C 107.600 203.883,108.304 202.952,108.834 202.605 C 109.365 202.257,110.003 201.288,110.254 200.451 C 110.505 199.615,111.177 198.427,111.747 197.811 C 112.317 197.196,113.130 195.874,113.553 194.874 C 113.976 193.874,114.608 192.838,114.958 192.572 C 115.416 192.224,115.478 191.946,115.180 191.580 C 114.952 191.300,114.284 189.923,113.696 188.519 C 113.108 187.115,112.108 185.481,111.472 184.887 C 110.837 184.294,110.317 183.498,110.317 183.119 C 110.317 182.740,109.614 181.667,108.755 180.735 C 107.836 179.738,107.084 178.461,106.929 177.634 C 106.767 176.775,106.285 175.980,105.688 175.589 C 105.151 175.237,104.379 174.173,103.973 173.225 C 103.566 172.277,102.974 171.351,102.657 171.167 C 101.912 170.736,100.400 168.238,100.398 167.436 C 100.397 167.095,99.877 166.431,99.241 165.961 C 98.605 165.491,97.965 164.561,97.818 163.893 C 97.672 163.226,97.083 162.122,96.510 161.442 L 95.469 160.204 96.802 159.091 C 98.867 157.367,109.214 156.950,112.336 158.465 M204.762 158.379 C 205.744 158.598,206.927 159.135,207.391 159.571 C 207.855 160.007,209.195 160.613,210.367 160.919 C 211.758 161.281,212.845 161.869,213.492 162.610 C 214.038 163.235,215.060 163.976,215.764 164.258 C 217.180 164.825,220.002 167.680,220.407 168.954 C 220.549 169.403,221.098 170.054,221.627 170.400 C 222.178 170.761,222.770 171.706,223.015 172.616 C 223.250 173.489,223.754 174.516,224.134 174.899 C 225.567 176.341,225.817 176.978,226.551 181.050 C 226.966 183.349,227.634 185.732,228.037 186.347 C 229.217 188.148,229.121 199.157,227.906 201.389 C 227.430 202.262,226.841 204.405,226.596 206.151 C 226.035 210.148,225.614 211.428,224.446 212.687 C 223.934 213.239,223.401 214.177,223.261 214.771 C 223.121 215.365,222.728 216.079,222.387 216.358 C 221.177 217.350,220.562 218.078,219.442 219.844 C 218.818 220.828,217.564 222.078,216.656 222.622 C 215.747 223.166,214.486 224.095,213.854 224.686 C 213.221 225.278,211.944 225.964,211.015 226.211 C 210.086 226.458,208.556 227.166,207.615 227.785 C 203.709 230.354,182.740 230.212,180.574 227.602 C 180.309 227.282,179.083 226.728,177.849 226.369 C 176.543 225.989,175.001 225.170,174.157 224.407 C 173.359 223.687,172.349 222.984,171.912 222.845 C 171.475 222.706,170.904 222.078,170.644 221.449 C 170.383 220.821,169.656 220.093,169.027 219.833 C 168.398 219.572,167.767 218.993,167.625 218.545 C 167.483 218.097,166.771 217.179,166.043 216.504 C 165.152 215.680,164.554 214.627,164.218 213.294 C 163.944 212.202,163.233 210.737,162.640 210.037 C 161.516 208.710,161.332 207.872,160.910 202.183 C 160.781 200.437,160.387 197.803,160.034 196.329 C 159.445 193.864,159.445 193.437,160.034 190.972 C 160.387 189.499,160.781 186.865,160.910 185.119 C 161.333 179.411,161.514 178.593,162.650 177.265 C 163.249 176.565,163.972 175.188,164.256 174.206 C 164.540 173.224,165.359 171.771,166.076 170.976 C 166.792 170.182,167.493 169.175,167.631 168.737 C 167.770 168.300,168.398 167.729,169.027 167.469 C 169.656 167.209,170.383 166.481,170.644 165.852 C 170.904 165.223,171.483 164.593,171.931 164.451 C 172.379 164.308,173.297 163.595,173.972 162.865 C 174.859 161.905,175.857 161.368,177.579 160.924 C 178.889 160.586,180.021 160.129,180.095 159.909 C 180.779 157.876,197.793 156.821,204.762 158.379 M280.952 158.332 C 281.935 158.578,283.095 159.106,283.532 159.506 C 283.968 159.906,285.262 160.631,286.406 161.116 C 287.733 161.680,288.768 162.450,289.265 163.242 C 289.693 163.925,290.575 164.979,291.225 165.584 C 292.081 166.380,292.536 167.312,292.871 168.957 C 293.125 170.207,293.660 171.587,294.059 172.024 C 295.972 174.116,296.102 181.096,294.287 184.249 C 293.761 185.164,293.202 186.707,293.045 187.678 C 292.836 188.977,292.363 189.838,291.254 190.936 C 290.425 191.756,289.634 192.783,289.496 193.217 C 289.358 193.652,288.877 194.124,288.428 194.266 C 287.978 194.409,286.932 195.139,286.101 195.889 C 284.966 196.915,284.042 197.342,282.370 197.614 C 281.147 197.813,279.982 198.078,279.781 198.203 C 279.579 198.327,281.020 200.060,282.983 202.053 C 285.201 204.305,286.636 206.099,286.775 206.792 C 286.898 207.405,287.435 208.192,287.968 208.542 C 288.502 208.892,289.272 209.926,289.679 210.839 C 290.086 211.753,290.881 212.923,291.446 213.441 C 292.011 213.958,292.668 215.155,292.906 216.101 C 293.177 217.176,293.708 218.063,294.322 218.466 C 294.862 218.820,295.575 219.756,295.905 220.547 C 296.235 221.337,297.099 222.708,297.824 223.593 C 301.291 227.824,299.957 229.267,292.252 229.620 C 282.921 230.048,279.837 229.034,278.543 225.111 C 278.277 224.306,277.461 223.083,276.728 222.392 C 275.996 221.702,275.397 220.856,275.397 220.513 C 275.397 220.170,274.698 219.083,273.845 218.096 C 272.991 217.110,272.176 215.773,272.034 215.125 C 271.892 214.477,271.342 213.664,270.813 213.317 C 270.284 212.970,269.497 211.991,269.063 211.141 C 268.629 210.290,267.743 209.014,267.095 208.303 C 266.446 207.593,265.708 206.512,265.455 205.900 C 265.201 205.289,264.684 204.690,264.305 204.570 C 263.927 204.450,262.664 203.640,261.499 202.771 C 259.384 201.193,259.375 201.190,255.682 201.190 L 251.984 201.190 251.984 213.830 C 251.984 230.487,252.325 229.764,244.484 229.760 C 234.800 229.755,235.714 233.518,235.714 193.651 C 235.714 156.576,235.525 158.911,238.614 157.950 C 240.397 157.397,278.589 157.741,280.952 158.332 M188.541 173.631 C 187.879 174.187,186.276 175.002,184.977 175.440 C 183.146 176.058,182.514 176.485,182.160 177.339 C 181.909 177.945,181.179 179.016,180.537 179.719 C 178.854 181.561,178.668 182.038,178.350 185.330 C 178.193 186.960,177.823 189.097,177.528 190.079 C 176.846 192.356,176.847 194.952,177.531 197.222 C 177.827 198.204,178.199 200.404,178.357 202.109 C 178.617 204.923,178.779 205.364,180.096 206.860 C 183.461 210.682,184.776 211.827,186.268 212.239 C 187.116 212.474,188.246 213.075,188.777 213.575 C 190.507 215.201,197.406 215.161,199.899 213.510 C 200.933 212.825,202.528 212.076,203.444 211.845 C 204.736 211.520,205.198 211.174,205.501 210.302 C 205.717 209.684,206.405 208.913,207.030 208.590 C 207.916 208.132,208.285 207.535,208.703 205.886 C 208.998 204.722,209.761 202.788,210.398 201.587 L 211.557 199.405 211.433 193.056 C 211.314 186.956,211.269 186.649,210.280 185.254 C 209.714 184.455,209.022 182.727,208.744 181.413 C 208.316 179.396,208.064 178.953,207.129 178.566 C 206.519 178.313,205.805 177.586,205.541 176.950 C 205.278 176.314,204.825 175.794,204.534 175.794 C 204.244 175.794,202.650 175.079,200.992 174.206 C 197.015 172.112,190.694 171.820,188.541 173.631 M251.984 179.384 L 251.984 186.148 262.448 186.030 L 272.912 185.913 274.676 184.325 C 275.647 183.452,276.779 182.545,277.192 182.309 C 278.613 181.496,278.572 176.322,277.140 175.778 C 276.523 175.543,275.267 174.736,274.351 173.985 L 272.684 172.619 262.334 172.619 L 251.984 172.619 251.984 179.384 " stroke="none" fill="#fcfcfc" fill-rule="evenodd"></path><path id="path4" d="M106.376 9.974 C 105.190 10.171,103.681 10.601,103.022 10.929 C 102.363 11.258,100.581 11.732,99.062 11.983 C 97.078 12.311,95.954 12.738,95.074 13.498 C 94.401 14.080,93.257 14.759,92.533 15.005 C 90.774 15.604,82.271 24.107,81.672 25.866 C 81.425 26.590,80.747 27.734,80.165 28.408 C 79.390 29.304,78.977 30.416,78.623 32.554 C 78.358 34.160,77.979 35.670,77.782 35.908 C 76.936 36.927,76.633 39.781,77.216 41.238 C 77.740 42.547,77.721 42.801,76.989 44.236 C 76.193 45.798,76.190 46.250,76.190 196.874 C 76.190 355.060,76.166 352.622,77.751 354.531 C 77.965 354.790,78.358 356.316,78.623 357.922 C 78.977 360.061,79.390 361.172,80.165 362.069 C 80.747 362.742,81.425 363.886,81.672 364.610 C 82.271 366.369,90.774 374.872,92.533 375.471 C 93.257 375.717,94.401 376.396,95.074 376.978 C 95.971 377.753,97.082 378.166,99.221 378.519 C 100.827 378.785,102.336 379.163,102.575 379.361 C 103.594 380.207,106.447 380.510,107.905 379.927 C 109.214 379.403,109.468 379.422,110.902 380.153 C 112.459 380.947,113.058 380.952,200.049 380.952 C 291.114 380.952,292.358 380.932,294.213 379.392 C 294.472 379.177,295.998 378.785,297.605 378.519 C 299.743 378.166,300.854 377.753,301.751 376.978 C 302.425 376.396,303.569 375.717,304.293 375.471 C 306.051 374.872,314.555 366.369,315.153 364.610 C 315.400 363.886,316.078 362.742,316.661 362.069 C 317.436 361.172,317.849 360.061,318.202 357.922 C 318.467 356.316,318.860 354.790,319.075 354.531 C 320.659 352.622,320.635 355.060,320.635 196.874 C 320.635 46.250,320.633 45.798,319.836 44.236 C 319.105 42.801,319.085 42.547,319.609 41.238 C 320.192 39.781,319.889 36.927,319.044 35.908 C 318.846 35.670,318.467 34.160,318.202 32.554 C 317.849 30.416,317.436 29.304,316.661 28.408 C 316.078 27.734,315.400 26.590,315.153 25.866 C 314.555 24.107,306.051 15.604,304.293 15.005 C 303.569 14.759,302.425 14.080,301.751 13.498 C 300.854 12.723,299.743 12.310,297.605 11.957 C 295.998 11.691,294.472 11.299,294.213 11.084 C 292.352 9.539,291.274 9.522,198.080 9.570 C 147.031 9.597,107.605 9.770,106.376 9.974 M290.903 11.705 C 296.574 12.520,299.493 13.261,300.785 14.216 C 301.385 14.661,302.540 15.301,303.350 15.639 C 305.232 16.426,313.708 24.867,314.486 26.730 C 314.807 27.496,315.485 28.737,315.993 29.486 C 316.526 30.271,317.193 32.257,317.568 34.174 C 318.528 39.083,318.571 39.539,318.241 41.341 C 318.038 42.448,318.121 43.507,318.493 44.561 C 319.358 47.012,319.320 345.190,318.454 351.221 C 317.639 356.891,316.897 359.811,315.942 361.102 C 315.498 361.703,314.858 362.857,314.519 363.667 C 313.711 365.603,305.285 374.028,303.350 374.837 C 302.540 375.175,301.385 375.816,300.785 376.260 C 299.493 377.215,296.574 377.957,290.903 378.771 C 284.893 379.634,113.669 379.672,111.228 378.811 C 110.173 378.439,109.115 378.356,108.008 378.558 C 106.205 378.888,105.750 378.845,100.841 377.885 C 98.924 377.511,96.938 376.843,96.153 376.311 C 95.403 375.802,94.163 375.124,93.396 374.804 C 91.534 374.025,83.092 365.549,82.306 363.667 C 81.968 362.857,81.327 361.703,80.883 361.102 C 79.928 359.811,79.186 356.891,78.372 351.221 C 77.506 345.190,77.467 47.012,78.332 44.561 C 78.704 43.507,78.787 42.448,78.584 41.341 C 78.255 39.539,78.298 39.083,79.258 34.174 C 79.632 32.257,80.299 30.271,80.832 29.486 C 81.341 28.737,82.019 27.496,82.339 26.730 C 83.095 24.920,91.587 16.429,93.396 15.672 C 94.163 15.352,95.403 14.674,96.153 14.166 C 97.408 13.314,100.513 12.521,106.349 11.564 C 110.499 10.883,286.113 11.017,290.903 11.705 M62.519 123.594 C 62.946 124.618,63.095 126.722,63.095 131.746 C 63.095 136.771,62.946 138.874,62.519 139.898 C 61.947 141.265,61.950 141.274,62.816 140.827 C 65.454 139.468,65.476 139.393,65.476 131.746 C 65.476 124.099,65.454 124.024,62.816 122.665 C 61.950 122.218,61.947 122.227,62.519 123.594 M98.829 159.428 C 97.721 160.326,97.869 161.431,99.378 163.516 C 99.922 164.267,100.806 165.696,101.343 166.692 C 101.880 167.687,102.615 168.748,102.976 169.048 C 103.338 169.348,104.048 170.408,104.555 171.404 C 105.062 172.399,105.874 173.661,106.360 174.206 C 106.846 174.752,107.482 175.757,107.774 176.440 C 108.065 177.123,108.733 178.195,109.256 178.821 C 109.780 179.448,110.577 180.687,111.028 181.574 C 111.478 182.462,112.141 183.432,112.500 183.730 C 112.859 184.028,113.522 184.999,113.972 185.886 C 114.423 186.774,115.198 187.987,115.695 188.582 C 117.096 190.257,117.317 191.950,116.299 193.202 C 115.833 193.776,114.996 195.221,114.440 196.412 C 113.884 197.604,112.907 199.172,112.270 199.898 C 111.633 200.624,111.111 201.384,111.111 201.587 C 111.111 201.790,110.574 202.568,109.917 203.316 C 109.261 204.064,108.370 205.475,107.938 206.452 C 107.506 207.429,106.868 208.465,106.520 208.753 C 106.172 209.042,105.356 210.271,104.707 211.484 C 103.417 213.894,101.390 216.981,99.871 218.851 C 99.338 219.507,98.604 220.757,98.239 221.629 C 97.875 222.501,97.162 223.661,96.654 224.206 C 93.302 227.811,94.382 228.571,102.848 228.571 C 109.970 228.571,110.428 228.439,111.548 226.063 C 112.372 224.313,114.379 221.241,116.002 219.244 C 116.535 218.589,117.269 217.341,117.632 216.472 C 117.995 215.603,118.625 214.532,119.032 214.093 C 119.439 213.653,120.197 212.490,120.716 211.508 C 121.669 209.705,122.311 208.826,124.314 206.587 L 125.414 205.357 127.221 207.341 C 128.214 208.433,129.446 210.140,129.959 211.136 C 130.471 212.132,131.186 213.192,131.548 213.492 C 131.909 213.792,132.620 214.852,133.127 215.848 C 133.634 216.844,134.514 218.194,135.083 218.849 C 135.651 219.504,136.225 220.397,136.358 220.833 C 136.491 221.270,137.070 222.244,137.645 222.998 C 138.220 223.752,139.137 225.179,139.683 226.169 C 140.895 228.369,141.240 228.462,148.424 228.524 C 155.576 228.587,156.918 227.779,154.417 224.915 C 153.792 224.198,152.813 222.686,152.242 221.556 C 151.672 220.425,151.020 219.386,150.794 219.246 C 150.567 219.106,149.953 218.145,149.428 217.110 C 148.904 216.075,148.179 214.983,147.817 214.683 C 147.456 214.383,146.742 213.311,146.230 212.302 C 145.719 211.292,145.004 210.221,144.643 209.921 C 144.281 209.621,143.567 208.549,143.056 207.540 C 142.544 206.530,141.819 205.450,141.445 205.139 C 141.071 204.829,140.427 203.788,140.015 202.826 C 139.603 201.865,138.811 200.523,138.256 199.845 C 133.654 194.226,133.061 191.966,135.317 188.645 C 136.189 187.360,136.903 186.114,136.904 185.875 C 136.904 185.636,137.281 185.100,137.742 184.685 C 138.202 184.269,139.091 182.915,139.717 181.676 C 140.343 180.437,141.042 179.308,141.270 179.167 C 141.498 179.026,142.219 177.852,142.872 176.558 C 143.525 175.265,144.222 174.206,144.421 174.206 C 144.621 174.206,145.267 173.180,145.858 171.925 C 146.449 170.670,147.444 169.056,148.069 168.339 C 148.695 167.622,149.206 166.870,149.206 166.667 C 149.206 166.464,149.729 165.702,150.368 164.974 C 154.497 160.272,153.402 158.730,145.935 158.730 C 138.981 158.730,137.851 159.095,136.646 161.727 C 136.132 162.850,135.335 164.108,134.876 164.523 C 134.417 164.938,133.617 166.113,133.100 167.135 C 132.582 168.156,131.973 169.106,131.746 169.246 C 131.519 169.386,130.867 170.425,130.297 171.556 C 129.727 172.686,128.793 174.177,128.221 174.868 C 127.650 175.559,126.862 176.586,126.470 177.150 C 126.077 177.713,125.567 178.175,125.335 178.175 C 124.634 178.175,121.450 174.528,120.423 172.548 C 119.893 171.527,119.285 170.583,119.071 170.451 C 118.858 170.319,118.115 169.146,117.421 167.844 C 116.727 166.542,116.009 165.476,115.824 165.476 C 115.640 165.476,115.056 164.628,114.526 163.591 C 113.996 162.555,112.913 161.081,112.118 160.317 L 110.673 158.929 105.217 158.801 C 100.331 158.686,99.664 158.752,98.829 159.428 M186.669 159.139 C 185.776 159.316,184.347 159.761,183.495 160.127 C 182.642 160.494,180.726 161.216,179.237 161.732 C 177.748 162.248,175.910 163.168,175.153 163.776 C 172.846 165.628,168.254 170.079,168.250 170.468 C 168.248 170.669,167.633 171.605,166.882 172.549 C 166.132 173.493,165.305 174.921,165.044 175.724 C 164.783 176.526,164.150 177.993,163.636 178.984 C 160.967 184.134,160.907 203.088,163.544 208.115 C 164.008 208.999,164.717 210.675,165.120 211.839 C 165.523 213.003,166.349 214.573,166.954 215.328 C 168.802 217.630,173.254 222.222,173.642 222.226 C 173.843 222.228,174.797 222.857,175.761 223.623 C 176.725 224.389,178.510 225.302,179.729 225.650 C 180.947 225.999,182.927 226.746,184.127 227.311 C 190.399 230.263,207.849 227.898,212.970 223.402 C 213.709 222.753,214.453 222.222,214.625 222.222 C 215.712 222.222,221.549 215.405,222.451 213.081 C 222.830 212.107,223.372 211.035,223.658 210.700 C 227.387 206.314,227.251 179.158,223.488 176.832 C 223.262 176.692,222.770 175.643,222.394 174.499 C 221.486 171.731,216.746 166.198,214.087 164.801 C 213.433 164.457,212.491 163.774,211.995 163.283 C 211.498 162.793,210.248 162.182,209.217 161.927 C 208.185 161.672,206.627 161.123,205.754 160.708 C 201.983 158.913,191.964 158.090,186.669 159.139 M238.580 159.348 L 237.698 159.966 237.698 193.651 L 237.698 227.336 238.580 227.954 C 239.977 228.932,249.232 228.846,250.137 227.846 C 250.720 227.202,250.794 225.667,250.794 214.217 C 250.794 198.968,250.462 199.994,255.388 200.010 C 260.882 200.027,261.832 200.416,265.628 204.213 C 268.228 206.813,268.951 207.737,269.961 209.747 C 270.516 210.852,271.265 212.001,271.625 212.300 C 271.985 212.599,272.605 213.481,273.003 214.259 C 273.400 215.038,274.108 216.021,274.575 216.444 C 275.043 216.867,275.786 218.027,276.226 219.023 C 276.666 220.019,277.443 221.280,277.952 221.825 C 278.461 222.371,279.152 223.362,279.488 224.029 C 279.823 224.695,280.911 225.989,281.905 226.906 L 283.712 228.571 289.853 228.571 C 298.118 228.571,299.437 227.888,296.907 224.915 C 296.296 224.198,295.468 222.857,295.066 221.936 C 294.664 221.015,293.983 219.944,293.553 219.555 C 293.123 219.167,292.348 218.014,291.830 216.992 C 291.312 215.971,290.713 215.028,290.500 214.896 C 290.286 214.764,289.544 213.590,288.850 212.288 C 288.156 210.986,287.438 209.921,287.254 209.921 C 287.071 209.921,286.552 209.198,286.102 208.316 C 285.652 207.433,283.431 204.838,281.167 202.549 C 276.494 197.825,276.499 197.948,280.952 196.685 C 282.153 196.345,283.760 195.597,284.524 195.023 C 285.288 194.449,286.297 193.827,286.767 193.641 C 287.236 193.455,288.129 192.633,288.751 191.814 C 289.372 190.995,290.262 189.941,290.727 189.473 C 293.391 186.793,293.928 174.766,291.637 169.122 C 290.781 167.013,287.002 162.863,285.267 162.126 C 284.313 161.721,282.797 161.054,281.899 160.645 C 278.131 158.929,275.731 158.744,257.132 158.737 C 241.774 158.731,239.347 158.811,238.580 159.348 M111.597 161.315 C 112.494 162.300,113.546 163.818,113.936 164.688 C 114.325 165.558,114.828 166.270,115.054 166.270 C 115.280 166.270,115.985 167.297,116.621 168.552 C 117.257 169.807,118.242 171.266,118.809 171.795 C 119.377 172.324,119.841 173.063,119.841 173.436 C 119.841 174.301,123.084 178.261,124.343 178.935 C 125.631 179.625,126.751 178.997,127.760 177.020 C 128.188 176.181,128.805 175.392,129.132 175.267 C 129.459 175.141,130.116 174.275,130.592 173.341 C 131.069 172.407,131.950 171.014,132.551 170.246 C 133.152 169.478,133.856 168.178,134.115 167.358 C 134.375 166.538,134.931 165.683,135.351 165.458 C 135.771 165.233,136.642 164.005,137.287 162.728 C 138.774 159.782,139.476 159.524,146.012 159.524 C 152.601 159.524,153.075 160.151,149.548 164.200 C 148.924 164.917,148.413 165.851,148.413 166.275 C 148.413 166.698,147.956 167.345,147.397 167.711 C 146.838 168.077,145.867 169.510,145.239 170.895 C 144.611 172.280,143.898 173.413,143.654 173.413 C 143.410 173.413,142.776 174.395,142.245 175.595 C 141.714 176.796,141.091 177.778,140.861 177.778 C 140.631 177.778,139.926 178.870,139.295 180.205 C 138.663 181.540,137.798 183.013,137.372 183.479 C 136.946 183.944,136.217 185.084,135.751 186.012 C 135.285 186.939,134.734 187.698,134.526 187.698 C 133.814 187.698,132.845 190.215,132.845 192.063 C 132.845 193.914,133.814 196.429,134.527 196.429 C 134.736 196.429,135.356 197.315,135.905 198.398 C 136.454 199.482,137.255 200.556,137.684 200.786 C 138.114 201.016,138.655 201.911,138.888 202.775 C 139.121 203.639,139.996 205.138,140.834 206.105 C 141.671 207.073,142.471 208.322,142.611 208.881 C 142.752 209.440,143.214 210.084,143.639 210.311 C 144.064 210.539,144.777 211.549,145.222 212.557 C 145.668 213.565,146.658 215.081,147.421 215.926 C 148.185 216.771,148.810 217.716,148.810 218.026 C 148.810 218.336,149.232 219.095,149.748 219.712 C 150.265 220.329,151.140 221.726,151.693 222.817 C 152.247 223.909,153.161 225.232,153.726 225.759 C 155.495 227.410,154.599 227.778,148.811 227.778 C 141.813 227.778,141.437 227.675,140.472 225.493 C 140.037 224.510,139.057 223.015,138.293 222.169 C 137.530 221.324,136.905 220.300,136.905 219.894 C 136.905 219.488,136.482 218.730,135.965 218.209 C 135.448 217.688,134.573 216.369,134.020 215.278 C 133.467 214.187,132.560 212.869,132.004 212.351 C 131.448 211.832,130.888 210.929,130.760 210.344 C 130.498 209.151,126.249 204.365,125.452 204.365 C 124.543 204.365,120.249 209.334,120.242 210.393 C 120.240 210.761,119.530 211.881,118.664 212.881 C 117.798 213.882,116.874 215.421,116.610 216.302 C 116.346 217.183,115.804 218.078,115.406 218.292 C 115.007 218.505,114.244 219.543,113.708 220.600 C 113.173 221.656,112.479 222.618,112.166 222.739 C 111.852 222.859,111.278 223.819,110.888 224.871 C 109.765 227.911,110.131 227.778,102.915 227.778 C 95.390 227.778,95.027 227.598,97.354 225.022 C 98.129 224.164,98.983 222.726,99.253 221.827 C 99.522 220.927,100.069 220.017,100.467 219.804 C 100.866 219.590,101.641 218.530,102.190 217.446 C 102.739 216.363,103.375 215.476,103.603 215.476 C 103.831 215.476,104.548 214.308,105.195 212.880 C 105.843 211.452,106.621 210.188,106.924 210.072 C 107.227 209.956,107.953 208.852,108.537 207.619 C 109.120 206.386,110.117 204.787,110.751 204.064 C 111.386 203.341,111.905 202.403,111.905 201.979 C 111.905 201.556,112.367 200.906,112.932 200.536 C 113.497 200.165,114.387 198.896,114.909 197.715 C 115.432 196.534,116.328 195.011,116.901 194.330 C 118.400 192.548,118.145 189.435,116.347 187.579 C 115.662 186.873,114.900 185.714,114.652 185.004 C 114.405 184.294,113.871 183.536,113.467 183.320 C 113.062 183.103,112.366 182.101,111.920 181.094 C 111.475 180.086,110.485 178.570,109.722 177.725 C 108.958 176.880,108.333 175.856,108.333 175.450 C 108.333 175.044,107.910 174.285,107.394 173.764 C 106.877 173.244,106.002 171.925,105.449 170.833 C 104.896 169.742,103.989 168.425,103.433 167.907 C 102.877 167.388,102.313 166.469,102.181 165.864 C 102.048 165.260,101.573 164.434,101.126 164.029 C 97.472 160.725,98.469 159.524,104.864 159.524 L 109.967 159.524 111.597 161.315 M201.587 160.548 C 202.788 161.107,204.920 161.831,206.325 162.158 C 209.514 162.898,211.508 163.716,211.508 164.285 C 211.508 164.525,212.178 165.025,212.996 165.396 C 214.611 166.129,218.651 169.792,218.651 170.523 C 218.651 170.771,219.167 171.389,219.797 171.896 C 220.570 172.517,221.153 173.552,221.586 175.073 C 221.940 176.313,222.660 177.840,223.186 178.465 C 225.976 181.781,226.024 205.860,223.247 209.161 C 222.687 209.826,221.951 211.325,221.612 212.493 C 221.206 213.891,220.652 214.840,219.990 215.274 C 219.438 215.636,218.802 216.460,218.577 217.105 C 218.352 217.750,217.657 218.542,217.032 218.865 C 216.408 219.188,215.705 219.811,215.471 220.248 C 215.237 220.686,214.249 221.418,213.276 221.875 C 212.304 222.332,211.508 222.872,211.508 223.074 C 211.508 223.591,208.468 224.824,206.380 225.152 C 205.415 225.304,203.385 225.973,201.868 226.638 C 197.731 228.454,188.904 228.269,184.927 226.284 C 183.511 225.578,181.886 225.000,181.315 225.000 C 179.750 225.000,177.809 224.213,177.375 223.401 C 177.162 223.004,176.030 222.211,174.858 221.637 C 173.618 221.031,172.542 220.187,172.283 219.617 C 172.038 219.079,171.374 218.428,170.807 218.170 C 170.241 217.912,169.453 217.066,169.055 216.291 C 168.658 215.515,167.784 214.192,167.113 213.351 C 166.442 212.510,165.780 211.170,165.642 210.375 C 165.504 209.579,164.856 207.857,164.203 206.548 C 161.723 201.578,161.723 185.724,164.203 180.754 C 164.856 179.444,165.508 177.701,165.651 176.879 C 165.804 176.000,166.415 174.870,167.134 174.134 C 167.807 173.446,168.686 172.140,169.087 171.233 C 169.502 170.296,170.254 169.384,170.827 169.123 C 171.383 168.870,172.041 168.215,172.291 167.667 C 172.540 167.120,173.653 166.136,174.765 165.481 C 175.876 164.827,177.232 163.934,177.778 163.498 C 178.323 163.063,179.746 162.523,180.939 162.299 C 182.131 162.076,183.870 161.524,184.803 161.072 C 187.564 159.735,188.433 159.593,194.048 159.562 C 198.998 159.534,199.570 159.609,201.587 160.548 M276.984 160.354 C 279.457 161.265,282.216 162.119,283.837 162.475 C 284.998 162.731,287.347 164.925,289.723 167.972 C 292.832 171.960,292.817 185.925,289.701 188.838 C 289.087 189.412,288.302 190.440,287.957 191.124 C 287.605 191.822,286.901 192.475,286.354 192.612 C 285.817 192.747,284.556 193.485,283.550 194.253 C 282.433 195.106,280.916 195.817,279.650 196.082 C 277.744 196.481,275.794 197.695,275.794 198.482 C 275.794 198.662,276.890 199.856,278.230 201.135 C 283.335 206.010,284.604 207.435,285.377 209.162 C 285.760 210.016,286.257 210.714,286.483 210.714 C 286.709 210.714,287.414 211.741,288.050 212.996 C 288.686 214.251,289.670 215.711,290.238 216.240 C 290.806 216.769,291.270 217.522,291.270 217.913 C 291.270 218.303,291.807 219.235,292.464 219.983 C 293.120 220.730,294.022 222.166,294.467 223.173 C 294.913 224.180,295.751 225.443,296.330 225.980 C 297.881 227.419,297.377 227.566,290.398 227.714 L 284.036 227.849 282.097 225.784 C 281.031 224.649,280.159 223.478,280.159 223.183 C 280.159 222.888,279.647 222.060,279.021 221.343 C 278.395 220.626,277.413 219.109,276.839 217.971 C 276.264 216.833,275.452 215.718,275.032 215.493 C 274.613 215.269,274.070 214.481,273.826 213.742 C 273.582 213.002,273.013 212.063,272.561 211.655 C 272.109 211.247,271.291 210.020,270.743 208.929 C 269.711 206.873,269.300 206.397,264.101 201.241 C 261.959 199.117,253.243 198.258,251.135 199.965 L 250.198 200.723 250.000 214.151 L 249.802 227.579 244.698 227.691 C 241.274 227.765,239.413 227.652,239.043 227.345 C 238.286 226.716,238.212 160.756,238.968 160.000 C 239.913 159.055,274.327 159.375,276.984 160.354 M187.588 171.171 C 186.545 171.467,185.295 172.072,184.810 172.516 C 184.325 172.960,183.170 173.704,182.242 174.170 C 181.314 174.635,180.556 175.198,180.556 175.421 C 180.556 175.643,179.867 176.500,179.025 177.325 C 177.899 178.429,177.358 179.395,176.978 180.980 C 176.694 182.165,176.101 183.623,175.661 184.220 C 173.711 186.861,173.705 200.413,175.651 203.081 C 176.087 203.678,176.689 205.055,176.989 206.141 C 177.346 207.432,178.091 208.695,179.144 209.793 C 180.029 210.717,181.022 211.760,181.349 212.111 C 181.677 212.463,182.569 213.179,183.333 213.703 C 184.097 214.227,185.090 214.928,185.539 215.260 C 188.533 217.475,200.862 217.116,203.311 214.743 C 204.021 214.055,204.820 213.492,205.087 213.492 C 205.873 213.492,209.790 209.447,210.467 207.937 C 210.809 207.173,211.465 206.085,211.925 205.519 C 214.114 202.823,214.094 184.444,211.899 181.748 C 211.454 181.201,210.809 180.129,210.467 179.365 C 210.124 178.601,209.192 177.312,208.394 176.500 C 207.597 175.688,206.766 174.836,206.548 174.606 C 206.329 174.376,205.526 173.752,204.762 173.218 C 203.998 172.685,202.969 171.953,202.475 171.591 C 201.236 170.684,190.386 170.377,187.588 171.171 M250.974 171.609 C 250.016 172.567,250.000 172.693,250.000 179.365 C 250.000 186.037,250.016 186.163,250.974 187.121 L 251.948 188.095 261.986 188.078 C 274.549 188.056,274.684 188.031,277.592 185.192 L 279.880 182.958 280.068 180.026 C 280.581 172.029,277.997 170.659,262.383 170.644 L 251.948 170.635 250.974 171.609 M199.431 171.859 C 200.726 172.095,202.143 172.598,202.579 172.976 C 203.016 173.354,203.906 173.996,204.558 174.402 C 206.789 175.794,209.175 178.822,210.843 182.379 L 212.500 185.913 212.500 193.651 L 212.500 201.389 210.632 205.159 C 208.593 209.275,206.878 211.346,204.033 213.127 C 200.134 215.567,199.771 215.662,194.246 215.668 L 189.087 215.675 185.714 213.798 C 179.734 210.470,176.865 205.741,175.359 196.726 C 174.600 192.181,177.239 179.989,179.310 178.475 C 179.685 178.201,180.411 177.379,180.923 176.650 C 181.437 175.916,182.624 174.992,183.578 174.583 C 184.527 174.177,185.821 173.461,186.455 172.992 C 188.521 171.465,194.443 170.947,199.431 171.859 M276.364 173.393 C 280.533 176.610,280.581 181.193,276.484 184.905 C 274.016 187.141,273.256 187.263,261.738 187.284 C 249.731 187.306,250.794 188.068,250.794 179.434 C 250.794 170.515,249.507 171.343,263.116 171.500 L 274.076 171.627 276.364 173.393 M333.929 186.177 C 331.354 187.601,331.349 187.618,331.349 195.238 C 331.349 202.885,331.371 202.960,334.009 204.320 C 334.875 204.766,334.878 204.757,334.307 203.390 C 333.489 201.432,333.487 189.048,334.305 187.090 C 334.621 186.334,334.845 185.720,334.801 185.726 C 334.758 185.733,334.365 185.936,333.929 186.177 M62.519 250.578 C 62.946 251.603,63.095 253.706,63.095 258.730 C 63.095 263.755,62.946 265.858,62.519 266.882 C 61.947 268.249,61.950 268.258,62.816 267.812 C 65.454 266.453,65.476 266.377,65.476 258.730 C 65.476 251.083,65.454 251.008,62.816 249.649 C 61.950 249.203,61.947 249.212,62.519 250.578 " stroke="none" fill="#7c7c7c" fill-rule="evenodd"></path></g></svg>