<?xml version="1.0" standalone="no"?>
<!DOCTYPE svg PUBLIC "-//W3C//DTD SVG 20010904//EN"
 "http://www.w3.org/TR/2001/REC-SVG-20010904/DTD/svg10.dtd">
<svg version="1.0" xmlns="http://www.w3.org/2000/svg"
 width="126.000000pt" height="124.000000pt" viewBox="0 0 126.000000 124.000000"
 preserveAspectRatio="xMidYMid meet">

<g transform="translate(0.000000,124.000000) scale(0.100000,-0.100000)"
fill="#000000" stroke="none">
<path d="M249 1191 l-39 -39 -1 -156 c0 -200 0 -562 0 -762 l1 -156 39 -39 39
-39 337 0 337 0 39 39 39 39 0 236 0 236 30 0 c37 0 70 31 70 65 0 34 -33 65
-70 65 l-30 0 0 236 0 236 -39 39 -39 39 -337 0 -337 0 -39 -39z m723 -29 l33
-32 0 -515 0 -515 -33 -32 -32 -33 -315 0 -315 0 -32 33 -33 32 0 515 0 514
29 30 c16 16 38 32 50 34 11 3 155 4 318 3 l298 -1 32 -33z m132 -534 c8 -14
7 -21 -6 -34 -30 -30 -75 9 -48 42 16 18 39 15 54 -8z"/>
<path d="M360 600 c0 -83 2 -90 19 -90 17 0 20 8 23 53 l3 52 30 -52 c18 -32
37 -53 48 -53 15 0 17 11 17 90 0 72 -3 90 -15 90 -10 0 -15 -15 -17 -57 l-3
-58 -33 58 c-22 39 -38 57 -52 57 -18 0 -20 -7 -20 -90z"/>
<path d="M566 669 c-22 -17 -26 -28 -26 -69 0 -41 4 -52 26 -69 34 -27 74 -27
108 0 22 17 26 28 26 69 0 41 -4 52 -26 69 -15 12 -39 21 -54 21 -15 0 -39 -9
-54 -21z m88 -25 c21 -20 20 -63 -1 -86 -20 -22 -41 -23 -65 -1 -36 32 -14
103 32 103 10 0 26 -7 34 -16z"/>
<path d="M740 600 c0 -73 3 -90 15 -90 11 0 15 11 15 40 0 29 4 40 15 40 8 0
27 -18 41 -40 15 -23 35 -40 45 -40 25 0 24 8 -5 51 -24 34 -24 36 -5 47 25
16 25 58 0 72 -11 5 -42 10 -70 10 l-51 0 0 -90z m100 40 c0 -16 -7 -20 -35
-20 -28 0 -35 4 -35 20 0 16 7 20 35 20 28 0 35 -4 35 -20z"/>
</g>
</svg>
