<?xml version="1.0" standalone="no"?>
<!DOCTYPE svg PUBLIC "-//W3C//DTD SVG 20010904//EN"
 "http://www.w3.org/TR/2001/REC-SVG-20010904/DTD/svg10.dtd">
<svg version="1.0" xmlns="http://www.w3.org/2000/svg"
 width="126.000000pt" height="124.000000pt" viewBox="0 0 126.000000 124.000000"
 preserveAspectRatio="xMidYMid meet">

<g transform="translate(0.000000,124.000000) scale(0.100000,-0.100000)"
fill="#000000" stroke="none">
<path d="M249 1191 l-39 -39 -1 -156 c0 -200 0 -562 0 -762 l1 -156 39 -39 39
-39 337 0 337 0 39 39 39 39 0 236 0 236 30 0 c37 0 70 31 70 65 0 34 -33 65
-70 65 l-30 0 0 236 0 236 -39 39 -39 39 -337 0 -337 0 -39 -39z m723 -29 l33
-32 0 -515 0 -515 -33 -32 -32 -33 -315 0 -315 0 -32 33 -33 32 0 515 0 514
29 30 c16 16 38 32 50 34 11 3 155 4 318 3 l298 -1 32 -33z m132 -534 c8 -14
7 -21 -6 -34 -30 -30 -75 9 -48 42 16 18 39 15 54 -8z"/>
<path d="M282 668 c44 -67 43 -62 9 -112 -32 -46 -32 -46 -9 -46 16 0 30 10
42 31 l19 31 19 -31 c11 -17 29 -31 39 -31 24 0 24 4 -6 48 -31 45 -31 49 0
95 l26 37 -23 0 c-15 0 -30 -10 -39 -27 l-17 -26 -17 26 c-9 15 -26 27 -37 27
-19 0 -19 -2 -6 -22z"/>
<path d="M450 601 c0 -74 3 -91 15 -91 12 0 15 13 15 58 l0 57 33 -55 c18 -30
41 -56 50 -58 15 -3 17 7 17 87 0 74 -3 91 -15 91 -12 0 -15 -13 -15 -57 l0
-58 -33 55 c-18 30 -41 56 -50 58 -15 3 -17 -7 -17 -87z"/>
<path d="M645 665 c-35 -34 -35 -96 0 -130 53 -54 145 -12 145 65 0 77 -92
119 -145 65z m99 -37 c14 -41 -3 -82 -36 -86 -27 -3 -58 27 -58 58 0 58 76 80
94 28z"/>
<path d="M820 600 c0 -73 3 -90 15 -90 11 0 15 11 15 40 0 32 4 40 18 40 9 0
28 -18 42 -40 17 -28 32 -40 48 -40 22 0 22 1 5 28 -9 15 -23 34 -30 43 -12
14 -11 17 7 22 14 4 20 13 20 34 0 42 -17 53 -82 53 l-58 0 0 -90z m105 40 c0
-10 -12 -16 -37 -18 -33 -3 -38 0 -38 18 0 18 5 21 38 18 25 -2 37 -8 37 -18z"/>
</g>
</svg>
