<?xml version="1.0" standalone="no"?>
<!DOCTYPE svg PUBLIC "-//W3C//DTD SVG 20010904//EN"
 "http://www.w3.org/TR/2001/REC-SVG-20010904/DTD/svg10.dtd">
<svg version="1.0" xmlns="http://www.w3.org/2000/svg"
 width="126.000000pt" height="124.000000pt" viewBox="0 0 126.000000 124.000000"
 preserveAspectRatio="xMidYMid meet">

<g transform="translate(0.000000,124.000000) scale(0.100000,-0.100000)"
fill="#000000" stroke="none">
<path d="M252 1196 l-37 -34 -5 -272 c-3 -149 -3 -395 0 -546 l5 -276 37 -34
38 -34 336 0 336 0 39 39 39 39 0 236 0 236 30 0 c37 0 70 31 70 65 0 34 -33
65 -70 65 l-30 0 0 236 0 236 -39 39 -39 39 -336 0 -336 0 -38 -34z m720 -34
l33 -32 0 -515 0 -515 -33 -32 -32 -33 -315 0 -315 0 -32 33 -33 32 0 515 0
514 29 30 c16 16 38 32 50 34 11 3 155 4 318 3 l298 -1 32 -33z m132 -534 c8
-14 7 -21 -6 -34 -30 -30 -75 9 -48 42 16 18 39 15 54 -8z"/>
<path d="M380 601 c0 -74 3 -91 15 -91 12 0 15 13 15 58 l0 57 33 -55 c18 -30
41 -56 50 -58 15 -3 17 7 17 87 0 74 -3 91 -15 91 -12 0 -15 -13 -15 -57 l0
-58 -33 55 c-18 30 -41 56 -50 58 -15 3 -17 -7 -17 -87z"/>
<path d="M575 665 c-56 -55 -18 -155 60 -155 51 0 85 36 85 90 0 54 -34 90
-85 90 -25 0 -44 -8 -60 -25z m93 -17 c16 -16 16 -80 0 -96 -7 -7 -21 -12 -33
-12 -31 0 -45 19 -45 60 0 41 14 60 45 60 12 0 26 -5 33 -12z"/>
<path d="M750 675 c0 -9 9 -15 25 -15 24 0 25 -2 25 -75 0 -60 3 -75 15 -75
12 0 15 15 15 75 l0 75 30 0 c20 0 30 5 30 15 0 12 -14 15 -70 15 -56 0 -70
-3 -70 -15z"/>
</g>
</svg>
