<?xml version="1.0" standalone="no"?>
<!DOCTYPE svg PUBLIC "-//W3C//DTD SVG 20010904//EN"
 "http://www.w3.org/TR/2001/REC-SVG-20010904/DTD/svg10.dtd">
<svg version="1.0" xmlns="http://www.w3.org/2000/svg"
 width="512.000000pt" height="512.000000pt" viewBox="0 0 512.000000 512.000000"
 preserveAspectRatio="xMidYMid meet">

<g transform="translate(0.000000,512.000000) scale(0.100000,-0.100000)"
fill="#000000" stroke="none">
<path d="M1160 3620 c-397 -49 -725 -303 -873 -676 -51 -128 -70 -236 -70
-384 0 -148 19 -256 70 -384 139 -352 430 -592 808 -667 50 -10 154 -14 370
-14 l300 0 47 28 c113 66 140 219 57 320 -57 69 -69 71 -409 78 -276 5 -311 7
-370 27 -316 105 -502 425 -435 747 38 182 170 352 335 434 128 62 183 71 484
71 295 0 321 5 382 65 98 98 77 261 -44 332 l-47 28 -270 2 c-148 0 -299 -3
-335 -7z"/>
<path d="M3362 3621 c-58 -15 -108 -56 -136 -112 -44 -89 -31 -175 37 -243 62
-62 87 -66 383 -66 301 0 356 -9 484 -71 208 -103 350 -333 350 -569 0 -275
-184 -524 -453 -613 -55 -18 -96 -21 -373 -26 l-311 -6 -41 -28 c-60 -39 -93
-94 -99 -164 -7 -80 31 -154 102 -198 l48 -30 306 0 c258 0 319 3 389 18 207
46 373 132 521 272 102 96 164 181 227 310 169 349 143 736 -74 1064 -50 76
-171 201 -252 261 -73 54 -214 128 -295 154 -132 42 -184 48 -485 51 -162 2
-310 0 -328 -4z"/>
<path d="M1620 2754 c-173 -75 -161 -342 18 -394 26 -8 318 -10 944 -8 l906 3
44 30 c138 97 118 306 -34 370 -33 13 -147 15 -940 15 -784 -1 -908 -3 -938
-16z"/>
</g>
</svg>
