<?xml version="1.0" standalone="no"?>
<!DOCTYPE svg PUBLIC "-//W3C//DTD SVG 20010904//EN"
 "http://www.w3.org/TR/2001/REC-SVG-20010904/DTD/svg10.dtd">
<svg version="1.0" xmlns="http://www.w3.org/2000/svg"
 width="512.000000pt" height="512.000000pt" viewBox="0 0 512.000000 512.000000"
 preserveAspectRatio="xMidYMid meet">

<g transform="translate(0.000000,512.000000) scale(0.100000,-0.100000)"
fill="#000000" stroke="none">
<path d="M2505 5101 c-55 -35 -713 -704 -720 -733 -10 -41 12 -97 49 -119 28
-17 51 -19 214 -19 l182 0 -2 -667 -3 -668 -667 -3 -668 -2 0 182 c0 164 -2
186 -20 215 -25 41 -85 62 -128 44 -42 -18 -729 -710 -737 -743 -4 -16 -4 -40
0 -56 8 -33 695 -725 737 -743 43 -18 103 3 128 44 18 29 20 51 20 215 l0 182
668 -2 667 -3 3 -667 2 -668 -182 0 c-164 0 -186 -2 -215 -20 -41 -25 -62 -85
-44 -128 18 -42 710 -729 744 -737 15 -4 39 -4 55 0 33 8 725 695 743 737 18
43 -3 103 -44 128 -29 18 -51 20 -215 20 l-182 0 2 668 3 667 668 3 667 2 0
-182 c0 -164 2 -186 20 -215 25 -41 85 -62 128 -44 42 18 729 710 737 744 4
15 4 39 0 55 -8 33 -695 725 -737 743 -43 18 -103 -3 -128 -44 -18 -29 -20
-51 -20 -215 l0 -182 -667 2 -668 3 -3 668 -2 667 182 0 c163 0 186 2 214 19
37 22 59 78 49 119 -7 30 -681 713 -727 738 -36 19 -67 18 -103 -5z"/>
</g>
</svg>
