<?xml version="1.0" standalone="no"?>
<!DOCTYPE svg PUBLIC "-//W3C//DTD SVG 20010904//EN"
 "http://www.w3.org/TR/2001/REC-SVG-20010904/DTD/svg10.dtd">
<svg version="1.0" xmlns="http://www.w3.org/2000/svg"
 width="512.000000pt" height="512.000000pt" viewBox="0 0 512.000000 512.000000"
 preserveAspectRatio="xMidYMid meet">

<g transform="translate(0.000000,512.000000) scale(0.100000,-0.100000)"
fill="#000000" stroke="none">
<path d="M2440 3674 c-210 -39 -266 -56 -400 -126 -205 -106 -374 -279 -480
-493 -52 -106 -75 -176 -105 -320 -4 -20 -12 -20 -679 -20 -666 0 -675 0 -702
-21 -44 -32 -66 -68 -71 -116 -7 -58 15 -108 63 -144 l37 -29 674 0 c666 0
674 0 678 -20 46 -220 119 -384 238 -530 88 -109 141 -141 212 -130 59 8 120
64 130 118 12 64 -2 102 -68 182 -81 96 -124 169 -158 263 -83 236 -56 494 73
694 100 156 244 273 404 329 183 64 365 64 548 0 110 -39 192 -21 236 51 40
66 19 172 -43 212 -34 23 -150 62 -242 81 -77 17 -294 28 -345 19z"/>
<path d="M3172 3383 c-44 -21 -80 -66 -88 -108 -11 -63 3 -101 72 -183 203
-242 256 -526 151 -814 -79 -218 -272 -404 -492 -474 -175 -56 -336 -55 -515
1 -98 32 -148 34 -193 8 -70 -41 -96 -128 -63 -207 20 -48 57 -72 162 -106
196 -63 392 -75 579 -35 436 92 782 436 868 865 l13 65 675 5 676 5 37 29 c90
68 86 190 -8 260 -27 21 -40 21 -704 26 l-676 5 -13 65 c-38 189 -126 363
-260 517 -77 87 -148 112 -221 76z"/>
<path d="M2106 3014 c-53 -54 -45 -68 156 -270 l182 -184 -182 -184 c-119
-120 -182 -190 -182 -204 0 -52 40 -92 92 -92 14 0 84 63 205 182 l183 182
173 -171 c172 -171 199 -193 235 -193 30 0 72 48 72 83 0 25 -27 57 -182 213
l-182 184 182 184 c201 202 209 216 156 270 -54 53 -68 45 -270 -156 l-184
-182 -184 182 c-202 201 -216 209 -270 156z"/>
</g>
</svg>
